<svg xmlns="http://www.w3.org/2000/svg" xmlns:xlink="http://www.w3.org/1999/xlink" xmlns:lucid="lucid" width="1011" height="413">
    <g transform="translate(-137 -663)" lucid:page-tab-id="0_0">
        <path d="M365.6 950.23c1.33-2.43 4.64-4.4 7.4-4.4h142c2.76 0 3.93 1.97 2.6 4.4l-33.2 61.2c-1.33 2.44-4.64 4.4-7.4 4.4H335c-2.76 0-3.93-1.96-2.6-4.4z" stroke="#000" stroke-width="2" fill="#fff"/>
        <use xlink:href="#a" transform="matrix(1,0,0,1,377.5,945.8333333333366) translate(25.074999999999996 27.799999999999997)"/>
        <use xlink:href="#b" transform="matrix(1,0,0,1,377.5,945.8333333333366) translate(22.525 49.4)"/>
        <path d="M768.14 940.48c1.03-2.57 4.1-4.65 6.86-4.65h150c2.76 0 4.17 2.08 3.14 4.65l-36.28 90.7c-1.03 2.57-4.1 4.65-6.86 4.65H735c-2.76 0-4.17-2.08-3.14-4.64z" stroke="#000" stroke-width="2" fill="#fff"/>
        <use xlink:href="#c" transform="matrix(1,0,0,1,780,935.8333333333366) translate(9.549999999999997 53.6)"/>
        <use xlink:href="#b" transform="matrix(1,0,0,1,780,935.8333333333366) translate(40.5 53.6)"/>
        <path d="M540 845.83c0-2.76 2.24-5 5-5h170c2.76 0 5 2.24 5 5v58.8c0 2.76-2.24 5-5 5H545c-2.76 0-5-2.24-5-5z" fill="none"/>
        <use xlink:href="#d" transform="matrix(1,0,0,1,540,840.8333333333366) translate(29.949999999999996 27.299999999999997)"/>
        <use xlink:href="#e" transform="matrix(1,0,0,1,540,840.8333333333366) translate(15.5 48.9)"/>
        <use xlink:href="#f" transform="matrix(1,0,0,1,540,840.8333333333366) translate(84.4 48.9)"/>
        <use xlink:href="#g" transform="matrix(1,0,0,1,540,840.8333333333366) translate(129.55 48.9)"/>
        <path d="M429 687.67c2.76 0 5 2.24 5 5v58.66c0 2.76 2.24 5 5 5h3c2.76 0 3.42 1.6 1.46 3.54l-18.92 18.93c-1.96 1.95-5.12 1.95-7.08 0l-18.92-18.93c-1.96-1.95-1.3-3.54 1.46-3.54h3c2.76 0 5-2.24 5-5v-58.66c0-2.76 2.24-5 5-5z" stroke="#000" stroke-width="2" fill="#fff"/>
        <path d="M245 705.83c0-2.76 2.24-5 5-5h145c2.76 0 5 2.24 5 5v60c0 2.76-2.24 5-5 5H250c-2.76 0-5-2.24-5-5z" fill="none"/>
        <use xlink:href="#h" transform="matrix(1,0,0,1,245,700.8333333333366) translate(26.574999999999996 38.6)"/>
        <use xlink:href="#i" transform="matrix(1,0,0,1,245,700.8333333333366) translate(69.475 38.6)"/>
        <path d="M841 685c2.76 0 5 2.24 5 5v63.33c0 2.76 2.24 5 5 5h2c2.76 0 3.42 1.6 1.46 3.54l-16.92 16.93c-1.96 1.95-5.12 1.95-7.08 0l-16.92-16.93c-1.96-1.95-1.3-3.54 1.46-3.54h2c2.76 0 5-2.24 5-5V690c0-2.76 2.24-5 5-5z" stroke="#000" stroke-width="2" fill="#fff"/>
        <path d="M870 705.83c0-2.76 2.24-5 5-5h210c2.76 0 5 2.24 5 5v50c0 2.76-2.24 5-5 5H875c-2.76 0-5-2.24-5-5z" fill="none"/>
        <use xlink:href="#h" transform="matrix(1,0,0,1,870,700.8333333333366) translate(3.1499999999999915 33.6)"/>
        <use xlink:href="#j" transform="matrix(1,0,0,1,870,700.8333333333366) translate(46.05 33.6)"/>
        <use xlink:href="#k" transform="matrix(1,0,0,1,870,700.8333333333366) translate(110 33.6)"/>
        <path d="M497 780.83c4.42 0 8 3.6 8 8v64c0 4.42-3.58 8-8 8H353c-4.42 0-8-3.58-8-8v-64c0-4.4 3.58-8 8-8z" stroke="#000" stroke-width="2" fill="#cff"/>
        <use xlink:href="#l" transform="matrix(1,0,0,1,365,780.8333333333366) translate(37.075 32.8)"/>
        <use xlink:href="#m" transform="matrix(1,0,0,1,365,780.8333333333366) translate(12.099999999999994 54.4)"/>
        <path d="M902 780.83c4.42 0 8 3.6 8 8v64c0 4.42-3.58 8-8 8H758c-4.42 0-8-3.58-8-8v-64c0-4.4 3.58-8 8-8z" stroke="#000" stroke-width="2" fill="#ffe6cc"/>
        <use xlink:href="#n" transform="matrix(1,0,0,1,770,780.8333333333366) translate(4.6499999999999915 43.6)"/>
        <use xlink:href="#o" transform="matrix(1,0,0,1,770,780.8333333333366) translate(62.55 43.6)"/>
        <path d="M425 944.83v-64.76" stroke="#000" stroke-width="2" fill="none"/>
        <path d="M426 945.83h-2v-1h2zM429.64 879.34h-9.28l4.64-14.27z"/>
        <path d="M431 880.34h-12l6-18.5zm-9.26-2h6.52L425 868.3z"/>
        <path d="M830 934.83v-54.76" stroke="#000" stroke-width="2" fill="none"/>
        <path d="M831 935.83h-2v-1h2zM834.64 879.34h-9.28l4.64-14.27z"/>
        <path d="M836 880.34h-12l6-18.5zm-9.26-2h6.52L830 868.3z"/>
        <path d="M506 820.83h224.76" stroke="#000" stroke-width="2" fill="none"/>
        <path d="M506 821.83h-1v-2h1zM745.76 820.83l-14.26 4.64v-9.27z"/>
        <path d="M749 820.83l-18.5 6.02v-12.03zm-16.5 3.26l10.03-3.27-10.03-3.26z"/>
        <path d="M165 880.83c0-2.76 2.24-5 5-5h110c2.76 0 5 2.24 5 5v80c0 2.76-2.24 5-5 5H170c-2.76 0-5-2.24-5-5z" fill="#fff"/>
        <path d="M165 875.83h120m0 90H165" stroke="#000" stroke-width="2" fill="#fff"/>
        <use xlink:href="#a" transform="matrix(1,0,0,1,185,875.8333333333366) translate(17.574999999999996 37.8)"/>
        <use xlink:href="#p" transform="matrix(1,0,0,1,185,875.8333333333366) translate(14.024999999999999 59.4)"/>
        <path d="M225 874.83l.05-2.5.15-2.3.23-2.18.3-2.04.37-1.93.43-1.84.5-1.75.54-1.68.6-1.6.66-1.57.7-1.5.78-1.47.83-1.42.9-1.4.94-1.36 1.02-1.34 1.1-1.32 1.18-1.3 1.27-1.3 1.38-1.3 1.5-1.27 1.6-1.28 1.78-1.28 1.96-1.3 2.13-1.28 2.36-1.3 2.64-1.28 2.96-1.3 3.34-1.3 3.8-1.32 4.4-1.3 5.16-1.3 6.1-1.27 7.43-1.22 9.32-1.13 12.44-.97 17.9-.63" stroke="#000" stroke-width="2" fill="none"/>
        <path d="M226 874.97l-.13.86h-2.02l.16-1.14zM340.76 820.86l-14.22 4.77-.08-9.27z"/>
        <path d="M344 820.83L325.55 827l-.1-12zm-16.47 3.4l10-3.34-10.06-3.17z"/>
        <path d="M980 873.33c0-2.76 2.24-5 5-5h115c2.76 0 5 2.24 5 5v80c0 2.76-2.24 5-5 5H985c-2.76 0-5-2.24-5-5z" fill="#fff"/>
        <path d="M980 868.33h125m0 90H980" stroke="#000" stroke-width="2" fill="#fff"/>
        <g>
            <use xlink:href="#c" transform="matrix(1,0,0,1,1000,868.3333333333366) translate(1.0499999999999972 48.6)"/>
            <use xlink:href="#p" transform="matrix(1,0,0,1,1000,868.3333333333366) translate(31.999999999999996 48.6)"/>
        </g>
        <path d="M1042.5 867.33l-.05-2.47-.14-2.28-.22-2.1-.3-1.98-.34-1.84-.4-1.73-.46-1.64-.5-1.56-.55-1.48-.6-1.4-.64-1.37-.7-1.32-.72-1.26-.78-1.23-.83-1.2-.88-1.16-.95-1.14-1-1.12-1.1-1.1-1.14-1.1-1.24-1.06-1.34-1.06-1.45-1.06-1.58-1.05-1.74-1.05-1.9-1.04-2.1-1.04-2.33-1.04-2.62-1.03-2.96-1.03-3.4-1.03-3.9-1-4.64-1-5.56-.93-6.88-.86-8.95-.73-12.8-.52-35.56.32" stroke="#000" stroke-width="2" fill="none"/>
        <path d="M1043.66 868.33h-2.02l-.13-.85 2-.3zM928.54 825.3l-14.3-4.5 14.22-4.76z"/>
        <path d="M929.56 826.68L911 820.83l18.45-6.17zm-12.1-5.9l10.07 3.16-.06-6.5z"/>
        <defs>
            <path d="M185-189c-5-48-123-54-124 2 14 75 158 14 163 119 3 78-121 87-175 55-17-10-28-26-33-46l33-7c5 56 141 63 141-1 0-78-155-14-162-118-5-82 145-84 179-34 5 7 8 16 11 25" id="q"/>
            <path d="M210-169c-67 3-38 105-44 169h-31v-121c0-29-5-50-35-48C34-165 62-65 56 0H25l-1-190h30c1 10-1 24 2 32 10-44 99-50 107 0 11-21 27-35 58-36 85-2 47 119 55 194h-31v-121c0-29-5-49-35-48" id="r"/>
            <path d="M141-36C126-15 110 5 73 4 37 3 15-17 15-53c-1-64 63-63 125-63 3-35-9-54-41-54-24 1-41 7-42 31l-33-3c5-37 33-52 76-52 45 0 72 20 72 64v82c-1 20 7 32 28 27v20c-31 9-61-2-59-35zM48-53c0 20 12 33 32 33 41-3 63-29 60-74-43 2-92-5-92 41" id="s"/>
            <path d="M24 0v-261h32V0H24" id="t"/>
            <g id="a">
                <use transform="matrix(0.05,0,0,0.05,0,0)" xlink:href="#q"/>
                <use transform="matrix(0.05,0,0,0.05,12,0)" xlink:href="#r"/>
                <use transform="matrix(0.05,0,0,0.05,26.950000000000003,0)" xlink:href="#s"/>
                <use transform="matrix(0.05,0,0,0.05,36.95,0)" xlink:href="#t"/>
                <use transform="matrix(0.05,0,0,0.05,40.900000000000006,0)" xlink:href="#t"/>
            </g>
            <path d="M33 0v-248h34V0H33" id="u"/>
            <path d="M177-190C167-65 218 103 67 71c-23-6-38-20-44-43l32-5c15 47 100 32 89-28v-30C133-14 115 1 83 1 29 1 15-40 15-95c0-56 16-97 71-98 29-1 48 16 59 35 1-10 0-23 2-32h30zM94-22c36 0 50-32 50-73 0-42-14-75-50-75-39 0-46 34-46 75s6 73 46 73" id="v"/>
            <path d="M100-194c63 0 86 42 84 106H49c0 40 14 67 53 68 26 1 43-12 49-29l28 8c-11 28-37 45-77 45C44 4 14-33 15-96c1-61 26-98 85-98zm52 81c6-60-76-77-97-28-3 7-6 17-6 28h103" id="w"/>
            <g id="b">
                <use transform="matrix(0.05,0,0,0.05,0,0)" xlink:href="#u"/>
                <use transform="matrix(0.05,0,0,0.05,5,0)" xlink:href="#r"/>
                <use transform="matrix(0.05,0,0,0.05,19.950000000000003,0)" xlink:href="#s"/>
                <use transform="matrix(0.05,0,0,0.05,29.950000000000003,0)" xlink:href="#v"/>
                <use transform="matrix(0.05,0,0,0.05,39.95,0)" xlink:href="#w"/>
            </g>
            <path d="M160-131c35 5 61 23 61 61C221 17 115-2 30 0v-248c76 3 177-17 177 60 0 33-19 50-47 57zm-97-11c50-1 110 9 110-42 0-47-63-36-110-37v79zm0 115c55-2 124 14 124-45 0-56-70-42-124-44v89" id="x"/>
            <path d="M24-231v-30h32v30H24zM24 0v-190h32V0H24" id="y"/>
            <g id="c">
                <use transform="matrix(0.05,0,0,0.05,0,0)" xlink:href="#x"/>
                <use transform="matrix(0.05,0,0,0.05,12,0)" xlink:href="#y"/>
                <use transform="matrix(0.05,0,0,0.05,15.949999999999998,0)" xlink:href="#v"/>
            </g>
            <path d="M127-220V0H93v-220H8v-28h204v28h-85" id="z"/>
            <path d="M114-163C36-179 61-72 57 0H25l-1-190h30c1 12-1 29 2 39 6-27 23-49 58-41v29" id="A"/>
            <path d="M117-194c89-4 53 116 60 194h-32v-121c0-31-8-49-39-48C34-167 62-67 57 0H25l-1-190h30c1 10-1 24 2 32 11-22 29-35 61-36" id="B"/>
            <path d="M135-143c-3-34-86-38-87 0 15 53 115 12 119 90S17 21 10-45l28-5c4 36 97 45 98 0-10-56-113-15-118-90-4-57 82-63 122-42 12 7 21 19 24 35" id="C"/>
            <path d="M101-234c-31-9-42 10-38 44h38v23H63V0H32v-167H5v-23h27c-7-52 17-82 69-68v24" id="D"/>
            <path d="M100-194c62-1 85 37 85 99 1 63-27 99-86 99S16-35 15-95c0-66 28-99 85-99zM99-20c44 1 53-31 53-75 0-43-8-75-51-75s-53 32-53 75 10 74 51 75" id="E"/>
            <path d="M59-47c-2 24 18 29 38 22v24C64 9 27 4 27-40v-127H5v-23h24l9-43h21v43h35v23H59v120" id="F"/>
            <g id="d">
                <use transform="matrix(0.05,0,0,0.05,0,0)" xlink:href="#z"/>
                <use transform="matrix(0.05,0,0,0.05,10.3,0)" xlink:href="#A"/>
                <use transform="matrix(0.05,0,0,0.05,16.25,0)" xlink:href="#s"/>
                <use transform="matrix(0.05,0,0,0.05,26.25,0)" xlink:href="#B"/>
                <use transform="matrix(0.05,0,0,0.05,36.25,0)" xlink:href="#C"/>
                <use transform="matrix(0.05,0,0,0.05,45.25,0)" xlink:href="#D"/>
                <use transform="matrix(0.05,0,0,0.05,50.25,0)" xlink:href="#E"/>
                <use transform="matrix(0.05,0,0,0.05,60.25,0)" xlink:href="#A"/>
                <use transform="matrix(0.05,0,0,0.05,66.2,0)" xlink:href="#r"/>
                <use transform="matrix(0.05,0,0,0.05,81.15,0)" xlink:href="#s"/>
                <use transform="matrix(0.05,0,0,0.05,91.15,0)" xlink:href="#F"/>
                <use transform="matrix(0.05,0,0,0.05,96.15,0)" xlink:href="#y"/>
                <use transform="matrix(0.05,0,0,0.05,100.10000000000001,0)" xlink:href="#E"/>
                <use transform="matrix(0.05,0,0,0.05,110.10000000000001,0)" xlink:href="#B"/>
            </g>
            <path d="M87 75C49 33 22-17 22-94c0-76 28-126 65-167h31c-38 41-64 92-64 168S80 34 118 75H87" id="G"/>
            <path d="M233-177c-1 41-23 64-60 70L243 0h-38l-65-103H63V0H30v-248c88 3 205-21 203 71zM63-129c60-2 137 13 137-47 0-61-80-42-137-45v92" id="H"/>
            <path d="M68-38c1 34 0 65-14 84H32c9-13 17-26 17-46H33v-38h35" id="I"/>
            <g id="e">
                <use transform="matrix(0.05,0,0,0.05,0,0)" xlink:href="#G"/>
                <use transform="matrix(0.05,0,0,0.05,5.95,0)" xlink:href="#H"/>
                <use transform="matrix(0.05,0,0,0.05,18.900000000000002,0)" xlink:href="#E"/>
                <use transform="matrix(0.05,0,0,0.05,28.900000000000002,0)" xlink:href="#F"/>
                <use transform="matrix(0.05,0,0,0.05,33.900000000000006,0)" xlink:href="#s"/>
                <use transform="matrix(0.05,0,0,0.05,43.900000000000006,0)" xlink:href="#F"/>
                <use transform="matrix(0.05,0,0,0.05,48.900000000000006,0)" xlink:href="#w"/>
                <use transform="matrix(0.05,0,0,0.05,58.900000000000006,0)" xlink:href="#I"/>
            </g>
            <g id="f">
                <use transform="matrix(0.05,0,0,0.05,0,0)" xlink:href="#z"/>
                <use transform="matrix(0.05,0,0,0.05,10.3,0)" xlink:href="#A"/>
                <use transform="matrix(0.05,0,0,0.05,16.25,0)" xlink:href="#y"/>
                <use transform="matrix(0.05,0,0,0.05,20.2,0)" xlink:href="#r"/>
                <use transform="matrix(0.05,0,0,0.05,35.15,0)" xlink:href="#I"/>
            </g>
            <path d="M96-169c-40 0-48 33-48 73s9 75 48 75c24 0 41-14 43-38l32 2c-6 37-31 61-74 61-59 0-76-41-82-99-10-93 101-131 147-64 4 7 5 14 7 22l-32 3c-4-21-16-35-41-35" id="J"/>
            <path d="M33 0v-38h34V0H33" id="K"/>
            <path d="M33-261c38 41 65 92 65 168S71 34 33 75H2C39 34 66-17 66-93S39-220 2-261h31" id="L"/>
            <g id="g">
                <use transform="matrix(0.05,0,0,0.05,0,0)" xlink:href="#w"/>
                <use transform="matrix(0.05,0,0,0.05,10,0)" xlink:href="#F"/>
                <use transform="matrix(0.05,0,0,0.05,15,0)" xlink:href="#J"/>
                <use transform="matrix(0.05,0,0,0.05,24,0)" xlink:href="#K"/>
                <use transform="matrix(0.05,0,0,0.05,29,0)" xlink:href="#L"/>
            </g>
            <path d="M232-93c-1 65-40 97-104 97C67 4 28-28 28-90v-158h33c8 89-33 224 67 224 102 0 64-133 71-224h33v155" id="M"/>
            <g id="h">
                <use transform="matrix(0.05,0,0,0.05,0,0)" xlink:href="#M"/>
                <use transform="matrix(0.05,0,0,0.05,12.950000000000001,0)" xlink:href="#C"/>
                <use transform="matrix(0.05,0,0,0.05,21.950000000000003,0)" xlink:href="#w"/>
                <use transform="matrix(0.05,0,0,0.05,31.950000000000003,0)" xlink:href="#A"/>
            </g>
            <path d="M205 0l-28-72H64L36 0H1l101-248h38L239 0h-34zm-38-99l-47-123c-12 45-31 82-46 123h93" id="N"/>
            <g id="i">
                <use transform="matrix(0.05,0,0,0.05,0,0)" xlink:href="#N"/>
                <use transform="matrix(0.05,0,0,0.05,12,0)" xlink:href="#J"/>
                <use transform="matrix(0.05,0,0,0.05,21,0)" xlink:href="#F"/>
                <use transform="matrix(0.05,0,0,0.05,26,0)" xlink:href="#y"/>
                <use transform="matrix(0.05,0,0,0.05,29.950000000000003,0)" xlink:href="#E"/>
                <use transform="matrix(0.05,0,0,0.05,39.95,0)" xlink:href="#B"/>
                <use transform="matrix(0.05,0,0,0.05,49.95,0)" xlink:href="#C"/>
            </g>
            <g id="j">
                <use transform="matrix(0.05,0,0,0.05,0,0)" xlink:href="#N"/>
                <use transform="matrix(0.05,0,0,0.05,12,0)" xlink:href="#J"/>
                <use transform="matrix(0.05,0,0,0.05,21,0)" xlink:href="#F"/>
                <use transform="matrix(0.05,0,0,0.05,26,0)" xlink:href="#y"/>
                <use transform="matrix(0.05,0,0,0.05,29.950000000000003,0)" xlink:href="#E"/>
                <use transform="matrix(0.05,0,0,0.05,39.95,0)" xlink:href="#B"/>
                <use transform="matrix(0.05,0,0,0.05,49.95,0)" xlink:href="#C"/>
            </g>
            <path d="M115-194c55 1 70 41 70 98S169 2 115 4C84 4 66-9 55-30l1 105H24l-1-265h31l2 30c10-21 28-34 59-34zm-8 174c40 0 45-34 45-75s-6-73-45-74c-42 0-51 32-51 76 0 43 10 73 51 73" id="O"/>
            <path d="M85-194c31 0 48 13 60 33l-1-100h32l1 261h-30c-2-10 0-23-3-31C134-8 116 4 85 4 32 4 16-35 15-94c0-66 23-100 70-100zm9 24c-40 0-46 34-46 75 0 40 6 74 45 74 42 0 51-32 51-76 0-42-9-74-50-73" id="P"/>
            <path d="M84 4C-5 8 30-112 23-190h32v120c0 31 7 50 39 49 72-2 45-101 50-169h31l1 190h-30c-1-10 1-25-2-33-11 22-28 36-60 37" id="Q"/>
            <g id="k">
                <use transform="matrix(0.05,0,0,0.05,0,0)" xlink:href="#H"/>
                <use transform="matrix(0.05,0,0,0.05,12.950000000000001,0)" xlink:href="#w"/>
                <use transform="matrix(0.05,0,0,0.05,22.950000000000003,0)" xlink:href="#O"/>
                <use transform="matrix(0.05,0,0,0.05,32.95,0)" xlink:href="#A"/>
                <use transform="matrix(0.05,0,0,0.05,38.900000000000006,0)" xlink:href="#E"/>
                <use transform="matrix(0.05,0,0,0.05,48.900000000000006,0)" xlink:href="#P"/>
                <use transform="matrix(0.05,0,0,0.05,58.900000000000006,0)" xlink:href="#Q"/>
                <use transform="matrix(0.05,0,0,0.05,68.9,0)" xlink:href="#J"/>
                <use transform="matrix(0.05,0,0,0.05,77.9,0)" xlink:href="#F"/>
                <use transform="matrix(0.05,0,0,0.05,82.9,0)" xlink:href="#y"/>
                <use transform="matrix(0.05,0,0,0.05,86.85000000000001,0)" xlink:href="#E"/>
                <use transform="matrix(0.05,0,0,0.05,96.85000000000001,0)" xlink:href="#B"/>
            </g>
            <path d="M212-179c-10-28-35-45-73-45-59 0-87 40-87 99 0 60 29 101 89 101 43 0 62-24 78-52l27 14C228-24 195 4 139 4 59 4 22-46 18-125c-6-104 99-153 187-111 19 9 31 26 39 46" id="R"/>
            <g id="l">
                <use transform="matrix(0.05,0,0,0.05,0,0)" xlink:href="#R"/>
                <use transform="matrix(0.05,0,0,0.05,12.950000000000001,0)" xlink:href="#t"/>
                <use transform="matrix(0.05,0,0,0.05,16.900000000000002,0)" xlink:href="#y"/>
                <use transform="matrix(0.05,0,0,0.05,20.85,0)" xlink:href="#w"/>
                <use transform="matrix(0.05,0,0,0.05,30.85,0)" xlink:href="#B"/>
                <use transform="matrix(0.05,0,0,0.05,40.85,0)" xlink:href="#F"/>
            </g>
            <path d="M153-248C145-148 188 4 80 4 36 3 13-21 6-62l32-5c4 25 16 42 43 43 27 0 39-20 39-49v-147H72v-28h81" id="S"/>
            <path d="M108 0H70L1-190h34L89-25l56-165h34" id="T"/>
            <g id="m">
                <use transform="matrix(0.05,0,0,0.05,0,0)" xlink:href="#G"/>
                <use transform="matrix(0.05,0,0,0.05,5.95,0)" xlink:href="#S"/>
                <use transform="matrix(0.05,0,0,0.05,14.949999999999998,0)" xlink:href="#s"/>
                <use transform="matrix(0.05,0,0,0.05,24.95,0)" xlink:href="#T"/>
                <use transform="matrix(0.05,0,0,0.05,33.95,0)" xlink:href="#s"/>
                <use transform="matrix(0.05,0,0,0.05,43.95,0)" xlink:href="#q"/>
                <use transform="matrix(0.05,0,0,0.05,55.95,0)" xlink:href="#J"/>
                <use transform="matrix(0.05,0,0,0.05,64.95,0)" xlink:href="#A"/>
                <use transform="matrix(0.05,0,0,0.05,70.9,0)" xlink:href="#y"/>
                <use transform="matrix(0.05,0,0,0.05,74.85000000000001,0)" xlink:href="#O"/>
                <use transform="matrix(0.05,0,0,0.05,84.85000000000001,0)" xlink:href="#F"/>
                <use transform="matrix(0.05,0,0,0.05,89.85000000000001,0)" xlink:href="#L"/>
            </g>
            <g id="n">
                <use transform="matrix(0.05,0,0,0.05,0,0)" xlink:href="#q"/>
                <use transform="matrix(0.05,0,0,0.05,12,0)" xlink:href="#w"/>
                <use transform="matrix(0.05,0,0,0.05,22,0)" xlink:href="#A"/>
                <use transform="matrix(0.05,0,0,0.05,27.950000000000003,0)" xlink:href="#T"/>
                <use transform="matrix(0.05,0,0,0.05,36.95,0)" xlink:href="#w"/>
                <use transform="matrix(0.05,0,0,0.05,46.95,0)" xlink:href="#A"/>
            </g>
            <path d="M190 0L58-211 59 0H30v-248h39L202-35l-2-213h31V0h-41" id="U"/>
            <path d="M30 0v-248h187v28H63v79h144v27H63v87h162V0H30" id="V"/>
            <g id="o">
                <use transform="matrix(0.05,0,0,0.05,0,0)" xlink:href="#G"/>
                <use transform="matrix(0.05,0,0,0.05,5.95,0)" xlink:href="#K"/>
                <use transform="matrix(0.05,0,0,0.05,10.95,0)" xlink:href="#U"/>
                <use transform="matrix(0.05,0,0,0.05,23.9,0)" xlink:href="#V"/>
                <use transform="matrix(0.05,0,0,0.05,35.9,0)" xlink:href="#z"/>
                <use transform="matrix(0.05,0,0,0.05,46.85,0)" xlink:href="#L"/>
            </g>
            <path d="M240 0l2-218c-23 76-54 145-80 218h-23L58-218 59 0H30v-248h44l77 211c21-75 51-140 76-211h43V0h-30" id="W"/>
            <path d="M143 0L79-87 56-68V0H24v-261h32v163l83-92h37l-77 82L181 0h-38" id="X"/>
            <g id="p">
                <use transform="matrix(0.05,0,0,0.05,0,0)" xlink:href="#W"/>
                <use transform="matrix(0.05,0,0,0.05,14.950000000000001,0)" xlink:href="#s"/>
                <use transform="matrix(0.05,0,0,0.05,24.950000000000003,0)" xlink:href="#C"/>
                <use transform="matrix(0.05,0,0,0.05,33.95,0)" xlink:href="#X"/>
                <use transform="matrix(0.05,0,0,0.05,42.95,0)" xlink:href="#C"/>
            </g>
        </defs>
    </g>
</svg>