<svg xmlns="http://www.w3.org/2000/svg" xmlns:xlink="http://www.w3.org/1999/xlink" xmlns:lucid="lucid" width="524" height="569">
    <g transform="translate(-257 -162)" lucid:page-tab-id="0_0">
        <path d="M280 190c0-2.76 2.24-5 5-5h475c2.76 0 5 2.24 5 5v380c0 2.76-2.24 5-5 5H285c-2.76 0-5-2.24-5-5z" stroke="#000" stroke-width="2" fill="#fff"/>
        <path d="M280 223h485" stroke="#000" stroke-width="2" fill="none"/>
        <use xlink:href="#a" transform="matrix(1,0,0,1,288,185) translate(195.55 22.6)"/>
        <use xlink:href="#b" transform="matrix(1,0,0,1,292,230.6) translate(0 20.9)"/>
        <use xlink:href="#c" transform="matrix(1,0,0,1,292,230.6) translate(151.15000000000003 20.9)"/>
        <use xlink:href="#d" transform="matrix(1,0,0,1,292,230.6) translate(179.15000000000003 20.9)"/>
        <use xlink:href="#e" transform="matrix(1,0,0,1,292,230.6) translate(203.15000000000003 20.9)"/>
        <use xlink:href="#f" transform="matrix(1,0,0,1,292,230.6) translate(232.15000000000003 20.9)"/>
        <use xlink:href="#g" transform="matrix(1,0,0,1,292,230.6) translate(0 42.5)"/>
        <use xlink:href="#c" transform="matrix(1,0,0,1,292,230.6) translate(178.1 42.5)"/>
        <use xlink:href="#h" transform="matrix(1,0,0,1,292,230.6) translate(206.1 42.5)"/>
        <use xlink:href="#i" transform="matrix(1,0,0,1,292,230.6) translate(232.75 42.5)"/>
        <use xlink:href="#j" transform="matrix(1,0,0,1,292,230.6) translate(261.75 42.5)"/>
        <use xlink:href="#k" transform="matrix(1,0,0,1,292,230.6) translate(292.7 42.5)"/>
        <use xlink:href="#l" transform="matrix(1,0,0,1,292,230.6) translate(326.7 42.5)"/>
        <use xlink:href="#j" transform="matrix(1,0,0,1,292,230.6) translate(354.34999999999997 42.5)"/>
        <use xlink:href="#m" transform="matrix(1,0,0,1,292,230.6) translate(385.29999999999995 42.5)"/>
        <use xlink:href="#n" transform="matrix(1,0,0,1,292,230.6) translate(0 64.10000000000001)"/>
        <use xlink:href="#o" transform="matrix(1,0,0,1,292,230.6) translate(0 85.70000000000002)"/>
        <use xlink:href="#p" transform="matrix(1,0,0,1,292,230.6) translate(0 107.30000000000001)"/>
        <use xlink:href="#n" transform="matrix(1,0,0,1,292,230.6) translate(0 128.9)"/>
        <use xlink:href="#q" transform="matrix(1,0,0,1,292,230.6) translate(0 150.5)"/>
        <use xlink:href="#r" transform="matrix(1,0,0,1,292,230.6) translate(98.35000000000001 150.5)"/>
        <use xlink:href="#s" transform="matrix(1,0,0,1,292,230.6) translate(0 172.1)"/>
        <use xlink:href="#r" transform="matrix(1,0,0,1,292,230.6) translate(88.35000000000001 172.1)"/>
        <use xlink:href="#t" transform="matrix(1,0,0,1,292,230.6) translate(0 193.7)"/>
        <use xlink:href="#u" transform="matrix(1,0,0,1,292,230.6) translate(95.2 193.7)"/>
        <use xlink:href="#v" transform="matrix(1,0,0,1,292,230.6) translate(112.85 193.7)"/>
        <use xlink:href="#w" transform="matrix(1,0,0,1,292,230.6) translate(134.8 193.7)"/>
        <use xlink:href="#x" transform="matrix(1,0,0,1,292,230.6) translate(0 215.29999999999998)"/>
        <use xlink:href="#u" transform="matrix(1,0,0,1,292,230.6) translate(62.400000000000006 215.29999999999998)"/>
        <use xlink:href="#y" transform="matrix(1,0,0,1,292,230.6) translate(80.05000000000001 215.29999999999998)"/>
        <use xlink:href="#z" transform="matrix(1,0,0,1,292,230.6) translate(95.00000000000001 215.29999999999998)"/>
        <use xlink:href="#A" transform="matrix(1,0,0,1,292,230.6) translate(171.95000000000002 215.29999999999998)"/>
        <use xlink:href="#B" transform="matrix(1,0,0,1,292,230.6) translate(243.95000000000002 215.29999999999998)"/>
        <use xlink:href="#n" transform="matrix(1,0,0,1,292,230.6) translate(0 236.89999999999998)"/>
        <use xlink:href="#C" transform="matrix(1,0,0,1,292,230.6) translate(0 258.49999999999994)"/>
        <use xlink:href="#D" transform="matrix(1,0,0,1,292,230.6) translate(0 280.09999999999997)"/>
        <use xlink:href="#E" transform="matrix(1,0,0,1,292,230.6) translate(0 301.7)"/>
        <use xlink:href="#F" transform="matrix(1,0,0,1,292,230.6) translate(0 323.3)"/>
        <path d="M285 655c0-2.76 2.24-5 5-5h160c2.76 0 5 2.24 5 5v50c0 2.76-2.24 5-5 5H290c-2.76 0-5-2.24-5-5z" stroke="#000" stroke-width="2" fill="#fff"/>
        <g>
            <use xlink:href="#G" transform="matrix(1,0,0,1,293,658) translate(27.049999999999997 25.6)"/>
        </g>
        <path d="M370 649v-31.5c0-2.76 2.24-5 5-5h34.17c2.76 0 5-2.24 5-5v-7.54" stroke="#000" stroke-width="2" fill="none"/>
        <path d="M371 650h-2v-1h2z"/>
        <path d="M426.9 599.48h-25.46l12.73-21.52z" fill="#fff"/>
        <path d="M428.65 600.48H399.7L414.16 576zm-25.45-2h21.94l-10.97-18.55z"/>
        <path d="M580 655c0-2.76 2.24-5 5-5h160c2.76 0 5 2.24 5 5v50c0 2.76-2.24 5-5 5H585c-2.76 0-5-2.24-5-5z" stroke="#000" stroke-width="2" fill="#fff"/>
        <g>
            <use xlink:href="#H" transform="matrix(1,0,0,1,588,658) translate(20.099999999999994 25.6)"/>
        </g>
        <path d="M665 649v-31.5c0-2.76-2.24-5-5-5h-37.7c-2.77 0-5-2.24-5-5v-7.54" stroke="#000" stroke-width="2" fill="none"/>
        <path d="M666 650h-2v-1h2z"/>
        <path d="M630.02 599.48h-25.46l12.73-21.52z" fill="#fff"/>
        <path d="M631.77 600.48H602.8L617.3 576zm-25.45-2h21.94l-10.97-18.55z"/>
        <defs>
            <path d="M67-125c0 54 23 88 75 88 28 0 53-7 68-21v-34h-60v-39h108v91C232-14 192 4 140 4 58 4 20-42 15-125 8-236 126-280 215-234c19 10 29 26 37 47l-47 15c-11-23-29-39-63-39-53 1-75 33-75 86" id="I"/>
            <path d="M135-150c-39-12-60 13-60 57V0H25l-1-190h47c2 13-1 29 3 40 6-28 27-53 61-41v41" id="J"/>
            <path d="M133-34C117-15 103 5 69 4 32 3 11-16 11-54c-1-60 55-63 116-61 1-26-3-47-28-47-18 1-26 9-28 27l-52-2c7-38 36-58 82-57s74 22 75 68l1 82c-1 14 12 18 25 15v27c-30 8-71 5-69-32zm-48 3c29 0 43-24 42-57-32 0-66-3-65 30 0 17 8 27 23 27" id="K"/>
            <path d="M135-194c53 0 70 44 70 98 0 56-19 98-73 100-31 1-45-17-59-34 3 33 2 69 2 105H25l-1-265h48c2 10 0 23 3 31 11-24 29-35 60-35zM114-30c33 0 39-31 40-66 0-38-9-64-40-64-56 0-55 130 0 130" id="L"/>
            <path d="M114-157C55-157 80-60 75 0H25v-261h50l-1 109c12-26 28-41 61-42 86-1 58 113 63 194h-50c-7-57 23-157-34-157" id="M"/>
            <path d="M25-224v-37h50v37H25zM25 0v-190h50V0H25" id="N"/>
            <path d="M190-63c-7 42-38 67-86 67-59 0-84-38-90-98-12-110 154-137 174-36l-49 2c-2-19-15-32-35-32-30 0-35 28-38 64-6 74 65 87 74 30" id="O"/>
            <path d="M137-138c1-29-70-34-71-4 15 46 118 7 119 86 1 83-164 76-172 9l43-7c4 19 20 25 44 25 33 8 57-30 24-41C81-84 22-81 20-136c-2-80 154-74 161-7" id="P"/>
            <g id="a">
                <use transform="matrix(0.05,0,0,0.05,0,0)" xlink:href="#I"/>
                <use transform="matrix(0.05,0,0,0.05,14,0)" xlink:href="#J"/>
                <use transform="matrix(0.05,0,0,0.05,21,0)" xlink:href="#K"/>
                <use transform="matrix(0.05,0,0,0.05,31,0)" xlink:href="#L"/>
                <use transform="matrix(0.05,0,0,0.05,41.95,0)" xlink:href="#M"/>
                <use transform="matrix(0.05,0,0,0.05,52.900000000000006,0)" xlink:href="#N"/>
                <use transform="matrix(0.05,0,0,0.05,57.900000000000006,0)" xlink:href="#O"/>
                <use transform="matrix(0.05,0,0,0.05,67.9,0)" xlink:href="#P"/>
            </g>
            <path d="M118-107v75H92v-75H18v-26h74v-75h26v75h74v26h-74" id="Q"/>
            <path d="M30-248c118-7 216 8 213 122C240-48 200 0 122 0H30v-248zM63-27c89 8 146-16 146-99s-60-101-146-95v194" id="R"/>
            <path d="M114-163C36-179 61-72 57 0H25l-1-190h30c1 12-1 29 2 39 6-27 23-49 58-41v29" id="S"/>
            <path d="M141-36C126-15 110 5 73 4 37 3 15-17 15-53c-1-64 63-63 125-63 3-35-9-54-41-54-24 1-41 7-42 31l-33-3c5-37 33-52 76-52 45 0 72 20 72 64v82c-1 20 7 32 28 27v20c-31 9-61-2-59-35zM48-53c0 20 12 33 32 33 41-3 63-29 60-74-43 2-92-5-92 41" id="T"/>
            <path d="M206 0h-36l-40-164L89 0H53L-1-190h32L70-26l43-164h34l41 164 42-164h31" id="U"/>
            <path d="M135-143c-3-34-86-38-87 0 15 53 115 12 119 90S17 21 10-45l28-5c4 36 97 45 98 0-10-56-113-15-118-90-4-57 82-63 122-42 12 7 21 19 24 35" id="V"/>
            <path d="M59-47c-2 24 18 29 38 22v24C64 9 27 4 27-40v-127H5v-23h24l9-43h21v43h35v23H59v120" id="W"/>
            <path d="M87 75C49 33 22-17 22-94c0-76 28-126 65-167h31c-38 41-64 92-64 168S80 34 118 75H87" id="X"/>
            <path d="M160-131c35 5 61 23 61 61C221 17 115-2 30 0v-248c76 3 177-17 177 60 0 33-19 50-47 57zm-97-11c50-1 110 9 110-42 0-47-63-36-110-37v79zm0 115c55-2 124 14 124-45 0-56-70-42-124-44v89" id="Y"/>
            <path d="M24-231v-30h32v30H24zM24 0v-190h32V0H24" id="Z"/>
            <path d="M210-169c-67 3-38 105-44 169h-31v-121c0-29-5-50-35-48C34-165 62-65 56 0H25l-1-190h30c1 10-1 24 2 32 10-44 99-50 107 0 11-21 27-35 58-36 85-2 47 119 55 194h-31v-121c0-29-5-49-35-48" id="aa"/>
            <path d="M115-194c55 1 70 41 70 98S169 2 115 4C84 4 66-9 55-30l1 105H24l-1-265h31l2 30c10-21 28-34 59-34zm-8 174c40 0 45-34 45-75s-6-73-45-74c-42 0-51 32-51 76 0 43 10 73 51 73" id="ab"/>
            <path d="M68-38c1 34 0 65-14 84H32c9-13 17-26 17-46H33v-38h35" id="ac"/>
            <g id="b">
                <use transform="matrix(0.05,0,0,0.05,0,0)" xlink:href="#Q"/>
                <use transform="matrix(0.05,0,0,0.05,10.5,0)" xlink:href="#R"/>
                <use transform="matrix(0.05,0,0,0.05,23.450000000000003,0)" xlink:href="#S"/>
                <use transform="matrix(0.05,0,0,0.05,29.400000000000002,0)" xlink:href="#T"/>
                <use transform="matrix(0.05,0,0,0.05,39.400000000000006,0)" xlink:href="#U"/>
                <use transform="matrix(0.05,0,0,0.05,52.35,0)" xlink:href="#R"/>
                <use transform="matrix(0.05,0,0,0.05,65.30000000000001,0)" xlink:href="#V"/>
                <use transform="matrix(0.05,0,0,0.05,74.30000000000001,0)" xlink:href="#W"/>
                <use transform="matrix(0.05,0,0,0.05,79.30000000000001,0)" xlink:href="#X"/>
                <use transform="matrix(0.05,0,0,0.05,85.25000000000001,0)" xlink:href="#Y"/>
                <use transform="matrix(0.05,0,0,0.05,97.25000000000001,0)" xlink:href="#Z"/>
                <use transform="matrix(0.05,0,0,0.05,101.20000000000002,0)" xlink:href="#W"/>
                <use transform="matrix(0.05,0,0,0.05,106.2,0)" xlink:href="#aa"/>
                <use transform="matrix(0.05,0,0,0.05,121.15000000000003,0)" xlink:href="#T"/>
                <use transform="matrix(0.05,0,0,0.05,131.15000000000003,0)" xlink:href="#ab"/>
                <use transform="matrix(0.05,0,0,0.05,141.15000000000003,0)" xlink:href="#ac"/>
            </g>
            <path d="M141 0L90-78 38 0H4l68-98-65-92h35l48 74 47-74h35l-64 92 68 98h-35" id="ad"/>
            <g id="c">
                <use transform="matrix(0.05,0,0,0.05,0,0)" xlink:href="#V"/>
                <use transform="matrix(0.05,0,0,0.05,9,0)" xlink:href="#ad"/>
                <use transform="matrix(0.05,0,0,0.05,18,0)" xlink:href="#ac"/>
            </g>
            <g id="d">
                <use transform="matrix(0.05,0,0,0.05,0,0)" xlink:href="#V"/>
                <use transform="matrix(0.05,0,0,0.05,9,0)" xlink:href="#W"/>
                <use transform="matrix(0.05,0,0,0.05,14,0)" xlink:href="#ac"/>
            </g>
            <path d="M85-194c31 0 48 13 60 33l-1-100h32l1 261h-30c-2-10 0-23-3-31C134-8 116 4 85 4 32 4 16-35 15-94c0-66 23-100 70-100zm9 24c-40 0-46 34-46 75 0 40 6 74 45 74 42 0 51-32 51-76 0-42-9-74-50-73" id="ae"/>
            <g id="e">
                <use transform="matrix(0.05,0,0,0.05,0,0)" xlink:href="#ae"/>
                <use transform="matrix(0.05,0,0,0.05,10,0)" xlink:href="#ad"/>
                <use transform="matrix(0.05,0,0,0.05,19,0)" xlink:href="#ac"/>
            </g>
            <path d="M179-190L93 31C79 59 56 82 12 73V49c39 6 53-20 64-50L1-190h34L92-34l54-156h33" id="af"/>
            <path d="M33-261c38 41 65 92 65 168S71 34 33 75H2C39 34 66-17 66-93S39-220 2-261h31" id="ag"/>
            <path d="M68-36c1 33-1 63-14 82H32c9-13 17-26 17-46H33v-36h35zM33-154v-36h35v36H33" id="ah"/>
            <g id="f">
                <use transform="matrix(0.05,0,0,0.05,0,0)" xlink:href="#ae"/>
                <use transform="matrix(0.05,0,0,0.05,10,0)" xlink:href="#af"/>
                <use transform="matrix(0.05,0,0,0.05,19,0)" xlink:href="#ag"/>
                <use transform="matrix(0.05,0,0,0.05,24.95,0)" xlink:href="#ah"/>
            </g>
            <path d="M185-189c-5-48-123-54-124 2 14 75 158 14 163 119 3 78-121 87-175 55-17-10-28-26-33-46l33-7c5 56 141 63 141-1 0-78-155-14-162-118-5-82 145-84 179-34 5 7 8 16 11 25" id="ai"/>
            <path d="M96-169c-40 0-48 33-48 73s9 75 48 75c24 0 41-14 43-38l32 2c-6 37-31 61-74 61-59 0-76-41-82-99-10-93 101-131 147-64 4 7 5 14 7 22l-32 3c-4-21-16-35-41-35" id="aj"/>
            <g id="g">
                <use transform="matrix(0.05,0,0,0.05,0,0)" xlink:href="#Q"/>
                <use transform="matrix(0.05,0,0,0.05,10.5,0)" xlink:href="#R"/>
                <use transform="matrix(0.05,0,0,0.05,23.450000000000003,0)" xlink:href="#S"/>
                <use transform="matrix(0.05,0,0,0.05,29.400000000000002,0)" xlink:href="#T"/>
                <use transform="matrix(0.05,0,0,0.05,39.400000000000006,0)" xlink:href="#U"/>
                <use transform="matrix(0.05,0,0,0.05,52.35,0)" xlink:href="#ai"/>
                <use transform="matrix(0.05,0,0,0.05,64.35000000000001,0)" xlink:href="#S"/>
                <use transform="matrix(0.05,0,0,0.05,70.30000000000001,0)" xlink:href="#aj"/>
                <use transform="matrix(0.05,0,0,0.05,79.30000000000001,0)" xlink:href="#R"/>
                <use transform="matrix(0.05,0,0,0.05,92.25000000000001,0)" xlink:href="#V"/>
                <use transform="matrix(0.05,0,0,0.05,101.25000000000001,0)" xlink:href="#W"/>
                <use transform="matrix(0.05,0,0,0.05,106.25,0)" xlink:href="#X"/>
                <use transform="matrix(0.05,0,0,0.05,112.2,0)" xlink:href="#Y"/>
                <use transform="matrix(0.05,0,0,0.05,124.2,0)" xlink:href="#Z"/>
                <use transform="matrix(0.05,0,0,0.05,128.15,0)" xlink:href="#W"/>
                <use transform="matrix(0.05,0,0,0.05,133.15,0)" xlink:href="#aa"/>
                <use transform="matrix(0.05,0,0,0.05,148.1,0)" xlink:href="#T"/>
                <use transform="matrix(0.05,0,0,0.05,158.1,0)" xlink:href="#ab"/>
                <use transform="matrix(0.05,0,0,0.05,168.1,0)" xlink:href="#ac"/>
            </g>
            <g id="h">
                <use transform="matrix(0.05,0,0,0.05,0,0)" xlink:href="#V"/>
                <use transform="matrix(0.05,0,0,0.05,9,0)" xlink:href="#af"/>
                <use transform="matrix(0.05,0,0,0.05,16.65,0)" xlink:href="#ac"/>
            </g>
            <path d="M106-169C34-169 62-67 57 0H25v-261h32l-1 103c12-21 28-36 61-36 89 0 53 116 60 194h-32v-121c2-32-8-49-39-48" id="ak"/>
            <g id="i">
                <use transform="matrix(0.05,0,0,0.05,0,0)" xlink:href="#V"/>
                <use transform="matrix(0.05,0,0,0.05,9,0)" xlink:href="#ak"/>
                <use transform="matrix(0.05,0,0,0.05,19,0)" xlink:href="#ac"/>
            </g>
            <g id="j">
                <use transform="matrix(0.05,0,0,0.05,0,0)" xlink:href="#V"/>
                <use transform="matrix(0.05,0,0,0.05,9,0)" xlink:href="#U"/>
                <use transform="matrix(0.05,0,0,0.05,20.950000000000003,0)" xlink:href="#ac"/>
            </g>
            <g id="k">
                <use transform="matrix(0.05,0,0,0.05,0,0)" xlink:href="#ae"/>
                <use transform="matrix(0.05,0,0,0.05,10,0)" xlink:href="#ad"/>
                <use transform="matrix(0.05,0,0,0.05,19,0)" xlink:href="#ac"/>
            </g>
            <g id="l">
                <use transform="matrix(0.05,0,0,0.05,0,0)" xlink:href="#ae"/>
                <use transform="matrix(0.05,0,0,0.05,10,0)" xlink:href="#af"/>
                <use transform="matrix(0.05,0,0,0.05,17.65,0)" xlink:href="#ac"/>
            </g>
            <g id="m">
                <use transform="matrix(0.05,0,0,0.05,0,0)" xlink:href="#V"/>
                <use transform="matrix(0.05,0,0,0.05,9,0)" xlink:href="#ak"/>
                <use transform="matrix(0.05,0,0,0.05,19,0)" xlink:href="#ag"/>
                <use transform="matrix(0.05,0,0,0.05,24.95,0)" xlink:href="#ah"/>
            </g>
            <path d="M33 0v-38h34V0H33" id="al"/>
            <g id="n">
                <use transform="matrix(0.05,0,0,0.05,0,0)" xlink:href="#al"/>
                <use transform="matrix(0.05,0,0,0.05,5,0)" xlink:href="#al"/>
                <use transform="matrix(0.05,0,0,0.05,10,0)" xlink:href="#al"/>
            </g>
            <path d="M100-194c63 0 86 42 84 106H49c0 40 14 67 53 68 26 1 43-12 49-29l28 8c-11 28-37 45-77 45C44 4 14-33 15-96c1-61 26-98 85-98zm52 81c6-60-76-77-97-28-3 7-6 17-6 28h103" id="am"/>
            <path d="M30 0v-248h33v221h125V0H30" id="an"/>
            <path d="M117-194c89-4 53 116 60 194h-32v-121c0-31-8-49-39-48C34-167 62-67 57 0H25l-1-190h30c1 10-1 24 2 32 11-22 29-35 61-36" id="ao"/>
            <path d="M212-179c-10-28-35-45-73-45-59 0-87 40-87 99 0 60 29 101 89 101 43 0 62-24 78-52l27 14C228-24 195 4 139 4 59 4 22-46 18-125c-6-104 99-153 187-111 19 9 31 26 39 46" id="ap"/>
            <path d="M100-194c62-1 85 37 85 99 1 63-27 99-86 99S16-35 15-95c0-66 28-99 85-99zM99-20c44 1 53-31 53-75 0-43-8-75-51-75s-53 32-53 75 10 74 51 75" id="aq"/>
            <path d="M24 0v-261h32V0H24" id="ar"/>
            <g id="o">
                <use transform="matrix(0.05,0,0,0.05,0,0)" xlink:href="#Q"/>
                <use transform="matrix(0.05,0,0,0.05,10.5,0)" xlink:href="#ai"/>
                <use transform="matrix(0.05,0,0,0.05,22.5,0)" xlink:href="#am"/>
                <use transform="matrix(0.05,0,0,0.05,32.5,0)" xlink:href="#W"/>
                <use transform="matrix(0.05,0,0,0.05,37.5,0)" xlink:href="#an"/>
                <use transform="matrix(0.05,0,0,0.05,47.5,0)" xlink:href="#Z"/>
                <use transform="matrix(0.05,0,0,0.05,51.45,0)" xlink:href="#ao"/>
                <use transform="matrix(0.05,0,0,0.05,61.45,0)" xlink:href="#am"/>
                <use transform="matrix(0.05,0,0,0.05,71.45,0)" xlink:href="#ap"/>
                <use transform="matrix(0.05,0,0,0.05,84.4,0)" xlink:href="#aq"/>
                <use transform="matrix(0.05,0,0,0.05,94.4,0)" xlink:href="#ar"/>
                <use transform="matrix(0.05,0,0,0.05,98.35000000000001,0)" xlink:href="#aq"/>
                <use transform="matrix(0.05,0,0,0.05,108.35000000000001,0)" xlink:href="#S"/>
                <use transform="matrix(0.05,0,0,0.05,114.30000000000001,0)" xlink:href="#X"/>
                <use transform="matrix(0.05,0,0,0.05,120.25,0)" xlink:href="#ap"/>
                <use transform="matrix(0.05,0,0,0.05,133.20000000000002,0)" xlink:href="#aq"/>
                <use transform="matrix(0.05,0,0,0.05,143.20000000000002,0)" xlink:href="#ar"/>
                <use transform="matrix(0.05,0,0,0.05,147.15,0)" xlink:href="#aq"/>
                <use transform="matrix(0.05,0,0,0.05,157.15,0)" xlink:href="#S"/>
                <use transform="matrix(0.05,0,0,0.05,163.1,0)" xlink:href="#ag"/>
            </g>
            <path d="M266 0h-40l-56-210L115 0H75L2-248h35L96-30l15-64 43-154h32l59 218 59-218h35" id="as"/>
            <g id="p">
                <use transform="matrix(0.05,0,0,0.05,0,0)" xlink:href="#Q"/>
                <use transform="matrix(0.05,0,0,0.05,10.5,0)" xlink:href="#ai"/>
                <use transform="matrix(0.05,0,0,0.05,22.5,0)" xlink:href="#am"/>
                <use transform="matrix(0.05,0,0,0.05,32.5,0)" xlink:href="#W"/>
                <use transform="matrix(0.05,0,0,0.05,37.5,0)" xlink:href="#an"/>
                <use transform="matrix(0.05,0,0,0.05,47.5,0)" xlink:href="#Z"/>
                <use transform="matrix(0.05,0,0,0.05,51.45,0)" xlink:href="#ao"/>
                <use transform="matrix(0.05,0,0,0.05,61.45,0)" xlink:href="#am"/>
                <use transform="matrix(0.05,0,0,0.05,71.45,0)" xlink:href="#as"/>
                <use transform="matrix(0.05,0,0,0.05,88.4,0)" xlink:href="#Z"/>
                <use transform="matrix(0.05,0,0,0.05,92.35000000000001,0)" xlink:href="#ae"/>
                <use transform="matrix(0.05,0,0,0.05,102.35000000000001,0)" xlink:href="#W"/>
                <use transform="matrix(0.05,0,0,0.05,107.35000000000001,0)" xlink:href="#ak"/>
                <use transform="matrix(0.05,0,0,0.05,117.35000000000001,0)" xlink:href="#X"/>
                <use transform="matrix(0.05,0,0,0.05,123.30000000000001,0)" xlink:href="#U"/>
                <use transform="matrix(0.05,0,0,0.05,136.25,0)" xlink:href="#Z"/>
                <use transform="matrix(0.05,0,0,0.05,140.2,0)" xlink:href="#ae"/>
                <use transform="matrix(0.05,0,0,0.05,150.2,0)" xlink:href="#W"/>
                <use transform="matrix(0.05,0,0,0.05,155.2,0)" xlink:href="#ak"/>
                <use transform="matrix(0.05,0,0,0.05,165.2,0)" xlink:href="#ag"/>
            </g>
            <path d="M240 0l2-218c-23 76-54 145-80 218h-23L58-218 59 0H30v-248h44l77 211c21-75 51-140 76-211h43V0h-30" id="at"/>
            <path d="M108 0H70L1-190h34L89-25l56-165h34" id="au"/>
            <path d="M127-220V0H93v-220H8v-28h204v28h-85" id="av"/>
            <g id="q">
                <use transform="matrix(0.05,0,0,0.05,0,0)" xlink:href="#Q"/>
                <use transform="matrix(0.05,0,0,0.05,10.5,0)" xlink:href="#at"/>
                <use transform="matrix(0.05,0,0,0.05,25.450000000000003,0)" xlink:href="#aq"/>
                <use transform="matrix(0.05,0,0,0.05,35.45,0)" xlink:href="#au"/>
                <use transform="matrix(0.05,0,0,0.05,44.45,0)" xlink:href="#am"/>
                <use transform="matrix(0.05,0,0,0.05,54.45,0)" xlink:href="#av"/>
                <use transform="matrix(0.05,0,0,0.05,63.400000000000006,0)" xlink:href="#aq"/>
                <use transform="matrix(0.05,0,0,0.05,73.4,0)" xlink:href="#X"/>
                <use transform="matrix(0.05,0,0,0.05,79.35000000000001,0)" xlink:href="#ad"/>
                <use transform="matrix(0.05,0,0,0.05,88.35000000000001,0)" xlink:href="#ac"/>
            </g>
            <g id="r">
                <use transform="matrix(0.05,0,0,0.05,0,0)" xlink:href="#af"/>
                <use transform="matrix(0.05,0,0,0.05,9,0)" xlink:href="#ag"/>
            </g>
            <g id="s">
                <use transform="matrix(0.05,0,0,0.05,0,0)" xlink:href="#Q"/>
                <use transform="matrix(0.05,0,0,0.05,10.5,0)" xlink:href="#an"/>
                <use transform="matrix(0.05,0,0,0.05,20.5,0)" xlink:href="#Z"/>
                <use transform="matrix(0.05,0,0,0.05,24.45,0)" xlink:href="#ao"/>
                <use transform="matrix(0.05,0,0,0.05,34.45,0)" xlink:href="#am"/>
                <use transform="matrix(0.05,0,0,0.05,44.45,0)" xlink:href="#av"/>
                <use transform="matrix(0.05,0,0,0.05,53.400000000000006,0)" xlink:href="#aq"/>
                <use transform="matrix(0.05,0,0,0.05,63.400000000000006,0)" xlink:href="#X"/>
                <use transform="matrix(0.05,0,0,0.05,69.35000000000001,0)" xlink:href="#ad"/>
                <use transform="matrix(0.05,0,0,0.05,78.35000000000001,0)" xlink:href="#ac"/>
            </g>
            <path d="M63-220v92h138v28H63V0H30v-248h175v28H63" id="aw"/>
            <path d="M233-177c-1 41-23 64-60 70L243 0h-38l-65-103H63V0H30v-248c88 3 205-21 203 71zM63-129c60-2 137 13 137-47 0-61-80-42-137-45v92" id="ax"/>
            <g id="t">
                <use transform="matrix(0.05,0,0,0.05,0,0)" xlink:href="#Q"/>
                <use transform="matrix(0.05,0,0,0.05,10.5,0)" xlink:href="#aw"/>
                <use transform="matrix(0.05,0,0,0.05,21.450000000000003,0)" xlink:href="#Z"/>
                <use transform="matrix(0.05,0,0,0.05,25.400000000000002,0)" xlink:href="#ar"/>
                <use transform="matrix(0.05,0,0,0.05,29.35,0)" xlink:href="#ar"/>
                <use transform="matrix(0.05,0,0,0.05,33.300000000000004,0)" xlink:href="#ax"/>
                <use transform="matrix(0.05,0,0,0.05,46.25000000000001,0)" xlink:href="#am"/>
                <use transform="matrix(0.05,0,0,0.05,56.25,0)" xlink:href="#aj"/>
                <use transform="matrix(0.05,0,0,0.05,65.25,0)" xlink:href="#W"/>
                <use transform="matrix(0.05,0,0,0.05,70.25,0)" xlink:href="#X"/>
                <use transform="matrix(0.05,0,0,0.05,76.2,0)" xlink:href="#ad"/>
                <use transform="matrix(0.05,0,0,0.05,85.2,0)" xlink:href="#ac"/>
            </g>
            <g id="u">
                <use transform="matrix(0.05,0,0,0.05,0,0)" xlink:href="#af"/>
                <use transform="matrix(0.05,0,0,0.05,7.65,0)" xlink:href="#ac"/>
            </g>
            <g id="v">
                <use transform="matrix(0.05,0,0,0.05,0,0)" xlink:href="#U"/>
                <use transform="matrix(0.05,0,0,0.05,11.950000000000001,0)" xlink:href="#ac"/>
            </g>
            <g id="w">
                <use transform="matrix(0.05,0,0,0.05,0,0)" xlink:href="#ak"/>
                <use transform="matrix(0.05,0,0,0.05,10,0)" xlink:href="#ag"/>
            </g>
            <path d="M205 0l-28-72H64L36 0H1l101-248h38L239 0h-34zm-38-99l-47-123c-12 45-31 82-46 123h93" id="ay"/>
            <g id="x">
                <use transform="matrix(0.05,0,0,0.05,0,0)" xlink:href="#Q"/>
                <use transform="matrix(0.05,0,0,0.05,10.5,0)" xlink:href="#ay"/>
                <use transform="matrix(0.05,0,0,0.05,22.5,0)" xlink:href="#S"/>
                <use transform="matrix(0.05,0,0,0.05,28.450000000000003,0)" xlink:href="#aj"/>
                <use transform="matrix(0.05,0,0,0.05,37.45,0)" xlink:href="#X"/>
                <use transform="matrix(0.05,0,0,0.05,43.400000000000006,0)" xlink:href="#ad"/>
                <use transform="matrix(0.05,0,0,0.05,52.400000000000006,0)" xlink:href="#ac"/>
            </g>
            <g id="y">
                <use transform="matrix(0.05,0,0,0.05,0,0)" xlink:href="#S"/>
                <use transform="matrix(0.05,0,0,0.05,4.95,0)" xlink:href="#ac"/>
            </g>
            <path d="M177-190C167-65 218 103 67 71c-23-6-38-20-44-43l32-5c15 47 100 32 89-28v-30C133-14 115 1 83 1 29 1 15-40 15-95c0-56 16-97 71-98 29-1 48 16 59 35 1-10 0-23 2-32h30zM94-22c36 0 50-32 50-73 0-42-14-75-50-75-39 0-46 34-46 75s6 73 46 73" id="az"/>
            <g id="z">
                <use transform="matrix(0.05,0,0,0.05,0,0)" xlink:href="#V"/>
                <use transform="matrix(0.05,0,0,0.05,9,0)" xlink:href="#W"/>
                <use transform="matrix(0.05,0,0,0.05,14,0)" xlink:href="#T"/>
                <use transform="matrix(0.05,0,0,0.05,24,0)" xlink:href="#S"/>
                <use transform="matrix(0.05,0,0,0.05,29.950000000000003,0)" xlink:href="#W"/>
                <use transform="matrix(0.05,0,0,0.05,34.95,0)" xlink:href="#ay"/>
                <use transform="matrix(0.05,0,0,0.05,46.95,0)" xlink:href="#ao"/>
                <use transform="matrix(0.05,0,0,0.05,56.95,0)" xlink:href="#az"/>
                <use transform="matrix(0.05,0,0,0.05,66.95,0)" xlink:href="#ac"/>
            </g>
            <g id="A">
                <use transform="matrix(0.05,0,0,0.05,0,0)" xlink:href="#am"/>
                <use transform="matrix(0.05,0,0,0.05,10,0)" xlink:href="#ao"/>
                <use transform="matrix(0.05,0,0,0.05,20,0)" xlink:href="#ae"/>
                <use transform="matrix(0.05,0,0,0.05,30,0)" xlink:href="#ay"/>
                <use transform="matrix(0.05,0,0,0.05,42,0)" xlink:href="#ao"/>
                <use transform="matrix(0.05,0,0,0.05,52,0)" xlink:href="#az"/>
                <use transform="matrix(0.05,0,0,0.05,62,0)" xlink:href="#ac"/>
            </g>
            <g id="B">
                <use transform="matrix(0.05,0,0,0.05,0,0)" xlink:href="#ae"/>
                <use transform="matrix(0.05,0,0,0.05,10,0)" xlink:href="#Z"/>
                <use transform="matrix(0.05,0,0,0.05,13.949999999999998,0)" xlink:href="#S"/>
                <use transform="matrix(0.05,0,0,0.05,19.9,0)" xlink:href="#ag"/>
            </g>
            <path d="M143 4C61 4 22-44 18-125c-5-107 100-154 193-111 17 8 29 25 37 43l-32 9c-13-25-37-40-76-40-61 0-88 39-88 99 0 61 29 100 91 101 35 0 62-11 79-27v-45h-74v-28h105v86C228-13 192 4 143 4" id="aA"/>
            <g id="C">
                <use transform="matrix(0.05,0,0,0.05,0,0)" xlink:href="#Q"/>
                <use transform="matrix(0.05,0,0,0.05,10.5,0)" xlink:href="#aA"/>
                <use transform="matrix(0.05,0,0,0.05,24.5,0)" xlink:href="#am"/>
                <use transform="matrix(0.05,0,0,0.05,34.5,0)" xlink:href="#W"/>
                <use transform="matrix(0.05,0,0,0.05,39.5,0)" xlink:href="#ap"/>
                <use transform="matrix(0.05,0,0,0.05,52.45,0)" xlink:href="#aq"/>
                <use transform="matrix(0.05,0,0,0.05,62.45,0)" xlink:href="#ao"/>
                <use transform="matrix(0.05,0,0,0.05,72.45,0)" xlink:href="#W"/>
                <use transform="matrix(0.05,0,0,0.05,77.45,0)" xlink:href="#am"/>
                <use transform="matrix(0.05,0,0,0.05,87.45,0)" xlink:href="#ad"/>
                <use transform="matrix(0.05,0,0,0.05,96.45,0)" xlink:href="#W"/>
                <use transform="matrix(0.05,0,0,0.05,101.45,0)" xlink:href="#X"/>
                <use transform="matrix(0.05,0,0,0.05,107.4,0)" xlink:href="#ag"/>
            </g>
            <path d="M30-248c87 1 191-15 191 75 0 78-77 80-158 76V0H30v-248zm33 125c57 0 124 11 124-50 0-59-68-47-124-48v98" id="aB"/>
            <g id="D">
                <use transform="matrix(0.05,0,0,0.05,0,0)" xlink:href="#Q"/>
                <use transform="matrix(0.05,0,0,0.05,10.5,0)" xlink:href="#aA"/>
                <use transform="matrix(0.05,0,0,0.05,24.5,0)" xlink:href="#am"/>
                <use transform="matrix(0.05,0,0,0.05,34.5,0)" xlink:href="#W"/>
                <use transform="matrix(0.05,0,0,0.05,39.5,0)" xlink:href="#aB"/>
                <use transform="matrix(0.05,0,0,0.05,51.5,0)" xlink:href="#Z"/>
                <use transform="matrix(0.05,0,0,0.05,55.45,0)" xlink:href="#ad"/>
                <use transform="matrix(0.05,0,0,0.05,64.45,0)" xlink:href="#am"/>
                <use transform="matrix(0.05,0,0,0.05,74.45,0)" xlink:href="#ar"/>
                <use transform="matrix(0.05,0,0,0.05,78.4,0)" xlink:href="#ay"/>
                <use transform="matrix(0.05,0,0,0.05,90.4,0)" xlink:href="#S"/>
                <use transform="matrix(0.05,0,0,0.05,96.35000000000001,0)" xlink:href="#S"/>
                <use transform="matrix(0.05,0,0,0.05,102.30000000000001,0)" xlink:href="#T"/>
                <use transform="matrix(0.05,0,0,0.05,112.30000000000001,0)" xlink:href="#af"/>
                <use transform="matrix(0.05,0,0,0.05,121.30000000000001,0)" xlink:href="#X"/>
                <use transform="matrix(0.05,0,0,0.05,127.25,0)" xlink:href="#ag"/>
            </g>
            <g id="E">
                <use transform="matrix(0.05,0,0,0.05,0,0)" xlink:href="#Q"/>
                <use transform="matrix(0.05,0,0,0.05,10.5,0)" xlink:href="#R"/>
                <use transform="matrix(0.05,0,0,0.05,23.450000000000003,0)" xlink:href="#Z"/>
                <use transform="matrix(0.05,0,0,0.05,27.400000000000002,0)" xlink:href="#V"/>
                <use transform="matrix(0.05,0,0,0.05,36.400000000000006,0)" xlink:href="#ab"/>
                <use transform="matrix(0.05,0,0,0.05,46.400000000000006,0)" xlink:href="#aq"/>
                <use transform="matrix(0.05,0,0,0.05,56.400000000000006,0)" xlink:href="#V"/>
                <use transform="matrix(0.05,0,0,0.05,65.4,0)" xlink:href="#am"/>
                <use transform="matrix(0.05,0,0,0.05,75.4,0)" xlink:href="#X"/>
                <use transform="matrix(0.05,0,0,0.05,81.35000000000001,0)" xlink:href="#ag"/>
            </g>
            <g id="F">
                <use transform="matrix(0.05,0,0,0.05,0,0)" xlink:href="#al"/>
                <use transform="matrix(0.05,0,0,0.05,5,0)" xlink:href="#al"/>
                <use transform="matrix(0.05,0,0,0.05,10,0)" xlink:href="#al"/>
            </g>
            <path d="M176-78C186 10 51 31 16-35c-5-9-9-19-11-32l52-8c4 21 12 37 35 38 23 0 32-16 32-40v-130H75v-41h101v170" id="aC"/>
            <path d="M169-182c-1-43-94-46-97-3 18 66 151 10 154 114 3 95-165 93-204 36-6-8-10-19-12-30l50-8c3 46 112 56 116 5-17-69-150-10-154-114-4-87 153-88 188-35 5 8 8 18 10 28" id="aD"/>
            <g id="G">
                <use transform="matrix(0.05,0,0,0.05,0,0)" xlink:href="#I"/>
                <use transform="matrix(0.05,0,0,0.05,14,0)" xlink:href="#J"/>
                <use transform="matrix(0.05,0,0,0.05,21,0)" xlink:href="#K"/>
                <use transform="matrix(0.05,0,0,0.05,31,0)" xlink:href="#L"/>
                <use transform="matrix(0.05,0,0,0.05,41.95,0)" xlink:href="#M"/>
                <use transform="matrix(0.05,0,0,0.05,52.900000000000006,0)" xlink:href="#N"/>
                <use transform="matrix(0.05,0,0,0.05,57.900000000000006,0)" xlink:href="#O"/>
                <use transform="matrix(0.05,0,0,0.05,67.9,0)" xlink:href="#P"/>
                <use transform="matrix(0.05,0,0,0.05,77.9,0)" xlink:href="#aC"/>
                <use transform="matrix(0.05,0,0,0.05,87.9,0)" xlink:href="#aD"/>
            </g>
            <path d="M175 0L67-191c6 58 2 128 3 191H24v-248h59L193-55c-6-58-2-129-3-193h46V0h-61" id="aE"/>
            <path d="M24 0v-248h195v40H76v63h132v40H76v65h150V0H24" id="aF"/>
            <path d="M136-208V0H84v-208H4v-40h212v40h-80" id="aG"/>
            <g id="H">
                <use transform="matrix(0.05,0,0,0.05,0,0)" xlink:href="#I"/>
                <use transform="matrix(0.05,0,0,0.05,14,0)" xlink:href="#J"/>
                <use transform="matrix(0.05,0,0,0.05,21,0)" xlink:href="#K"/>
                <use transform="matrix(0.05,0,0,0.05,31,0)" xlink:href="#L"/>
                <use transform="matrix(0.05,0,0,0.05,41.95,0)" xlink:href="#M"/>
                <use transform="matrix(0.05,0,0,0.05,52.900000000000006,0)" xlink:href="#N"/>
                <use transform="matrix(0.05,0,0,0.05,57.900000000000006,0)" xlink:href="#O"/>
                <use transform="matrix(0.05,0,0,0.05,67.9,0)" xlink:href="#P"/>
                <use transform="matrix(0.05,0,0,0.05,77.9,0)" xlink:href="#aE"/>
                <use transform="matrix(0.05,0,0,0.05,90.85000000000001,0)" xlink:href="#aF"/>
                <use transform="matrix(0.05,0,0,0.05,102.85000000000001,0)" xlink:href="#aG"/>
            </g>
        </defs>
    </g>
</svg>