<svg xmlns="http://www.w3.org/2000/svg" xmlns:xlink="http://www.w3.org/1999/xlink" xmlns:lucid="lucid" width="811" height="409">
    <g transform="translate(-247 -159)" lucid:page-tab-id="0_0">
        <path d="M280 295c0-2.76 2.24-5 5-5h170c2.76 0 5 2.24 5 5v150c0 2.76-2.24 5-5 5H285c-2.76 0-5-2.24-5-5z" fill="#fff"/>
        <path d="M298 290h-13c-2.76 0-5 2.24-5 5v150c0 2.76 2.24 5 5 5h13" stroke="#000" stroke-width="2" fill="none"/>
        <use xlink:href="#a" transform="matrix(1,0,0,1,290,290) translate(0 18.800000000000004)"/>
        <use xlink:href="#b" transform="matrix(1,0,0,1,290,290) translate(0 40.400000000000006)"/>
        <use xlink:href="#c" transform="matrix(1,0,0,1,290,290) translate(0 62.00000000000001)"/>
        <use xlink:href="#d" transform="matrix(1,0,0,1,290,290) translate(0 83.60000000000002)"/>
        <use xlink:href="#e" transform="matrix(1,0,0,1,290,290) translate(0 105.20000000000002)"/>
        <use xlink:href="#f" transform="matrix(1,0,0,1,290,290) translate(0 126.80000000000001)"/>
        <use xlink:href="#g" transform="matrix(1,0,0,1,290,290) translate(0 148.4)"/>
        <path d="M460 392.86l3.75.15 3.23.42 2.88.62 2.67.82 2.55 1.02 2.56 1.3 2.73 1.67 3.3 2.44 14.96 12.7 2.73 1.7.1.05" fill="none"/>
        <path d="M460 392.86l3.75.15 3.23.42 1.07.23m7.67 2.55l1.92.97 2.73 1.68 3.3 2.44 5.14 4.37m6.2 5.25l3.63 3.1 2.73 1.67.1.05" stroke="#000" stroke-width="2" fill="none"/>
        <path d="M460.2 391.88l-.2.98v-1.02zM515.86 419.24l-14.96 1.14 2.2-9z"/>
        <path d="M519 420l-19.4 1.48 2.84-11.7zm-16.8-.73l10.5-.8-8.97-5.53z"/>
        <path d="M520 395c0-2.76 2.24-5 5-5h270c2.76 0 5 2.24 5 5v50c0 2.76-2.24 5-5 5H525c-2.76 0-5-2.24-5-5z" stroke="#000" stroke-width="2" fill="#cce5ff"/>
        <use xlink:href="#h" transform="matrix(1,0,0,1,540,390) translate(92.05 33.6)"/>
        <path d="M801 420l3.97.17 3.4.43 3 .66 2.76.86 2.66 1.1 2.68 1.37 3 1.87 4.26 3.26 10.8 8.8 2.98 1.88.9.48" fill="none"/>
        <path d="M801 420l3.97.17 3.4.43.36.1m7.42 2.25l.64.26 2.68 1.4 3 1.87 4.26 3.26 2.27 1.85m6.04 4.9l2.5 2.05 2.98 1.88.9.48" stroke="#000" stroke-width="2" fill="none"/>
        <path d="M801.18 419.02l-.36 1.96-.82-.15v-2.03zM855.85 444.26l-14.95 1.25 2.12-9z"/>
        <path d="M859 445l-19.4 1.63 2.76-11.7zm-16.8-.6l10.5-.88-9.02-5.46z"/>
        <path d="M860 395c0-2.76 2.24-5 5-5h270c2.76 0 5 2.24 5 5v100c0 2.76-2.24 5-5 5H865c-2.76 0-5-2.24-5-5z" fill="#fff"/>
        <path d="M888 390h-23c-2.76 0-5 2.24-5 5v100c0 2.76 2.24 5 5 5h23" stroke="#000" stroke-width="2" fill="none"/>
        <use xlink:href="#i" transform="matrix(1,0,0,1,870,390) translate(0 26.19999999999999)"/>
        <use xlink:href="#j" transform="matrix(1,0,0,1,870,390) translate(0 47.79999999999999)"/>
        <use xlink:href="#k" transform="matrix(1,0,0,1,870,390) translate(0 69.39999999999999)"/>
        <use xlink:href="#l" transform="matrix(1,0,0,1,870,390) translate(0 91)"/>
        <path d="M520 275c0-2.76 2.24-5 5-5h270c2.76 0 5 2.24 5 5v50c0 2.76-2.24 5-5 5H525c-2.76 0-5-2.24-5-5z" stroke="#000" stroke-width="2" fill="#cce5ff"/>
        <use xlink:href="#m" transform="matrix(1,0,0,1,540,270) translate(99.55 33.6)"/>
        <path d="M460 324.3l4.15-.18 3.52-.45 3.1-.67 2.87-.87 2.74-1.1 2.8-1.4 3.1-1.93 4.9-3.65 9.53-7.46 3.13-1.94 1.53-.77" fill="none"/>
        <path d="M460 324.3l4.15-.18 3.52-.45.16-.04m7.54-2.2l1-.4 2.8-1.4 3.12-1.93 4.87-3.65 1.38-1.08m6.2-4.85l1.96-1.53 3.13-1.94 1.53-.77" stroke="#000" stroke-width="2" fill="none"/>
        <path d="M460.17 325.27l-.17.03v-1.02zM515.84 300.7l-12.93 7.6-2-9.05z"/>
        <path d="M519 300l-16.77 9.86-2.6-11.74zm-15.4 6.74l9.08-5.35-10.5-1.03z"/>
        <path d="M860 221.67c0-2.76 2.24-5 5-5h270c2.76 0 5 2.24 5 5V305c0 2.76-2.24 5-5 5H865c-2.76 0-5-2.24-5-5z" fill="#fff"/>
        <path d="M888 216.67h-23c-2.76 0-5 2.24-5 5V305c0 2.76 2.24 5 5 5h23" stroke="#000" stroke-width="2" fill="none"/>
        <use xlink:href="#n" transform="matrix(1,0,0,1,870,216.66666666667) translate(0 50.6)"/>
        <path d="M801 300l2.8-.12 2.48-.32 2.3-.5 2.16-.68 2.1-.85 2.07-1.07 2.14-1.34 2.28-1.72 2.63-2.38 3.63-3.9 12.47-14.8 2.63-2.38 1.32-1" fill="none"/>
        <path d="M801 300l2.8-.12 2.48-.32 2.3-.5 1.17-.37m7.88-4.02l1.7-1.28 2.62-2.38 3.63-3.9 4.37-5.2m5.72-6.8l2.38-2.8 2.63-2.38 1.32-1" stroke="#000" stroke-width="2" fill="none"/>
        <path d="M801.26 300.97l-1.26.33v-2.07l.74-.2zM843.83 273.2l-2.9-8.8 15-.05z"/>
        <path d="M843.3 274.83l-3.75-11.42 19.45-.07zm-1-9.43l2.05 6.2 8.5-6.24z"/>
        <path d="M720 190c22.1 0 40 8.95 40 20s-17.9 20-40 20H600c-22.1 0-40-8.95-40-20s17.9-20 40-20z" stroke="#000" stroke-width="2" fill="#ffc"/>
        <use xlink:href="#o" transform="matrix(1,0,0,1,580,190) translate(8.824999999999989 23.6)"/>
        <use xlink:href="#p" transform="matrix(1,0,0,1,580,190) translate(54.37499999999999 23.6)"/>
        <use xlink:href="#q" transform="matrix(1,0,0,1,580,190) translate(84.375 23.6)"/>
        <path d="M727.07 500c24.44 0 44.26 10.45 44.26 23.33 0 12.9-19.82 23.34-44.26 23.34h-132.8c-24.45 0-44.27-10.45-44.27-23.34 0-12.88 19.82-23.33 44.27-23.33z" stroke="#000" stroke-width="2" fill="#ffc"/>
        <g>
            <use xlink:href="#r" transform="matrix(1,0,0,1,572.133333333333,500) translate(2.6499999999999915 27.1)"/>
            <use xlink:href="#s" transform="matrix(1,0,0,1,572.133333333333,500) translate(63.54999999999999 27.1)"/>
            <use xlink:href="#q" transform="matrix(1,0,0,1,572.133333333333,500) translate(108.55 27.1)"/>
        </g>
        <path d="M660 231v19.76" stroke="#000" stroke-width="2" fill="none"/>
        <path d="M661 231h-2v-1h2zM660 265.76l-4.64-14.26h9.28z"/>
        <path d="M660 269l-6-18.5h12zm-3.26-16.5l3.26 10.03 3.26-10.03z"/>
        <path d="M660.67 499l-.42-29.77" stroke="#000" stroke-width="2" fill="none"/>
        <path d="M661.68 500h-2v-1h2zM664.88 468.44l-9.27.12 4.44-14.32z"/>
        <path d="M666.27 469.42l-12.02.16L660 451zm-9.3-1.87l6.52-.1-3.4-9.98z"/>
        <defs>
            <path d="M33 0v-248h34V0H33" id="t"/>
            <path d="M210-169c-67 3-38 105-44 169h-31v-121c0-29-5-50-35-48C34-165 62-65 56 0H25l-1-190h30c1 10-1 24 2 32 10-44 99-50 107 0 11-21 27-35 58-36 85-2 47 119 55 194h-31v-121c0-29-5-49-35-48" id="u"/>
            <path d="M141-36C126-15 110 5 73 4 37 3 15-17 15-53c-1-64 63-63 125-63 3-35-9-54-41-54-24 1-41 7-42 31l-33-3c5-37 33-52 76-52 45 0 72 20 72 64v82c-1 20 7 32 28 27v20c-31 9-61-2-59-35zM48-53c0 20 12 33 32 33 41-3 63-29 60-74-43 2-92-5-92 41" id="v"/>
            <path d="M177-190C167-65 218 103 67 71c-23-6-38-20-44-43l32-5c15 47 100 32 89-28v-30C133-14 115 1 83 1 29 1 15-40 15-95c0-56 16-97 71-98 29-1 48 16 59 35 1-10 0-23 2-32h30zM94-22c36 0 50-32 50-73 0-42-14-75-50-75-39 0-46 34-46 75s6 73 46 73" id="w"/>
            <path d="M100-194c63 0 86 42 84 106H49c0 40 14 67 53 68 26 1 43-12 49-29l28 8c-11 28-37 45-77 45C44 4 14-33 15-96c1-61 26-98 85-98zm52 81c6-60-76-77-97-28-3 7-6 17-6 28h103" id="x"/>
            <path d="M233-177c-1 41-23 64-60 70L243 0h-38l-65-103H63V0H30v-248c88 3 205-21 203 71zM63-129c60-2 137 13 137-47 0-61-80-42-137-45v92" id="y"/>
            <path d="M100-194c62-1 85 37 85 99 1 63-27 99-86 99S16-35 15-95c0-66 28-99 85-99zM99-20c44 1 53-31 53-75 0-43-8-75-51-75s-53 32-53 75 10 74 51 75" id="z"/>
            <path d="M59-47c-2 24 18 29 38 22v24C64 9 27 4 27-40v-127H5v-23h24l9-43h21v43h35v23H59v120" id="A"/>
            <path d="M63-220v92h138v28H63V0H30v-248h175v28H63" id="B"/>
            <path d="M24 0v-261h32V0H24" id="C"/>
            <path d="M24-231v-30h32v30H24zM24 0v-190h32V0H24" id="D"/>
            <path d="M115-194c55 1 70 41 70 98S169 2 115 4C84 4 66-9 55-30l1 105H24l-1-265h31l2 30c10-21 28-34 59-34zm-8 174c40 0 45-34 45-75s-6-73-45-74c-42 0-51 32-51 76 0 43 10 73 51 73" id="E"/>
            <path d="M33 0v-38h34V0H33" id="F"/>
            <path d="M96-169c-40 0-48 33-48 73s9 75 48 75c24 0 41-14 43-38l32 2c-6 37-31 61-74 61-59 0-76-41-82-99-10-93 101-131 147-64 4 7 5 14 7 22l-32 3c-4-21-16-35-41-35" id="G"/>
            <path d="M135-143c-3-34-86-38-87 0 15 53 115 12 119 90S17 21 10-45l28-5c4 36 97 45 98 0-10-56-113-15-118-90-4-57 82-63 122-42 12 7 21 19 24 35" id="H"/>
            <g id="a">
                <use transform="matrix(0.05,0,0,0.05,0,0)" xlink:href="#t"/>
                <use transform="matrix(0.05,0,0,0.05,5,0)" xlink:href="#u"/>
                <use transform="matrix(0.05,0,0,0.05,19.950000000000003,0)" xlink:href="#v"/>
                <use transform="matrix(0.05,0,0,0.05,29.950000000000003,0)" xlink:href="#w"/>
                <use transform="matrix(0.05,0,0,0.05,39.95,0)" xlink:href="#x"/>
                <use transform="matrix(0.05,0,0,0.05,49.95,0)" xlink:href="#y"/>
                <use transform="matrix(0.05,0,0,0.05,62.900000000000006,0)" xlink:href="#z"/>
                <use transform="matrix(0.05,0,0,0.05,72.9,0)" xlink:href="#A"/>
                <use transform="matrix(0.05,0,0,0.05,77.9,0)" xlink:href="#v"/>
                <use transform="matrix(0.05,0,0,0.05,87.9,0)" xlink:href="#A"/>
                <use transform="matrix(0.05,0,0,0.05,92.9,0)" xlink:href="#x"/>
                <use transform="matrix(0.05,0,0,0.05,102.9,0)" xlink:href="#B"/>
                <use transform="matrix(0.05,0,0,0.05,113.85000000000001,0)" xlink:href="#C"/>
                <use transform="matrix(0.05,0,0,0.05,117.80000000000001,0)" xlink:href="#D"/>
                <use transform="matrix(0.05,0,0,0.05,121.75,0)" xlink:href="#E"/>
                <use transform="matrix(0.05,0,0,0.05,131.75,0)" xlink:href="#F"/>
                <use transform="matrix(0.05,0,0,0.05,136.75,0)" xlink:href="#G"/>
                <use transform="matrix(0.05,0,0,0.05,145.75,0)" xlink:href="#H"/>
            </g>
            <path d="M114-163C36-179 61-72 57 0H25l-1-190h30c1 12-1 29 2 39 6-27 23-49 58-41v29" id="I"/>
            <g id="b">
                <use transform="matrix(0.05,0,0,0.05,0,0)" xlink:href="#t"/>
                <use transform="matrix(0.05,0,0,0.05,5,0)" xlink:href="#u"/>
                <use transform="matrix(0.05,0,0,0.05,19.950000000000003,0)" xlink:href="#v"/>
                <use transform="matrix(0.05,0,0,0.05,29.950000000000003,0)" xlink:href="#w"/>
                <use transform="matrix(0.05,0,0,0.05,39.95,0)" xlink:href="#x"/>
                <use transform="matrix(0.05,0,0,0.05,49.95,0)" xlink:href="#B"/>
                <use transform="matrix(0.05,0,0,0.05,60.900000000000006,0)" xlink:href="#D"/>
                <use transform="matrix(0.05,0,0,0.05,64.85000000000001,0)" xlink:href="#C"/>
                <use transform="matrix(0.05,0,0,0.05,68.80000000000001,0)" xlink:href="#A"/>
                <use transform="matrix(0.05,0,0,0.05,73.80000000000001,0)" xlink:href="#x"/>
                <use transform="matrix(0.05,0,0,0.05,83.80000000000001,0)" xlink:href="#I"/>
                <use transform="matrix(0.05,0,0,0.05,88.75000000000001,0)" xlink:href="#F"/>
                <use transform="matrix(0.05,0,0,0.05,93.75000000000001,0)" xlink:href="#G"/>
                <use transform="matrix(0.05,0,0,0.05,102.75,0)" xlink:href="#H"/>
            </g>
            <path d="M212-179c-10-28-35-45-73-45-59 0-87 40-87 99 0 60 29 101 89 101 43 0 62-24 78-52l27 14C228-24 195 4 139 4 59 4 22-46 18-125c-6-104 99-153 187-111 19 9 31 26 39 46" id="J"/>
            <g id="c">
                <use transform="matrix(0.05,0,0,0.05,0,0)" xlink:href="#J"/>
                <use transform="matrix(0.05,0,0,0.05,12.950000000000001,0)" xlink:href="#z"/>
                <use transform="matrix(0.05,0,0,0.05,22.950000000000003,0)" xlink:href="#C"/>
                <use transform="matrix(0.05,0,0,0.05,26.900000000000002,0)" xlink:href="#C"/>
                <use transform="matrix(0.05,0,0,0.05,30.85,0)" xlink:href="#v"/>
                <use transform="matrix(0.05,0,0,0.05,40.85,0)" xlink:href="#w"/>
                <use transform="matrix(0.05,0,0,0.05,50.85,0)" xlink:href="#x"/>
                <use transform="matrix(0.05,0,0,0.05,60.85,0)" xlink:href="#F"/>
                <use transform="matrix(0.05,0,0,0.05,65.85,0)" xlink:href="#G"/>
                <use transform="matrix(0.05,0,0,0.05,74.85,0)" xlink:href="#H"/>
            </g>
            <path d="M205 0l-28-72H64L36 0H1l101-248h38L239 0h-34zm-38-99l-47-123c-12 45-31 82-46 123h93" id="K"/>
            <path d="M117-194c89-4 53 116 60 194h-32v-121c0-31-8-49-39-48C34-167 62-67 57 0H25l-1-190h30c1 10-1 24 2 32 11-22 29-35 61-36" id="L"/>
            <g id="d">
                <use transform="matrix(0.05,0,0,0.05,0,0)" xlink:href="#B"/>
                <use transform="matrix(0.05,0,0,0.05,10.950000000000001,0)" xlink:href="#D"/>
                <use transform="matrix(0.05,0,0,0.05,14.9,0)" xlink:href="#C"/>
                <use transform="matrix(0.05,0,0,0.05,18.85,0)" xlink:href="#A"/>
                <use transform="matrix(0.05,0,0,0.05,23.85,0)" xlink:href="#x"/>
                <use transform="matrix(0.05,0,0,0.05,33.85,0)" xlink:href="#I"/>
                <use transform="matrix(0.05,0,0,0.05,39.800000000000004,0)" xlink:href="#K"/>
                <use transform="matrix(0.05,0,0,0.05,51.800000000000004,0)" xlink:href="#G"/>
                <use transform="matrix(0.05,0,0,0.05,60.800000000000004,0)" xlink:href="#A"/>
                <use transform="matrix(0.05,0,0,0.05,65.80000000000001,0)" xlink:href="#D"/>
                <use transform="matrix(0.05,0,0,0.05,69.75000000000001,0)" xlink:href="#z"/>
                <use transform="matrix(0.05,0,0,0.05,79.75000000000001,0)" xlink:href="#L"/>
                <use transform="matrix(0.05,0,0,0.05,89.75000000000001,0)" xlink:href="#F"/>
                <use transform="matrix(0.05,0,0,0.05,94.75000000000001,0)" xlink:href="#G"/>
                <use transform="matrix(0.05,0,0,0.05,103.75,0)" xlink:href="#H"/>
            </g>
            <path d="M30-248c87 1 191-15 191 75 0 78-77 80-158 76V0H30v-248zm33 125c57 0 124 11 124-50 0-59-68-47-124-48v98" id="M"/>
            <path d="M108 0H70L1-190h34L89-25l56-165h34" id="N"/>
            <path d="M232-93c-1 65-40 97-104 97C67 4 28-28 28-90v-158h33c8 89-33 224 67 224 102 0 64-133 71-224h33v155" id="O"/>
            <g id="e">
                <use transform="matrix(0.05,0,0,0.05,0,0)" xlink:href="#M"/>
                <use transform="matrix(0.05,0,0,0.05,12,0)" xlink:href="#I"/>
                <use transform="matrix(0.05,0,0,0.05,17.95,0)" xlink:href="#D"/>
                <use transform="matrix(0.05,0,0,0.05,21.9,0)" xlink:href="#N"/>
                <use transform="matrix(0.05,0,0,0.05,30.899999999999995,0)" xlink:href="#v"/>
                <use transform="matrix(0.05,0,0,0.05,40.9,0)" xlink:href="#A"/>
                <use transform="matrix(0.05,0,0,0.05,45.9,0)" xlink:href="#x"/>
                <use transform="matrix(0.05,0,0,0.05,55.900000000000006,0)" xlink:href="#O"/>
                <use transform="matrix(0.05,0,0,0.05,68.85,0)" xlink:href="#A"/>
                <use transform="matrix(0.05,0,0,0.05,73.85,0)" xlink:href="#D"/>
                <use transform="matrix(0.05,0,0,0.05,77.8,0)" xlink:href="#C"/>
                <use transform="matrix(0.05,0,0,0.05,81.75,0)" xlink:href="#H"/>
                <use transform="matrix(0.05,0,0,0.05,90.75,0)" xlink:href="#F"/>
                <use transform="matrix(0.05,0,0,0.05,95.75,0)" xlink:href="#G"/>
                <use transform="matrix(0.05,0,0,0.05,104.75,0)" xlink:href="#H"/>
            </g>
            <g id="f">
                <use transform="matrix(0.05,0,0,0.05,0,0)" xlink:href="#O"/>
                <use transform="matrix(0.05,0,0,0.05,12.950000000000001,0)" xlink:href="#A"/>
                <use transform="matrix(0.05,0,0,0.05,17.950000000000003,0)" xlink:href="#D"/>
                <use transform="matrix(0.05,0,0,0.05,21.900000000000002,0)" xlink:href="#C"/>
                <use transform="matrix(0.05,0,0,0.05,25.85,0)" xlink:href="#H"/>
                <use transform="matrix(0.05,0,0,0.05,34.85,0)" xlink:href="#F"/>
                <use transform="matrix(0.05,0,0,0.05,39.85,0)" xlink:href="#G"/>
                <use transform="matrix(0.05,0,0,0.05,48.85,0)" xlink:href="#H"/>
            </g>
            <g id="g">
                <use transform="matrix(0.05,0,0,0.05,0,0)" xlink:href="#F"/>
                <use transform="matrix(0.05,0,0,0.05,5,0)" xlink:href="#F"/>
                <use transform="matrix(0.05,0,0,0.05,10,0)" xlink:href="#F"/>
            </g>
            <path d="M185-189c-5-48-123-54-124 2 14 75 158 14 163 119 3 78-121 87-175 55-17-10-28-26-33-46l33-7c5 56 141 63 141-1 0-78-155-14-162-118-5-82 145-84 179-34 5 7 8 16 11 25" id="P"/>
            <path d="M158-156l-14 65h45v19h-49L124 0h-19l15-72H56L41 0H22l15-72H2v-19h39l14-65H11v-19h48l15-71h20l-16 71h64l16-71h19l-16 71h37v19h-40zm-83 0L61-91h63l14-65H75" id="Q"/>
            <g id="h">
                <use transform="matrix(0.05,0,0,0.05,0,0)" xlink:href="#P"/>
                <use transform="matrix(0.05,0,0,0.05,12,0)" xlink:href="#G"/>
                <use transform="matrix(0.05,0,0,0.05,21,0)" xlink:href="#I"/>
                <use transform="matrix(0.05,0,0,0.05,26.950000000000003,0)" xlink:href="#D"/>
                <use transform="matrix(0.05,0,0,0.05,30.899999999999995,0)" xlink:href="#E"/>
                <use transform="matrix(0.05,0,0,0.05,40.9,0)" xlink:href="#A"/>
                <use transform="matrix(0.05,0,0,0.05,45.9,0)" xlink:href="#Q"/>
            </g>
            <path d="M115-194c53 0 69 39 70 98 0 66-23 100-70 100C84 3 66-7 56-30L54 0H23l1-261h32v101c10-23 28-34 59-34zm-8 174c40 0 45-34 45-75 0-40-5-75-45-74-42 0-51 32-51 76 0 43 10 73 51 73" id="R"/>
            <path d="M85-194c31 0 48 13 60 33l-1-100h32l1 261h-30c-2-10 0-23-3-31C134-8 116 4 85 4 32 4 16-35 15-94c0-66 23-100 70-100zm9 24c-40 0-46 34-46 75 0 40 6 74 45 74 42 0 51-32 51-76 0-42-9-74-50-73" id="S"/>
            <path d="M84 4C-5 8 30-112 23-190h32v120c0 31 7 50 39 49 72-2 45-101 50-169h31l1 190h-30c-1-10 1-25-2-33-11 22-28 36-60 37" id="T"/>
            <path d="M24-231v-30h32v30H24zM-9 49c24 4 33-6 33-30v-209h32V24c2 40-23 58-65 49V49" id="U"/>
            <g id="i">
                <use transform="matrix(0.05,0,0,0.05,0,0)" xlink:href="#u"/>
                <use transform="matrix(0.05,0,0,0.05,14.950000000000001,0)" xlink:href="#H"/>
                <use transform="matrix(0.05,0,0,0.05,23.950000000000003,0)" xlink:href="#G"/>
                <use transform="matrix(0.05,0,0,0.05,32.95,0)" xlink:href="#z"/>
                <use transform="matrix(0.05,0,0,0.05,42.95,0)" xlink:href="#I"/>
                <use transform="matrix(0.05,0,0,0.05,48.900000000000006,0)" xlink:href="#C"/>
                <use transform="matrix(0.05,0,0,0.05,52.85,0)" xlink:href="#D"/>
                <use transform="matrix(0.05,0,0,0.05,56.80000000000001,0)" xlink:href="#R"/>
                <use transform="matrix(0.05,0,0,0.05,66.80000000000001,0)" xlink:href="#F"/>
                <use transform="matrix(0.05,0,0,0.05,71.80000000000001,0)" xlink:href="#S"/>
                <use transform="matrix(0.05,0,0,0.05,81.80000000000001,0)" xlink:href="#x"/>
                <use transform="matrix(0.05,0,0,0.05,91.80000000000001,0)" xlink:href="#R"/>
                <use transform="matrix(0.05,0,0,0.05,101.80000000000001,0)" xlink:href="#T"/>
                <use transform="matrix(0.05,0,0,0.05,111.80000000000001,0)" xlink:href="#w"/>
                <use transform="matrix(0.05,0,0,0.05,121.80000000000001,0)" xlink:href="#F"/>
                <use transform="matrix(0.05,0,0,0.05,126.80000000000001,0)" xlink:href="#U"/>
                <use transform="matrix(0.05,0,0,0.05,130.75,0)" xlink:href="#H"/>
            </g>
            <g id="j">
                <use transform="matrix(0.05,0,0,0.05,0,0)" xlink:href="#u"/>
                <use transform="matrix(0.05,0,0,0.05,14.950000000000001,0)" xlink:href="#H"/>
                <use transform="matrix(0.05,0,0,0.05,23.950000000000003,0)" xlink:href="#G"/>
                <use transform="matrix(0.05,0,0,0.05,32.95,0)" xlink:href="#z"/>
                <use transform="matrix(0.05,0,0,0.05,42.95,0)" xlink:href="#I"/>
                <use transform="matrix(0.05,0,0,0.05,48.900000000000006,0)" xlink:href="#C"/>
                <use transform="matrix(0.05,0,0,0.05,52.85,0)" xlink:href="#D"/>
                <use transform="matrix(0.05,0,0,0.05,56.80000000000001,0)" xlink:href="#R"/>
                <use transform="matrix(0.05,0,0,0.05,66.80000000000001,0)" xlink:href="#F"/>
                <use transform="matrix(0.05,0,0,0.05,71.80000000000001,0)" xlink:href="#U"/>
                <use transform="matrix(0.05,0,0,0.05,75.75000000000001,0)" xlink:href="#H"/>
            </g>
            <path d="M30 0v-248h33v221h125V0H30" id="V"/>
            <g id="k">
                <use transform="matrix(0.05,0,0,0.05,0,0)" xlink:href="#D"/>
                <use transform="matrix(0.05,0,0,0.05,3.95,0)" xlink:href="#u"/>
                <use transform="matrix(0.05,0,0,0.05,18.900000000000002,0)" xlink:href="#w"/>
                <use transform="matrix(0.05,0,0,0.05,28.900000000000002,0)" xlink:href="#M"/>
                <use transform="matrix(0.05,0,0,0.05,40.900000000000006,0)" xlink:href="#I"/>
                <use transform="matrix(0.05,0,0,0.05,46.85000000000001,0)" xlink:href="#z"/>
                <use transform="matrix(0.05,0,0,0.05,56.85,0)" xlink:href="#G"/>
                <use transform="matrix(0.05,0,0,0.05,65.85000000000001,0)" xlink:href="#V"/>
                <use transform="matrix(0.05,0,0,0.05,75.85000000000001,0)" xlink:href="#D"/>
                <use transform="matrix(0.05,0,0,0.05,79.80000000000001,0)" xlink:href="#R"/>
                <use transform="matrix(0.05,0,0,0.05,89.80000000000001,0)" xlink:href="#F"/>
                <use transform="matrix(0.05,0,0,0.05,94.80000000000001,0)" xlink:href="#S"/>
                <use transform="matrix(0.05,0,0,0.05,104.80000000000001,0)" xlink:href="#x"/>
                <use transform="matrix(0.05,0,0,0.05,114.80000000000001,0)" xlink:href="#R"/>
                <use transform="matrix(0.05,0,0,0.05,124.80000000000001,0)" xlink:href="#T"/>
                <use transform="matrix(0.05,0,0,0.05,134.8,0)" xlink:href="#w"/>
                <use transform="matrix(0.05,0,0,0.05,144.8,0)" xlink:href="#F"/>
                <use transform="matrix(0.05,0,0,0.05,149.8,0)" xlink:href="#U"/>
                <use transform="matrix(0.05,0,0,0.05,153.75,0)" xlink:href="#H"/>
            </g>
            <g id="l">
                <use transform="matrix(0.05,0,0,0.05,0,0)" xlink:href="#D"/>
                <use transform="matrix(0.05,0,0,0.05,3.95,0)" xlink:href="#u"/>
                <use transform="matrix(0.05,0,0,0.05,18.900000000000002,0)" xlink:href="#w"/>
                <use transform="matrix(0.05,0,0,0.05,28.900000000000002,0)" xlink:href="#M"/>
                <use transform="matrix(0.05,0,0,0.05,40.900000000000006,0)" xlink:href="#I"/>
                <use transform="matrix(0.05,0,0,0.05,46.85000000000001,0)" xlink:href="#z"/>
                <use transform="matrix(0.05,0,0,0.05,56.85,0)" xlink:href="#G"/>
                <use transform="matrix(0.05,0,0,0.05,65.85000000000001,0)" xlink:href="#V"/>
                <use transform="matrix(0.05,0,0,0.05,75.85000000000001,0)" xlink:href="#D"/>
                <use transform="matrix(0.05,0,0,0.05,79.80000000000001,0)" xlink:href="#R"/>
                <use transform="matrix(0.05,0,0,0.05,89.80000000000001,0)" xlink:href="#F"/>
                <use transform="matrix(0.05,0,0,0.05,94.80000000000001,0)" xlink:href="#U"/>
                <use transform="matrix(0.05,0,0,0.05,98.75000000000001,0)" xlink:href="#H"/>
            </g>
            <path d="M190 0L58-211 59 0H30v-248h39L202-35l-2-213h31V0h-41" id="W"/>
            <path d="M30 0v-248h187v28H63v79h144v27H63v87h162V0H30" id="X"/>
            <path d="M127-220V0H93v-220H8v-28h204v28h-85" id="Y"/>
            <g id="m">
                <use transform="matrix(0.05,0,0,0.05,0,0)" xlink:href="#F"/>
                <use transform="matrix(0.05,0,0,0.05,5,0)" xlink:href="#W"/>
                <use transform="matrix(0.05,0,0,0.05,17.950000000000003,0)" xlink:href="#X"/>
                <use transform="matrix(0.05,0,0,0.05,29.950000000000003,0)" xlink:href="#Y"/>
            </g>
            <g id="n">
                <use transform="matrix(0.05,0,0,0.05,0,0)" xlink:href="#t"/>
                <use transform="matrix(0.05,0,0,0.05,5,0)" xlink:href="#u"/>
                <use transform="matrix(0.05,0,0,0.05,19.950000000000003,0)" xlink:href="#v"/>
                <use transform="matrix(0.05,0,0,0.05,29.950000000000003,0)" xlink:href="#w"/>
                <use transform="matrix(0.05,0,0,0.05,39.95,0)" xlink:href="#x"/>
                <use transform="matrix(0.05,0,0,0.05,49.95,0)" xlink:href="#M"/>
                <use transform="matrix(0.05,0,0,0.05,61.95,0)" xlink:href="#I"/>
                <use transform="matrix(0.05,0,0,0.05,67.9,0)" xlink:href="#z"/>
                <use transform="matrix(0.05,0,0,0.05,77.9,0)" xlink:href="#G"/>
                <use transform="matrix(0.05,0,0,0.05,86.9,0)" xlink:href="#x"/>
                <use transform="matrix(0.05,0,0,0.05,96.9,0)" xlink:href="#H"/>
                <use transform="matrix(0.05,0,0,0.05,105.9,0)" xlink:href="#H"/>
                <use transform="matrix(0.05,0,0,0.05,114.9,0)" xlink:href="#D"/>
                <use transform="matrix(0.05,0,0,0.05,118.85000000000001,0)" xlink:href="#L"/>
                <use transform="matrix(0.05,0,0,0.05,128.85000000000002,0)" xlink:href="#w"/>
                <use transform="matrix(0.05,0,0,0.05,138.85000000000002,0)" xlink:href="#F"/>
                <use transform="matrix(0.05,0,0,0.05,143.85000000000002,0)" xlink:href="#S"/>
                <use transform="matrix(0.05,0,0,0.05,153.85000000000002,0)" xlink:href="#C"/>
                <use transform="matrix(0.05,0,0,0.05,157.8,0)" xlink:href="#C"/>
            </g>
            <g id="o">
                <use transform="matrix(0.05,0,0,0.05,0,0)" xlink:href="#F"/>
                <use transform="matrix(0.05,0,0,0.05,5,0)" xlink:href="#W"/>
                <use transform="matrix(0.05,0,0,0.05,17.950000000000003,0)" xlink:href="#X"/>
                <use transform="matrix(0.05,0,0,0.05,29.950000000000003,0)" xlink:href="#Y"/>
            </g>
            <path d="M155-56V0h-30v-56H8v-25l114-167h33v167h35v25h-35zm-30-156c-27 46-58 90-88 131h88v-131" id="Z"/>
            <path d="M101-251c68 0 85 55 85 127S166 4 100 4C33 4 14-52 14-124c0-73 17-127 87-127zm-1 229c47 0 54-49 54-102s-4-102-53-102c-51 0-55 48-55 102 0 53 5 102 54 102" id="aa"/>
            <g id="p">
                <use transform="matrix(0.05,0,0,0.05,0,0)" xlink:href="#Z"/>
                <use transform="matrix(0.05,0,0,0.05,10,0)" xlink:href="#F"/>
                <use transform="matrix(0.05,0,0,0.05,15,0)" xlink:href="#aa"/>
            </g>
            <g id="q">
                <use transform="matrix(0.05,0,0,0.05,0,0)" xlink:href="#u"/>
                <use transform="matrix(0.05,0,0,0.05,14.950000000000001,0)" xlink:href="#H"/>
                <use transform="matrix(0.05,0,0,0.05,23.950000000000003,0)" xlink:href="#G"/>
                <use transform="matrix(0.05,0,0,0.05,32.95,0)" xlink:href="#z"/>
                <use transform="matrix(0.05,0,0,0.05,42.95,0)" xlink:href="#I"/>
                <use transform="matrix(0.05,0,0,0.05,48.900000000000006,0)" xlink:href="#C"/>
                <use transform="matrix(0.05,0,0,0.05,52.85,0)" xlink:href="#D"/>
                <use transform="matrix(0.05,0,0,0.05,56.80000000000001,0)" xlink:href="#R"/>
            </g>
            <g id="r">
                <use transform="matrix(0.05,0,0,0.05,0,0)" xlink:href="#P"/>
                <use transform="matrix(0.05,0,0,0.05,12,0)" xlink:href="#G"/>
                <use transform="matrix(0.05,0,0,0.05,21,0)" xlink:href="#I"/>
                <use transform="matrix(0.05,0,0,0.05,26.950000000000003,0)" xlink:href="#D"/>
                <use transform="matrix(0.05,0,0,0.05,30.899999999999995,0)" xlink:href="#E"/>
                <use transform="matrix(0.05,0,0,0.05,40.9,0)" xlink:href="#A"/>
                <use transform="matrix(0.05,0,0,0.05,45.9,0)" xlink:href="#Q"/>
            </g>
            <path d="M64 0c3-98 48-159 88-221H18v-27h164v26C143-157 98-101 97 0H64" id="ab"/>
            <path d="M54-142c48-35 137-8 131 61C196 18 31 33 14-55l32-4c7 23 22 37 52 37 35-1 51-22 54-58 4-55-73-65-99-34H22l8-134h141v27H59" id="ac"/>
            <g id="s">
                <use transform="matrix(0.05,0,0,0.05,0,0)" xlink:href="#aa"/>
                <use transform="matrix(0.05,0,0,0.05,10,0)" xlink:href="#F"/>
                <use transform="matrix(0.05,0,0,0.05,15,0)" xlink:href="#ab"/>
                <use transform="matrix(0.05,0,0,0.05,25,0)" xlink:href="#F"/>
                <use transform="matrix(0.05,0,0,0.05,30,0)" xlink:href="#ac"/>
            </g>
        </defs>
    </g>
</svg>