<?xml version="1.0" encoding="utf-8"?>
<!-- Generator: Adobe Illustrator 22.0.1, SVG Export Plug-In . SVG Version: 6.00 Build 0)  -->
<svg version="1.1" id="Слой_1" xmlns="http://www.w3.org/2000/svg" xmlns:xlink="http://www.w3.org/1999/xlink" x="0px" y="0px"
	 viewBox="0 0 273 114" style="enable-background:new 0 0 273 114;" xml:space="preserve">
<style type="text/css">
	.st0{fill:#413000;}
	.st1{fill:#F05133;}
</style>
<path class="st0" d="M163.6,38.8c-6,0-10.4,2.9-10.4,10c0,5.3,2.9,9,10.1,9c6.1,0,10.2-3.6,10.2-9.2
	C173.5,42.2,169.8,38.8,163.6,38.8L163.6,38.8z M151.6,88.7c-1.4,1.7-2.8,3.6-2.8,5.8c0,4.3,5.5,5.7,13.2,5.7
	c6.3,0,14.9-0.4,14.9-6.3c0-3.5-4.1-3.7-9.4-4L151.6,88.7L151.6,88.7z M183.8,39.1c2,2.5,4,6,4,11c0,12.1-9.5,19.1-23.2,19.1
	c-3.5,0-6.6-0.4-8.6-1l-3.6,5.8l10.7,0.7c18.8,1.2,29.9,1.7,29.9,16.2c0,12.5-11,19.6-29.9,19.6c-19.7,0-27.2-5-27.2-13.6
	c0-4.9,2.2-7.5,6-11.1c-3.6-1.5-4.8-4.2-4.8-7.2c0-2.4,1.2-4.6,3.2-6.6c2-2.1,4.1-4.1,6.7-6.5c-5.3-2.6-9.4-8.3-9.4-16.3
	c0-12.5,8.3-21.1,24.9-21.1c4.7,0,7.5,0.4,10,1.1h21.2v9.2L183.8,39.1"/>
<path class="st0" d="M213,19.4c-6.2,0-9.8-3.6-9.8-9.8c0-6.2,3.6-9.6,9.8-9.6c6.3,0,9.9,3.4,9.9,9.6C222.9,15.8,219.3,19.4,213,19.4
	z M198.9,84.7v-8.6l5.6-0.8c1.5-0.2,1.7-0.5,1.7-2.2v-32c0-1.2-0.3-2-1.4-2.3l-5.9-2.1l1.2-8.8h22.5v45.1c0,1.7,0.1,2,1.7,2.2
	l5.5,0.8v8.6L198.9,84.7"/>
<path class="st0" d="M273,80.5c-4.7,2.3-11.5,4.3-17.7,4.3c-12.9,0-17.8-5.2-17.8-17.5V38.9c0-0.7,0-1.1-0.9-1.1h-7.6v-9.7
	c9.6-1.1,13.4-5.9,14.6-17.7h10.3v15.5c0,0.8,0,1.1,0.9,1.1H270v10.9h-16.2v26c0,6.4,1.5,8.9,7.4,8.9c3,0,6.2-0.8,8.8-1.7L273,80.5"
	/>
<path class="st1" d="M61.1,46.3c-1.3-1.3-2.5-2.5-3.8-3.8c1.1,0,2.2-0.2,3.2-0.6c2.6,2.6,5.3,5.3,7.9,7.9c-0.7,0.7-1.3,1.4-2,2
	c2.8,0,5.6,0,8.3,0c-2.4,2.4-3.1,6.3-1.7,9.4c-2.3,2.3-4.7,4.7-7,7c-0.8-0.8-1.6-1.5-2.3-2.3c0,3.2,0,6.3,0,9.5
	c0-0.1-0.5-0.5-0.6-0.6c-0.2-0.2-0.4-0.4-0.7-0.5c-0.2-0.2-0.5-0.3-0.7-0.5c-0.2-0.1-0.6-0.4-0.6-0.4s0-0.3,0-0.4c0-0.2,0-0.3,0-0.5
	c0-0.3,0-0.7,0-1c0-0.7,0-1.3,0-2c0-2.6,0-5.2,0-7.8s0-5.2,0-7.8c0-1.5,0-2.9,0-4.4c1.1,0,2.2,0,3.3,0
	C63.3,48.5,62.2,47.4,61.1,46.3z"/>
<path class="st1" d="M55.5,42.4L55.5,42.4z"/>
<path class="st1" d="M55.9,41.8L55.9,41.8z"/>
<path class="st1" d="M55.6,42.4L55.6,42.4z"/>
<path class="st1" d="M55.3,43.2L55.3,43.2z"/>
<path class="st1" d="M60.6,42.3L60.6,42.3z"/>
<path class="st1" d="M60.6,42.4L60.6,42.4z"/>
<polygon class="st1" points="64.6,76.7 64.6,76.7 64.6,76.7 "/>
<path class="st1" d="M111.8,62.4l-49.5,49.5c-2.9,2.9-7.5,2.9-10.4,0L2.2,62.1c-2.9-2.9-2.9-7.5,0-10.4l34.1-34.1l12.9,12.9
	c-1.3,3.2-0.7,7,1.9,9.5c0.9,0.8,1.8,1.5,2.9,1.9c0,0,0.6,0.2,1.6,0.4c0.6,0.1,1.8,0.1,1.8,0.1c-1.1,1.1-2.3,2.2-3.4,3.4
	c-1.8,1.8-3.6,3.6-3.7,3.8l3.7,0v23.7c-1,0.4-2,1.1-2.9,1.9c-3.4,3.4-3.4,8.9,0,12.3c3.4,3.4,8.9,3.4,12.4,0
	c2.9-2.9,3.3-7.4,1.2-10.8c-0.2-0.4-0.5-0.7-0.8-1.1c0,0,9.5,0,9.5,0c-0.2-0.2-2.3-2.3-2.3-2.3c2.4-2.4,4.7-4.9,7.2-7.2
	c0.1-0.1,0.3-0.3,0.3-0.3c0.3,0.2,0.7,0.4,1,0.5c0.3,0.1,0.6,0.1,0.6,0.1c2.5,0.2,5-0.6,6.9-2.5c3.4-3.4,3.4-8.9,0-12.3
	c-2.4-2.4-6-3.1-9-2.1c0,0-0.8,0.3-1.5,0.8c-0.6,0.4-1,0.8-1.2,1c0-0.9,0-2.8,0-4.5c0-1.9,0-3.7,0-3.8l-1.9,1.9l-0.1-0.1l-7.9-7.9
	c1.1-3.1,0.4-6.6-2.1-9c-2.4-2.4-5.9-3.1-9-2.1L41.3,12.6L51.7,2.2c2.9-2.9,7.5-2.9,10.4,0L111.8,52
	C114.6,54.9,114.6,59.5,111.8,62.4z"/>
</svg>
