<?xml version="1.0" encoding="UTF-8" standalone="no"?>
<!-- Generator: Adobe Illustrator 16.0.0, SVG Export Plug-In . SVG Version: 6.00 Build 0)  -->

<svg
   xmlns:dc="http://purl.org/dc/elements/1.1/"
   xmlns:cc="http://creativecommons.org/ns#"
   xmlns:rdf="http://www.w3.org/1999/02/22-rdf-syntax-ns#"
   xmlns:svg="http://www.w3.org/2000/svg"
   xmlns="http://www.w3.org/2000/svg"
   xmlns:sodipodi="http://sodipodi.sourceforge.net/DTD/sodipodi-0.dtd"
   xmlns:inkscape="http://www.inkscape.org/namespaces/inkscape"
   version="1.1"
   id="Capa_1"
   x="0px"
   y="0px"
   width="197.97563"
   height="272.88565"
   viewBox="0 0 197.97562 272.88564"
   xml:space="preserve"
   inkscape:version="0.91 r13725"
   sodipodi:docname="Gedcom.svg"><metadata
     id="metadata3399"><rdf:RDF><cc:Work
         rdf:about=""><dc:format>image/svg+xml</dc:format><dc:type
           rdf:resource="http://purl.org/dc/dcmitype/StillImage" /><dc:title></dc:title></cc:Work></rdf:RDF></metadata><defs
     id="defs3397" /><sodipodi:namedview
     pagecolor="#ffffff"
     bordercolor="#666666"
     borderopacity="1"
     objecttolerance="10"
     gridtolerance="10"
     guidetolerance="10"
     inkscape:pageopacity="0"
     inkscape:pageshadow="2"
     inkscape:window-width="1836"
     inkscape:window-height="1178"
     id="namedview3395"
     showgrid="false"
     fit-margin-top="0"
     fit-margin-left="0"
     fit-margin-right="0"
     fit-margin-bottom="0"
     inkscape:zoom="0.6476665"
     inkscape:cx="536.40568"
     inkscape:cy="281.23643"
     inkscape:window-x="76"
     inkscape:window-y="-8"
     inkscape:window-maximized="1"
     inkscape:current-layer="Capa_1" /><g
     id="g3337"
     transform="matrix(0.49543322,0,0,0.49543322,-37.454751,0)"><g
       id="g3339"><path
         d="m 475.095,132 c -0.032,-2.529 -0.833,-5.023 -2.568,-6.993 L 366.324,3.694 c -0.021,-0.031 -0.053,-0.042 -0.084,-0.076 -0.633,-0.707 -1.36,-1.29 -2.141,-1.804 -0.232,-0.15 -0.465,-0.285 -0.707,-0.419 -0.686,-0.369 -1.393,-0.67 -2.131,-0.892 -0.2,-0.061 -0.379,-0.14 -0.58,-0.195 C 359.87,0.119 359.047,0 358.203,0 L 97.2,0 C 85.292,0 75.6,9.693 75.6,21.601 l 0,507.6 c 0,11.913 9.692,21.601 21.6,21.601 l 356.4,0 c 11.918,0 21.601,-9.688 21.601,-21.601 l 0,-395.994 C 475.2,132.804 475.137,132.398 475.095,132 Z M 218.761,514.72 c -8.295,2.815 -23.994,6.697 -39.696,6.697 -21.698,0 -37.402,-5.469 -48.336,-16.053 -10.935,-10.23 -16.933,-25.755 -16.762,-43.221 0.18,-39.52 28.928,-62.101 67.922,-62.101 15.346,0 27.166,3.006 32.988,5.822 l -5.643,21.526 c -6.523,-2.827 -14.639,-5.115 -27.696,-5.115 -22.404,0 -39.34,12.698 -39.34,38.454 0,24.521 15.346,38.986 37.399,38.986 6.178,0 11.113,-0.701 13.231,-1.756 l 0,-24.875 -18.344,0 0,-20.994 44.281,0 0,62.628 -0.004,0 z m 96.876,5.468 -75.861,0 0,-118.9 73.388,0 0,22.043 -46.398,0 0,24.7 43.751,0 0,21.875 -43.751,0 0,28.229 48.866,0 0,22.054 0.005,0 z m 103.749,-14.106 c -12.519,10.398 -31.577,15.346 -54.864,15.346 -13.938,0 -23.82,-0.887 -30.523,-1.762 l 0,-116.796 c 9.883,-1.582 22.761,-2.468 36.34,-2.468 22.586,0 37.225,4.061 48.689,12.703 12.351,9.176 20.113,23.815 20.113,44.809 0.005,22.76 -8.29,38.459 -19.755,48.168 z M 97.2,366.758 l 0,-345.153 250.203,0 0,110.519 c 0,5.961 4.831,10.8 10.8,10.8 l 95.397,0 0.011,223.834 -356.411,0 z"
         id="path3341"
         inkscape:connector-curvature="0" /><path
         d="m 373.159,421.042 c -5.996,0 -9.883,0.538 -12.171,1.061 l 0,77.799 c 2.299,0.527 6.001,0.527 9.35,0.527 24.348,0.179 40.221,-13.226 40.221,-41.634 0.178,-24.695 -14.287,-37.753 -37.4,-37.753 z"
         id="path3343"
         inkscape:connector-curvature="0" /></g><g
       id="g3345"><rect
         x="196.771"
         y="53.969002"
         width="76.949997"
         height="37.799999"
         id="rect3347" /><rect
         x="213.3"
         y="194.817"
         width="76.949997"
         height="37.799999"
         id="rect3349" /><rect
         x="213.3"
         y="288.642"
         width="76.949997"
         height="37.799999"
         id="rect3351" /><rect
         x="337.36301"
         y="288.642"
         width="76.948997"
         height="37.799999"
         id="rect3353" /><rect
         x="114.249"
         y="241.392"
         width="76.949997"
         height="37.799999"
         id="rect3355" /><rect
         x="337.36301"
         y="194.817"
         width="76.948997"
         height="37.799999"
         id="rect3357" /><polygon
         points="237.945,152.967 237.945,150.267 237.945,100.771 232.545,100.771 232.545,147.567 144.45,147.567 144.45,236.667 149.85,236.667 149.85,152.967 232.545,152.967 232.545,179.967 232.545,182.667 232.545,188.969 237.945,188.969 237.945,182.667 365.038,182.667 365.038,188.969 370.438,188.969 370.438,177.267 237.945,177.267 "
         id="polygon3359" /><rect
         x="232.545"
         y="241.392"
         width="5.4000001"
         height="37.799999"
         id="rect3361" /><rect
         x="365.03799"
         y="241.392"
         width="5.3990002"
         height="37.799999"
         id="rect3363" /></g></g><g
     id="g3365"
     transform="translate(-1.3592364,-351.61127)" /><g
     id="g3367"
     transform="translate(-1.3592364,-351.61127)" /><g
     id="g3369"
     transform="translate(-1.3592364,-351.61127)" /><g
     id="g3371"
     transform="translate(-1.3592364,-351.61127)" /><g
     id="g3373"
     transform="translate(-1.3592364,-351.61127)" /><g
     id="g3375"
     transform="translate(-1.3592364,-351.61127)" /><g
     id="g3377"
     transform="translate(-1.3592364,-351.61127)" /><g
     id="g3379"
     transform="translate(-1.3592364,-351.61127)" /><g
     id="g3381"
     transform="translate(-1.3592364,-351.61127)" /><g
     id="g3383"
     transform="translate(-1.3592364,-351.61127)" /><g
     id="g3385"
     transform="translate(-1.3592364,-351.61127)" /><g
     id="g3387"
     transform="translate(-1.3592364,-351.61127)" /><g
     id="g3389"
     transform="translate(-1.3592364,-351.61127)" /><g
     id="g3391"
     transform="translate(-1.3592364,-351.61127)" /><g
     id="g3393"
     transform="translate(-1.3592364,-351.61127)" /></svg>