<?xml version="1.0" encoding="UTF-8" standalone="no"?>
<!-- Generator: Adobe Illustrator 16.0.0, SVG Export Plug-In . SVG Version: 6.00 Build 0)  -->

<svg
   xmlns:dc="http://purl.org/dc/elements/1.1/"
   xmlns:cc="http://creativecommons.org/ns#"
   xmlns:rdf="http://www.w3.org/1999/02/22-rdf-syntax-ns#"
   xmlns:svg="http://www.w3.org/2000/svg"
   xmlns="http://www.w3.org/2000/svg"
   xmlns:sodipodi="http://sodipodi.sourceforge.net/DTD/sodipodi-0.dtd"
   xmlns:inkscape="http://www.inkscape.org/namespaces/inkscape"
   version="1.1"
   id="Capa_1"
   x="0px"
   y="0px"
   width="120"
   height="120"
   viewBox="0 0 120 120"
   style="enable-background:new 0 0 120 120;"
   xml:space="preserve"
   inkscape:version="0.91 r13725"
   sodipodi:docname="label.svg"><metadata
     id="metadata41"><rdf:RDF><cc:Work
         rdf:about=""><dc:format>image/svg+xml</dc:format><dc:type
           rdf:resource="http://purl.org/dc/dcmitype/StillImage" /></cc:Work></rdf:RDF></metadata><defs
     id="defs39" /><sodipodi:namedview
     pagecolor="#ffffff"
     bordercolor="#666666"
     borderopacity="1"
     objecttolerance="10"
     gridtolerance="10"
     guidetolerance="10"
     inkscape:pageopacity="0"
     inkscape:pageshadow="2"
     inkscape:window-width="996"
     inkscape:window-height="735"
     id="namedview37"
     showgrid="false"
     inkscape:zoom="1.9666667"
     inkscape:cx="60"
     inkscape:cy="60"
     inkscape:window-x="277"
     inkscape:window-y="113"
     inkscape:window-maximized="0"
     inkscape:current-layer="Capa_1" /><g
     id="g3"
     transform="matrix(4.3671376,0,0,4.3671376,0.00136261,-0.00200453)"><path
       d="M 27.095,12.917 13.443,0.782 C 12.943,0.338 11.987,-0.013 11.319,0.001 L 1.454,0.213 C 0.786,0.227 0.227,0.786 0.213,1.454 L 0,11.319 c -0.014,0.668 0.337,1.624 0.781,2.123 l 12.135,13.652 c 0.444,0.5 1.194,0.521 1.667,0.048 l 12.56,-12.561 c 0.472,-0.471 0.451,-1.222 -0.048,-1.664 z M 6.684,6.684 c -0.712,0.712 -1.867,0.712 -2.579,0 -0.712,-0.711 -0.711,-1.866 0,-2.578 0.711,-0.712 1.865,-0.712 2.577,0 0.714,0.712 0.714,1.867 0.002,2.578 z m 13.14,8.06 -4.557,0 0,4.795 -2.136,0 0,-4.795 -4.556,0 0,-2.048 4.557,0 0,-4.752 2.136,0 0,4.752 4.557,0 0,2.048 z"
       id="path5"
       inkscape:connector-curvature="0" /></g><g
     id="g7" /><g
     id="g9" /><g
     id="g11" /><g
     id="g13" /><g
     id="g15" /><g
     id="g17" /><g
     id="g19" /><g
     id="g21" /><g
     id="g23" /><g
     id="g25" /><g
     id="g27" /><g
     id="g29" /><g
     id="g31" /><g
     id="g33" /><g
     id="g35" /></svg>