<?xml version="1.0" encoding="utf-8"?>
<!-- Svg Vector Icons : http://www.onlinewebfonts.com/icon -->
<!DOCTYPE svg PUBLIC "-//W3C//DTD SVG 1.1//EN" "http://www.w3.org/Graphics/SVG/1.1/DTD/svg11.dtd">
<svg version="1.1" xmlns="http://www.w3.org/2000/svg" xmlns:xlink="http://www.w3.org/1999/xlink" x="0px" y="0px" viewBox="0 0 1000 1000" enable-background="new 0 0 1000 1000" xml:space="preserve">
    <metadata> Svg Vector Icons : http://www.onlinewebfonts.com/icon </metadata>
    <g>
        <g transform="translate(0.000000,511.000000) scale(0.100000,-0.100000)">
            <path d="M2744.5,1610.6L100-1033.9l1503.2-1503.3L3104-4037.9L5756-1385.8l2649.6,2649.6l-55.3,636c-75.4,842.1-52.8,764.2-218.7,766.7c-374.6,10-693.8,331.8-698.8,706.4c-2.5,243.8,120.7,502.8,284.1,600.8c42.7,22.6,75.4,50.3,75.4,57.8c0,10.1-2332.8,233.8-2388.1,226.2C5396.6,4257.7,4200,3066.1,2744.5,1610.6z M5994.9,3000.8l98.1-100.6l-344.4-346.9c-188.5-188.5-344.4-357-344.4-369.5s60.3-82.9,130.7-155.9l133.2-133.2l331.8,331.8l334.3,331.8l100.5-98c55.3-52.8,100.6-110.6,100.6-123.2c0-15.1-143.3-170.9-319.3-346.9l-321.8-321.8l176-176l176-176l369.5,369.5l372.1,369.5l100.5-98c55.3-52.8,100.5-110.6,100.5-125.7c0-12.6-221.2-246.3-490.2-515.3l-490.2-490.2l-658.6,661.1l-661.1,658.6l477.6,477.6c261.4,261.4,490.2,477.6,502.8,477.6C5884.2,3101.3,5942.1,3056.1,5994.9,3000.8z M4798.3,1741.4l57.8-77.9L4509.2,1314l-349.4-349.4l145.8-143.3l143.3-145.8l321.8,321.8c176,176,331.8,319.3,346.9,319.3c12.6,0,70.4-45.2,123.2-100.6l98-100.6l-331.8-334.3l-331.8-331.8l176-176l176-176l364.5,364.5l364.5,362l113.1-110.6l113.1-110.6l-482.7-485.2c-266.4-266.5-495.2-485.2-510.3-485.2c-32.7,0-1294.6,1261.9-1294.6,1294.6c0,12.6,211.2,236.3,470.1,495.2c444.9,444.9,470.1,467.6,522.9,432.4C4715.3,1836.9,4765.6,1784.1,4798.3,1741.4z M3604.2,436.7c95.5-35.2,269-203.6,309.2-294.1c50.3-120.7,40.2-284.1-22.6-412.3L3833-380.3h201.1c196.1,0,791.8-120.7,791.8-160.9c0-10.1-65.4-80.4-145.8-160.9l-143.3-143.3l-419.8,77.9c-228.8,45.2-444.9,72.9-477.6,65.3c-32.7-10.1-105.6-55.3-158.4-103l-100.6-88l276.5-276.5l276.5-279l-133.2-130.7l-130.7-133.2l-661.1,661.1l-658.6,661.1l357,349.4c419.8,414.8,545.5,502.8,713.9,502.8C3486.1,461.8,3569,451.8,3604.2,436.7z M2254.3-724.7l108.1-105.6L2043.2-1152l-321.8-321.8l158.4-155.9l155.9-158.4l276.5,276.5l276.5,276.5l105.6-108.1l108.1-105.6l-276.5-276.5l-276.5-276.5l284.1-284.1l281.6-284L2694.2-2688c-65.4-65.4-130.7-118.1-143.3-118.1c-32.7,0-1294.6,1261.9-1294.6,1294.6c0,22.6,854.7,892.4,879.8,892.4C2141.2-619.1,2196.5-666.9,2254.3-724.7z"/>
            <path d="M3063.8-133.9l-226.2-218.7L3000.9-516L3166.8-682l191.1,188.5c216.2,213.7,271.5,304.2,248.9,394.7c-22.6,98-133.2,183.5-231.3,183.5C3302.6,84.8,3257.3,52.1,3063.8-133.9z"/>
            <path d="M8558.9,3664.4c-346.9-32.7-766.7-120.7-859.7-181c-118.1-72.9-120.6-261.4-7.5-362c88-80.4,155.9-85.5,351.9-30.2c221.2,60.3,736.5,75.4,910,25.1c276.5-80.4,382.1-226.2,379.6-517.8c-2.5-236.3-80.4-475.1-284.1-879.8c-82.9-160.9-150.8-324.3-150.8-362c0-42.7,27.6-98,72.9-143.3c95.5-95.5,218.7-98,324.3-10c90.5,75.4,397.2,686.3,492.7,975.3c256.4,784.3,70.4,1274.5-543,1435.4C9101.9,3651.9,8722.3,3679.5,8558.9,3664.4z"/>
        </g>
    </g>
</svg>