<?xml version="1.0" encoding="iso-8859-1"?>
<!-- Generator: Adobe Illustrator 16.0.0, SVG Export Plug-In . SVG Version: 6.00 Build 0)  -->
<!DOCTYPE svg PUBLIC "-//W3C//DTD SVG 1.1//EN" "http://www.w3.org/Graphics/SVG/1.1/DTD/svg11.dtd">
<svg version="1.1" id="Capa_1" xmlns="http://www.w3.org/2000/svg" xmlns:xlink="http://www.w3.org/1999/xlink" x="0px" y="0px"
	 width="487.381px" height="487.381px" viewBox="0 0 487.381 487.381" style="enable-background:new 0 0 487.381 487.381;"
	 xml:space="preserve">
    <g>
        <g>
            <path d="M400.1,100.918h-9.871V11.646C390.229,5.215,385.014,0,378.582,0H108.804c-6.436,0-11.646,5.215-11.646,11.646v89.271
			h-9.877c-38.523,0-69.871,31.344-69.871,69.871v144.258c0,38.528,31.348,69.87,69.871,69.87h9.877v90.818
			c0,6.432,5.21,11.646,11.646,11.646h269.778c6.432,0,11.646-5.215,11.646-11.646v-90.818h9.871
			c38.523,0,69.871-31.342,69.871-69.87V170.789C469.971,132.261,438.623,100.918,400.1,100.918z M120.449,23.291h246.489v77.627
			H120.449V23.291z M366.938,464.092H120.449V320.465h246.489V464.092z M446.682,315.046c0,25.687-20.896,46.581-46.582,46.581
			h-9.871v-41.162h25.186c6.436,0,11.645-5.214,11.645-11.646c0-6.43-5.209-11.645-11.645-11.645h-36.832H108.804H75.421
			c-6.431,0-11.646,5.215-11.646,11.645c0,6.433,5.215,11.646,11.646,11.646h21.737v41.162h-9.877
			c-25.685,0-46.581-20.896-46.581-46.581V170.789c0-25.685,20.896-46.58,46.581-46.58h21.522H378.58h21.52
			c25.684,0,46.58,20.896,46.58,46.58v144.257H446.682z"/>
            <path d="M378.582,170.646c-8.771,0-15.893,7.119-15.893,15.893s7.119,15.893,15.893,15.893c8.775,0,15.895-7.118,15.895-15.893
			C394.475,177.765,387.357,170.646,378.582,170.646z"/>
            <path d="M147.618,360.734h192.146c6.432,0,11.646-5.213,11.646-11.646c0-6.43-5.215-11.645-11.646-11.645H147.618
			c-6.431,0-11.646,5.215-11.646,11.645C135.972,355.521,141.187,360.734,147.618,360.734z"/>
            <path d="M147.618,403.926h192.146c6.432,0,11.646-5.217,11.646-11.646c0-6.432-5.215-11.645-11.646-11.645H147.618
			c-6.431,0-11.646,5.213-11.646,11.645S141.187,403.926,147.618,403.926z"/>
        </g>
    </g>
    <g>
    </g>
    <g>
    </g>
    <g>
    </g>
    <g>
    </g>
    <g>
    </g>
    <g>
    </g>
    <g>
    </g>
    <g>
    </g>
    <g>
    </g>
    <g>
    </g>
    <g>
    </g>
    <g>
    </g>
    <g>
    </g>
    <g>
    </g>
    <g>
    </g>
</svg>
