<svg xmlns="http://www.w3.org/2000/svg" xmlns:xlink="http://www.w3.org/1999/xlink" xmlns:lucid="lucid" width="487" height="385">
    <g transform="translate(-655 -323)" lucid:page-tab-id="0_0">
        <path d="M905 382.5c0 15.2-12.3 27.5-27.5 27.5S850 397.7 850 382.5s12.3-27.5 27.5-27.5 27.5 12.3 27.5 27.5z" stroke="#000" fill="#cfc"/>
        <use xlink:href="#a" transform="matrix(1,0,0,1,870,355) translate(2.25 31.1)"/>
        <path d="M877.5 410.5l-.02.98-.06.96-.1.94-.14.93-.17.93-.2.9-.26.9-.3.92-.33.9-.38.92-.43.93-.5.94-.56.96-.63 1-.7 1-.78 1.05-.9 1.08-1.02 1.14-1.17 1.18-1.34 1.26-1.56 1.35-1.8 1.43-2.13 1.54-2.54 1.7-3.1 1.86-3.83 2.1-4.92 2.44-6.6 2.94-9.78 3.85-20.5 7.06-41.94 13.93-9.77 3.84-6.6 2.94-4.93 2.43-3.84 2.12-3.1 1.87-2.54 1.68-2.14 1.54-1.8 1.43-1.55 1.34-1.33 1.25-1.17 1.18-1.02 1.14-.8.96" stroke="#000" fill="none"/>
        <path d="M877.97 410.66l-.94-.32.12-.37.35.03.7-.04zM732.4 496.23l-9.34 11.75.64-14.98z"/>
        <path d="M733.2 496l-10.7 13.5.73-17.2zm-9.57 10.47l7.94-10-7.4-2.77z"/>
        <path d="M750 537.5c0 15.2-12.3 27.5-27.5 27.5S695 552.7 695 537.5s12.3-27.5 27.5-27.5 27.5 12.3 27.5 27.5z" stroke="#000" fill="#cce5ff"/>
        <use xlink:href="#b" transform="matrix(1,0,0,1,715,510) translate(2.5 31.1)"/>
        <path d="M985 537.5c0 15.2-12.3 27.5-27.5 27.5S930 552.7 930 537.5s12.3-27.5 27.5-27.5 27.5 12.3 27.5 27.5z" stroke="#000" fill="#cce5ff"/>
        <use xlink:href="#c" transform="matrix(1,0,0,1,950,510) translate(3 31.1)"/>
        <path d="M860 537.5c0 15.2-12.3 27.5-27.5 27.5S805 552.7 805 537.5s12.3-27.5 27.5-27.5 27.5 12.3 27.5 27.5z" stroke="#000" fill="#cce5ff"/>
        <use xlink:href="#d" transform="matrix(1,0,0,1,825,510) translate(2.5 31.1)"/>
        <path d="M1102.5 540c0 15.2-12.3 27.5-27.5 27.5s-27.5-12.3-27.5-27.5 12.3-27.5 27.5-27.5 27.5 12.3 27.5 27.5z" stroke="#000" fill="#e6ffcc"/>
        <use xlink:href="#e" transform="matrix(1,0,0,1,1067.5,512.5) translate(4.525 31.1)"/>
        <path d="M877.5 410.5l.02.8.05.8.08.8.1.77.16.78.2.77.2.77.26.76.3.78.32.8.38.8.43.8.47.85.55.85.62.9.7.92.8.96.9 1 1.04 1.06 1.2 1.1 1.38 1.2 1.62 1.3 1.9 1.37 2.28 1.5 2.75 1.68 3.4 1.85 4.25 2.1 5.5 2.46 7.45 2.93 10.82 3.74 18.93 5.66 78.33 21.36 10.82 3.75 7.44 2.94 5.5 2.45 4.26 2.1 3.4 1.85 2.74 1.67 2.27 1.5 1.92 1.4 1.62 1.27 1.4 1.2 1.18 1.1 1.04 1.07.06.07" stroke="#000" fill="none"/>
        <path d="M877.5 410l.33-.02.13.34-.92.37-.3-.77zM1074.35 510.52l-9.95-11.23 8.5-3.7z"/>
        <path d="M1075 512l-11.43-12.9 9.76-4.25zm-9.77-12.53l8.48 9.56-1.23-12.7z"/>
        <path d="M1102.5 655c0 15.2-12.3 27.5-27.5 27.5s-27.5-12.3-27.5-27.5 12.3-27.5 27.5-27.5 27.5 12.3 27.5 27.5z" stroke="#000" fill="#cce5ff"/>
        <use xlink:href="#b" transform="matrix(1,0,0,1,1067.5,627.5) translate(2.5 31.1)"/>
        <path d="M1075 568v42.38" stroke="#000" fill="none"/>
        <path d="M1075 567.5l.5-.03v.53h-1v-.55zM1075 625.38l-4.64-14.26h9.28z"/>
        <path d="M1075 627l-5.32-16.38h10.64zm-3.95-15.38l3.95 12.14 3.95-12.14z"/>
        <path d="M877.5 410.5l-.1 3.92-.27 3.54-.4 3.27-.55 3.03-.66 2.86-.78 2.72-.9 2.63-1.02 2.57-1.17 2.56-1.34 2.6-1.57 2.67-1.9 2.9-2.4 3.28-3.55 4.35-15.3 17.55-2.4 3.3-1.9 2.88-1.6 2.68-1.33 2.6-1.17 2.56-1.03 2.57-.9 2.63-.77 2.72-.04.16" stroke="#000" fill="none"/>
        <path d="M877.5 410l.56-.03-.06.6-1-.12.05-.5zM838.97 494.27l-6.28 13.62-2.94-14.72z"/>
        <path d="M839.7 493.85l-7.2 15.65-3.37-16.9zm-6.82 12.44l5.34-11.62-7.84-.92z"/>
        <path d="M877.5 410.5l.06 2.25.16 2.14.26 2.02.34 1.95.44 1.9.53 1.84.6 1.8.7 1.8.83 1.78.93 1.78 1.05 1.8 1.22 1.84 1.4 1.9 1.6 1.97 1.87 2.1 2.23 2.23 2.74 2.5 3.5 2.86 4.9 3.6 9.5 6.26 19.77 12.62 4.9 3.6 3.5 2.87 2.73 2.5 2.24 2.24 1.9 2.1 1.6 1.96 1.38 1.9 1.2 1.84 1.06 1.8.93 1.78.6 1.32" stroke="#000" fill="none"/>
        <path d="M877.5 410l.4-.02.1.43-1 .2-.1-.66zM957.17 507.9l-7.4-13.03 9.07-1.86z"/>
        <path d="M957.5 509.5l-8.52-14.98 10.43-2.14zm-6.97-14.27l6.32 11.1 1.42-12.7z"/>
        <defs>
            <path d="M118-107v75H92v-75H18v-26h74v-75h26v75h74v26h-74" id="f"/>
            <use transform="matrix(0.05,0,0,0.05,0,0)" xlink:href="#f" id="a"/>
            <path d="M141-36C126-15 110 5 73 4 37 3 15-17 15-53c-1-64 63-63 125-63 3-35-9-54-41-54-24 1-41 7-42 31l-33-3c5-37 33-52 76-52 45 0 72 20 72 64v82c-1 20 7 32 28 27v20c-31 9-61-2-59-35zM48-53c0 20 12 33 32 33 41-3 63-29 60-74-43 2-92-5-92 41" id="g"/>
            <use transform="matrix(0.05,0,0,0.05,0,0)" xlink:href="#g" id="b"/>
            <path d="M96-169c-40 0-48 33-48 73s9 75 48 75c24 0 41-14 43-38l32 2c-6 37-31 61-74 61-59 0-76-41-82-99-10-93 101-131 147-64 4 7 5 14 7 22l-32 3c-4-21-16-35-41-35" id="h"/>
            <use transform="matrix(0.05,0,0,0.05,0,0)" xlink:href="#h" id="c"/>
            <path d="M115-194c53 0 69 39 70 98 0 66-23 100-70 100C84 3 66-7 56-30L54 0H23l1-261h32v101c10-23 28-34 59-34zm-8 174c40 0 45-34 45-75 0-40-5-75-45-74-42 0-51 32-51 76 0 43 10 73 51 73" id="i"/>
            <use transform="matrix(0.05,0,0,0.05,0,0)" xlink:href="#i" id="d"/>
            <path d="M16-82v-28h88v28H16" id="j"/>
            <use transform="matrix(0.05,0,0,0.05,0,0)" xlink:href="#j" id="e"/>
        </defs>
    </g>
</svg>