<svg xmlns="http://www.w3.org/2000/svg" xmlns:xlink="http://www.w3.org/1999/xlink" xmlns:lucid="lucid" width="912.95" height="950">
    <g transform="translate(-238.93386005223795 -160)" lucid:page-tab-id="0_0">
        <path d="M630 660c11.05 0 20 8.95 20 20v40c0 11.05-8.95 20-20 20H330c-11.05 0-20-8.95-20-20v-40c0-11.05 8.95-20 20-20z" fill="#ffe6cc"/>
        <path d="M631 660c0 .55-.45 1-1 1s-1-.45-1-1 .45-1 1-1 1 .45 1 1zm7.6 1.66c0 .55-.45 1-1 1s-1-.45-1-1 .45-1 1-1 1 .45 1 1zm6.5 4.25c0 .56-.46 1-1 1-.57 0-1-.44-1-1 0-.54.43-1 1-1 .54 0 1 .46 1 1zm4.27 6.5c0 .55-.45 1-1 1s-1-.45-1-1 .45-1 1-1 1 .45 1 1zM651 680c0 .55-.45 1-1 1s-1-.45-1-1 .45-1 1-1 1 .45 1 1zm0 8c0 .55-.45 1-1 1s-1-.45-1-1 .45-1 1-1 1 .45 1 1zm0 8c0 .55-.45 1-1 1s-1-.45-1-1 .45-1 1-1 1 .45 1 1zm0 8c0 .55-.45 1-1 1s-1-.45-1-1 .45-1 1-1 1 .45 1 1zm0 8c0 .55-.45 1-1 1s-1-.45-1-1 .45-1 1-1 1 .45 1 1zm0 8c0 .55-.45 1-1 1s-1-.45-1-1 .45-1 1-1 1 .45 1 1zm-1.66 7.6c0 .55-.45 1-1 1s-1-.45-1-1 .45-1 1-1 1 .45 1 1zm-4.25 6.5c0 .54-.46 1-1 1-.56 0-1-.46-1-1 0-.57.44-1 1-1 .54 0 1 .43 1 1zm-6.5 4.27c0 .55-.45 1-1 1s-1-.45-1-1 .45-1 1-1 1 .45 1 1zM631 740c0 .55-.45 1-1 1s-1-.45-1-1 .45-1 1-1 1 .45 1 1zm-7.9 0c0 .55-.44 1-1 1-.55 0-1-.45-1-1s.45-1 1-1c.56 0 1 .45 1 1zm-7.9 0c0 .55-.44 1-1 1-.54 0-1-.45-1-1s.46-1 1-1c.56 0 1 .45 1 1zm-7.88 0c0 .55-.45 1-1 1-.56 0-1-.45-1-1s.44-1 1-1c.55 0 1 .45 1 1zm-7.9 0c0 .55-.45 1-1 1s-1-.45-1-1 .45-1 1-1 1 .45 1 1zm-7.9 0c0 .55-.44 1-1 1-.55 0-1-.45-1-1s.45-1 1-1c.56 0 1 .45 1 1zm-7.9 0c0 .55-.44 1-1 1-.54 0-1-.45-1-1s.46-1 1-1c.56 0 1 .45 1 1zm-7.88 0c0 .55-.45 1-1 1-.56 0-1-.45-1-1s.44-1 1-1c.55 0 1 .45 1 1zm-7.9 0c0 .55-.45 1-1 1s-1-.45-1-1 .45-1 1-1 1 .45 1 1zm-7.9 0c0 .55-.44 1-1 1-.54 0-1-.45-1-1s.46-1 1-1c.56 0 1 .45 1 1zm-7.9 0c0 .55-.44 1-1 1-.54 0-1-.45-1-1s.46-1 1-1c.56 0 1 .45 1 1zm-7.88 0c0 .55-.45 1-1 1s-1-.45-1-1 .45-1 1-1 1 .45 1 1zm-7.9 0c0 .55-.44 1-1 1-.55 0-1-.45-1-1s.45-1 1-1c.56 0 1 .45 1 1zm-7.9 0c0 .55-.44 1-1 1-.54 0-1-.45-1-1s.46-1 1-1c.56 0 1 .45 1 1zm-7.9 0c0 .55-.43 1-1 1-.54 0-1-.45-1-1s.46-1 1-1c.57 0 1 .45 1 1zm-7.88 0c0 .55-.45 1-1 1s-1-.45-1-1 .45-1 1-1 1 .45 1 1zm-7.9 0c0 .55-.44 1-1 1-.55 0-1-.45-1-1s.45-1 1-1c.56 0 1 .45 1 1zm-7.9 0c0 .55-.44 1-1 1-.54 0-1-.45-1-1s.46-1 1-1c.56 0 1 .45 1 1zm-7.9 0c0 .55-.43 1-1 1-.54 0-1-.45-1-1s.46-1 1-1c.57 0 1 .45 1 1zm-7.88 0c0 .55-.45 1-1 1s-1-.45-1-1 .45-1 1-1 1 .45 1 1zm-7.9 0c0 .55-.44 1-1 1-.55 0-1-.45-1-1s.45-1 1-1c.56 0 1 .45 1 1zm-7.9 0c0 .55-.44 1-1 1-.54 0-1-.45-1-1s.46-1 1-1c.56 0 1 .45 1 1zm-7.88 0c0 .55-.45 1-1 1-.56 0-1-.45-1-1s.44-1 1-1c.55 0 1 .45 1 1zm-7.9 0c0 .55-.45 1-1 1s-1-.45-1-1 .45-1 1-1 1 .45 1 1zm-7.9 0c0 .55-.44 1-1 1-.55 0-1-.45-1-1s.45-1 1-1c.56 0 1 .45 1 1zm-7.9 0c0 .55-.44 1-1 1-.54 0-1-.45-1-1s.46-1 1-1c.56 0 1 .45 1 1zm-7.88 0c0 .55-.45 1-1 1-.56 0-1-.45-1-1s.44-1 1-1c.55 0 1 .45 1 1zm-7.9 0c0 .55-.45 1-1 1s-1-.45-1-1 .45-1 1-1 1 .45 1 1zm-7.9 0c0 .55-.44 1-1 1-.54 0-1-.45-1-1s.46-1 1-1c.56 0 1 .45 1 1zm-7.9 0c0 .55-.44 1-1 1-.54 0-1-.45-1-1s.46-1 1-1c.56 0 1 .45 1 1zm-7.88 0c0 .55-.45 1-1 1s-1-.45-1-1 .45-1 1-1 1 .45 1 1zm-7.9 0c0 .55-.44 1-1 1-.55 0-1-.45-1-1s.45-1 1-1c.56 0 1 .45 1 1zm-7.9 0c0 .55-.44 1-1 1-.54 0-1-.45-1-1s.46-1 1-1c.56 0 1 .45 1 1zm-7.9 0c0 .55-.43 1-1 1-.54 0-1-.45-1-1s.46-1 1-1c.57 0 1 .45 1 1zm-7.88 0c0 .55-.45 1-1 1s-1-.45-1-1 .45-1 1-1 1 .45 1 1zm-7.9 0c0 .55-.44 1-1 1-.55 0-1-.45-1-1s.45-1 1-1c.56 0 1 .45 1 1zm-7.9 0c0 .55-.44 1-1 1-.54 0-1-.45-1-1s.46-1 1-1c.56 0 1 .45 1 1zm-7.9 0c0 .55-.43 1-1 1-.54 0-1-.45-1-1s.46-1 1-1c.57 0 1 .45 1 1zm-7.88 0c0 .55-.45 1-1 1s-1-.45-1-1 .45-1 1-1 1 .45 1 1zm-7.6-1.66c0 .55-.45 1-1 1s-1-.45-1-1 .45-1 1-1 1 .45 1 1zm-6.5-4.25c0 .54-.43 1-1 1-.54 0-1-.46-1-1 0-.56.46-1 1-1 .57 0 1 .44 1 1zm-4.27-6.5c0 .55-.45 1-1 1s-1-.45-1-1 .45-1 1-1 1 .45 1 1zM311 720c0 .55-.45 1-1 1s-1-.45-1-1 .45-1 1-1 1 .45 1 1zm0-8c0 .55-.45 1-1 1s-1-.45-1-1 .45-1 1-1 1 .45 1 1zm0-8c0 .55-.45 1-1 1s-1-.45-1-1 .45-1 1-1 1 .45 1 1zm0-8c0 .55-.45 1-1 1s-1-.45-1-1 .45-1 1-1 1 .45 1 1zm0-8c0 .55-.45 1-1 1s-1-.45-1-1 .45-1 1-1 1 .45 1 1zm0-8c0 .55-.45 1-1 1s-1-.45-1-1 .45-1 1-1 1 .45 1 1zm1.66-7.6c0 .55-.45 1-1 1s-1-.45-1-1 .45-1 1-1 1 .45 1 1zm4.25-6.5c0 .57-.44 1-1 1-.54 0-1-.43-1-1 0-.54.46-1 1-1 .56 0 1 .46 1 1zm6.5-4.27c0 .55-.45 1-1 1s-1-.45-1-1 .45-1 1-1 1 .45 1 1zM331 660c0 .55-.45 1-1 1s-1-.45-1-1 .45-1 1-1 1 .45 1 1zm7.9 0c0 .55-.45 1-1 1-.56 0-1-.45-1-1s.44-1 1-1c.55 0 1 .45 1 1zm7.9 0c0 .55-.46 1-1 1-.56 0-1-.45-1-1s.44-1 1-1c.54 0 1 .45 1 1zm7.88 0c0 .55-.44 1-1 1-.55 0-1-.45-1-1s.45-1 1-1c.56 0 1 .45 1 1zm7.9 0c0 .55-.45 1-1 1s-1-.45-1-1 .45-1 1-1 1 .45 1 1zm7.9 0c0 .55-.45 1-1 1-.56 0-1-.45-1-1s.44-1 1-1c.55 0 1 .45 1 1zm7.9 0c0 .55-.46 1-1 1-.56 0-1-.45-1-1s.44-1 1-1c.54 0 1 .45 1 1zm7.88 0c0 .55-.44 1-1 1-.55 0-1-.45-1-1s.45-1 1-1c.56 0 1 .45 1 1zm7.9 0c0 .55-.45 1-1 1s-1-.45-1-1 .45-1 1-1 1 .45 1 1zm7.9 0c0 .55-.46 1-1 1-.56 0-1-.45-1-1s.44-1 1-1c.54 0 1 .45 1 1zm7.9 0c0 .55-.46 1-1 1-.56 0-1-.45-1-1s.44-1 1-1c.54 0 1 .45 1 1zm7.88 0c0 .55-.45 1-1 1s-1-.45-1-1 .45-1 1-1 1 .45 1 1zm7.9 0c0 .55-.45 1-1 1-.56 0-1-.45-1-1s.44-1 1-1c.55 0 1 .45 1 1zm7.9 0c0 .55-.46 1-1 1-.56 0-1-.45-1-1s.44-1 1-1c.54 0 1 .45 1 1zm7.9 0c0 .55-.46 1-1 1-.57 0-1-.45-1-1s.43-1 1-1c.54 0 1 .45 1 1zm7.88 0c0 .55-.45 1-1 1s-1-.45-1-1 .45-1 1-1 1 .45 1 1zm7.9 0c0 .55-.45 1-1 1-.56 0-1-.45-1-1s.44-1 1-1c.55 0 1 .45 1 1zm7.9 0c0 .55-.46 1-1 1-.56 0-1-.45-1-1s.44-1 1-1c.54 0 1 .45 1 1zm7.9 0c0 .55-.46 1-1 1-.57 0-1-.45-1-1s.43-1 1-1c.54 0 1 .45 1 1zm7.88 0c0 .55-.45 1-1 1s-1-.45-1-1 .45-1 1-1 1 .45 1 1zm7.9 0c0 .55-.45 1-1 1-.56 0-1-.45-1-1s.44-1 1-1c.55 0 1 .45 1 1zm7.9 0c0 .55-.46 1-1 1-.56 0-1-.45-1-1s.44-1 1-1c.54 0 1 .45 1 1zm7.88 0c0 .55-.44 1-1 1-.55 0-1-.45-1-1s.45-1 1-1c.56 0 1 .45 1 1zm7.9 0c0 .55-.45 1-1 1s-1-.45-1-1 .45-1 1-1 1 .45 1 1zm7.9 0c0 .55-.45 1-1 1-.56 0-1-.45-1-1s.44-1 1-1c.55 0 1 .45 1 1zm7.9 0c0 .55-.46 1-1 1-.56 0-1-.45-1-1s.44-1 1-1c.54 0 1 .45 1 1zm7.88 0c0 .55-.44 1-1 1-.55 0-1-.45-1-1s.45-1 1-1c.56 0 1 .45 1 1zm7.9 0c0 .55-.45 1-1 1s-1-.45-1-1 .45-1 1-1 1 .45 1 1zm7.9 0c0 .55-.46 1-1 1-.56 0-1-.45-1-1s.44-1 1-1c.54 0 1 .45 1 1zm7.9 0c0 .55-.46 1-1 1-.56 0-1-.45-1-1s.44-1 1-1c.54 0 1 .45 1 1zm7.88 0c0 .55-.45 1-1 1s-1-.45-1-1 .45-1 1-1 1 .45 1 1zm7.9 0c0 .55-.45 1-1 1-.56 0-1-.45-1-1s.44-1 1-1c.55 0 1 .45 1 1zm7.9 0c0 .55-.46 1-1 1-.56 0-1-.45-1-1s.44-1 1-1c.54 0 1 .45 1 1zm7.9 0c0 .55-.46 1-1 1-.57 0-1-.45-1-1s.43-1 1-1c.54 0 1 .45 1 1zm7.88 0c0 .55-.45 1-1 1s-1-.45-1-1 .45-1 1-1 1 .45 1 1zm7.9 0c0 .55-.45 1-1 1-.56 0-1-.45-1-1s.44-1 1-1c.55 0 1 .45 1 1zm7.9 0c0 .55-.46 1-1 1-.56 0-1-.45-1-1s.44-1 1-1c.54 0 1 .45 1 1zm7.9 0c0 .55-.46 1-1 1-.57 0-1-.45-1-1s.43-1 1-1c.54 0 1 .45 1 1zm7.88 0c0 .55-.45 1-1 1s-1-.45-1-1 .45-1 1-1 1 .45 1 1z"/>
        <path d="M331.88 665c0-2.76 2.24-5 5-5h230c2.77 0 5 2.24 5 5v43.33c0 2.76-2.23 5-5 5h-230c-2.76 0-5-2.24-5-5z" fill="none"/>
        <use xlink:href="#a" transform="matrix(1,0,0,1,331.8848,660) translate(0 32.3333333333334)"/>
        <path d="M331.88 711.67c0-2.76 2.24-5 5-5h230c2.77 0 5 2.24 5 5v30c0 2.76-2.23 5-5 5h-230c-2.76 0-5-2.24-5-5z" fill="none"/>
        <use xlink:href="#b" transform="matrix(1,0,0,1,331.8848,706.66666666667) translate(0 25.3333333333334)"/>
        <path d="M1100 180c11.05 0 20 8.95 20 20v40c0 11.05-8.95 20-20 20H800c-11.05 0-20-8.95-20-20v-40c0-11.05 8.95-20 20-20z" fill="#ffe6cc"/>
        <path d="M1101 180c0 .55-.45 1-1 1s-1-.45-1-1 .45-1 1-1 1 .45 1 1zm7.6 1.66c0 .55-.45 1-1 1s-1-.45-1-1 .45-1 1-1 1 .45 1 1zm6.5 4.25c0 .56-.46 1-1 1-.57 0-1-.44-1-1 0-.54.43-1 1-1 .54 0 1 .46 1 1zm4.27 6.5c0 .55-.45 1-1 1s-1-.45-1-1 .45-1 1-1 1 .45 1 1zm1.63 7.6c0 .55-.45 1-1 1s-1-.45-1-1 .45-1 1-1 1 .45 1 1zm0 8c0 .55-.45 1-1 1s-1-.45-1-1 .45-1 1-1 1 .45 1 1zm0 8c0 .55-.45 1-1 1s-1-.45-1-1 .45-1 1-1 1 .45 1 1zm0 8c0 .55-.45 1-1 1s-1-.45-1-1 .45-1 1-1 1 .45 1 1zm0 8c0 .55-.45 1-1 1s-1-.45-1-1 .45-1 1-1 1 .45 1 1zm0 8c0 .55-.45 1-1 1s-1-.45-1-1 .45-1 1-1 1 .45 1 1zm-1.66 7.6c0 .55-.45 1-1 1s-1-.45-1-1 .45-1 1-1 1 .45 1 1zm-4.25 6.5c0 .54-.46 1-1 1-.56 0-1-.46-1-1 0-.57.44-1 1-1 .54 0 1 .43 1 1zm-6.5 4.27c0 .55-.45 1-1 1s-1-.45-1-1 .45-1 1-1 1 .45 1 1zM1101 260c0 .55-.45 1-1 1s-1-.45-1-1 .45-1 1-1 1 .45 1 1zm-7.9 0c0 .55-.44 1-1 1-.55 0-1-.45-1-1s.45-1 1-1c.56 0 1 .45 1 1zm-7.9 0c0 .55-.44 1-1 1-.54 0-1-.45-1-1s.46-1 1-1c.56 0 1 .45 1 1zm-7.88 0c0 .55-.45 1-1 1-.56 0-1-.45-1-1s.44-1 1-1c.55 0 1 .45 1 1zm-7.9 0c0 .55-.45 1-1 1s-1-.45-1-1 .45-1 1-1 1 .45 1 1zm-7.9 0c0 .55-.44 1-1 1-.55 0-1-.45-1-1s.45-1 1-1c.56 0 1 .45 1 1zm-7.9 0c0 .55-.44 1-1 1-.54 0-1-.45-1-1s.46-1 1-1c.56 0 1 .45 1 1zm-7.88 0c0 .55-.45 1-1 1-.56 0-1-.45-1-1s.44-1 1-1c.55 0 1 .45 1 1zm-7.9 0c0 .55-.45 1-1 1s-1-.45-1-1 .45-1 1-1 1 .45 1 1zm-7.9 0c0 .55-.44 1-1 1-.54 0-1-.45-1-1s.46-1 1-1c.56 0 1 .45 1 1zm-7.9 0c0 .55-.44 1-1 1-.54 0-1-.45-1-1s.46-1 1-1c.56 0 1 .45 1 1zm-7.88 0c0 .55-.45 1-1 1s-1-.45-1-1 .45-1 1-1 1 .45 1 1zm-7.9 0c0 .55-.44 1-1 1-.55 0-1-.45-1-1s.45-1 1-1c.56 0 1 .45 1 1zm-7.9 0c0 .55-.44 1-1 1-.54 0-1-.45-1-1s.46-1 1-1c.56 0 1 .45 1 1zm-7.9 0c0 .55-.43 1-1 1-.54 0-1-.45-1-1s.46-1 1-1c.57 0 1 .45 1 1zm-7.88 0c0 .55-.45 1-1 1s-1-.45-1-1 .45-1 1-1 1 .45 1 1zm-7.9 0c0 .55-.44 1-1 1-.55 0-1-.45-1-1s.45-1 1-1c.56 0 1 .45 1 1zm-7.9 0c0 .55-.44 1-1 1-.54 0-1-.45-1-1s.46-1 1-1c.56 0 1 .45 1 1zm-7.9 0c0 .55-.43 1-1 1-.54 0-1-.45-1-1s.46-1 1-1c.57 0 1 .45 1 1zm-7.88 0c0 .55-.45 1-1 1s-1-.45-1-1 .45-1 1-1 1 .45 1 1zm-7.9 0c0 .55-.44 1-1 1-.55 0-1-.45-1-1s.45-1 1-1c.56 0 1 .45 1 1zm-7.9 0c0 .55-.44 1-1 1-.54 0-1-.45-1-1s.46-1 1-1c.56 0 1 .45 1 1zm-7.88 0c0 .55-.45 1-1 1-.56 0-1-.45-1-1s.44-1 1-1c.55 0 1 .45 1 1zm-7.9 0c0 .55-.45 1-1 1s-1-.45-1-1 .45-1 1-1 1 .45 1 1zm-7.9 0c0 .55-.44 1-1 1-.55 0-1-.45-1-1s.45-1 1-1c.56 0 1 .45 1 1zm-7.9 0c0 .55-.44 1-1 1-.54 0-1-.45-1-1s.46-1 1-1c.56 0 1 .45 1 1zm-7.88 0c0 .55-.45 1-1 1-.56 0-1-.45-1-1s.44-1 1-1c.55 0 1 .45 1 1zm-7.9 0c0 .55-.45 1-1 1s-1-.45-1-1 .45-1 1-1 1 .45 1 1zm-7.9 0c0 .55-.44 1-1 1-.54 0-1-.45-1-1s.46-1 1-1c.56 0 1 .45 1 1zm-7.9 0c0 .55-.44 1-1 1-.54 0-1-.45-1-1s.46-1 1-1c.56 0 1 .45 1 1zm-7.88 0c0 .55-.45 1-1 1s-1-.45-1-1 .45-1 1-1 1 .45 1 1zm-7.9 0c0 .55-.44 1-1 1-.55 0-1-.45-1-1s.45-1 1-1c.56 0 1 .45 1 1zm-7.9 0c0 .55-.44 1-1 1-.54 0-1-.45-1-1s.46-1 1-1c.56 0 1 .45 1 1zm-7.9 0c0 .55-.43 1-1 1-.54 0-1-.45-1-1s.46-1 1-1c.57 0 1 .45 1 1zm-7.88 0c0 .55-.45 1-1 1s-1-.45-1-1 .45-1 1-1 1 .45 1 1zm-7.9 0c0 .55-.44 1-1 1-.55 0-1-.45-1-1s.45-1 1-1c.56 0 1 .45 1 1zm-7.9 0c0 .55-.44 1-1 1-.54 0-1-.45-1-1s.46-1 1-1c.56 0 1 .45 1 1zm-7.9 0c0 .55-.43 1-1 1-.54 0-1-.45-1-1s.46-1 1-1c.57 0 1 .45 1 1zm-7.88 0c0 .55-.45 1-1 1s-1-.45-1-1 .45-1 1-1 1 .45 1 1zm-7.6-1.66c0 .55-.45 1-1 1s-1-.45-1-1 .45-1 1-1 1 .45 1 1zm-6.5-4.25c0 .54-.43 1-1 1-.54 0-1-.46-1-1 0-.56.46-1 1-1 .57 0 1 .44 1 1zm-4.27-6.5c0 .55-.45 1-1 1s-1-.45-1-1 .45-1 1-1 1 .45 1 1zM781 240c0 .55-.45 1-1 1s-1-.45-1-1 .45-1 1-1 1 .45 1 1zm0-8c0 .55-.45 1-1 1s-1-.45-1-1 .45-1 1-1 1 .45 1 1zm0-8c0 .55-.45 1-1 1s-1-.45-1-1 .45-1 1-1 1 .45 1 1zm0-8c0 .55-.45 1-1 1s-1-.45-1-1 .45-1 1-1 1 .45 1 1zm0-8c0 .55-.45 1-1 1s-1-.45-1-1 .45-1 1-1 1 .45 1 1zm0-8c0 .55-.45 1-1 1s-1-.45-1-1 .45-1 1-1 1 .45 1 1zm1.66-7.6c0 .55-.45 1-1 1s-1-.45-1-1 .45-1 1-1 1 .45 1 1zm4.25-6.5c0 .57-.44 1-1 1-.54 0-1-.43-1-1 0-.54.46-1 1-1 .56 0 1 .46 1 1zm6.5-4.27c0 .55-.45 1-1 1s-1-.45-1-1 .45-1 1-1 1 .45 1 1zM801 180c0 .55-.45 1-1 1s-1-.45-1-1 .45-1 1-1 1 .45 1 1zm7.9 0c0 .55-.45 1-1 1-.56 0-1-.45-1-1s.44-1 1-1c.55 0 1 .45 1 1zm7.9 0c0 .55-.46 1-1 1-.56 0-1-.45-1-1s.44-1 1-1c.54 0 1 .45 1 1zm7.88 0c0 .55-.44 1-1 1-.55 0-1-.45-1-1s.45-1 1-1c.56 0 1 .45 1 1zm7.9 0c0 .55-.45 1-1 1s-1-.45-1-1 .45-1 1-1 1 .45 1 1zm7.9 0c0 .55-.45 1-1 1-.56 0-1-.45-1-1s.44-1 1-1c.55 0 1 .45 1 1zm7.9 0c0 .55-.46 1-1 1-.56 0-1-.45-1-1s.44-1 1-1c.54 0 1 .45 1 1zm7.88 0c0 .55-.44 1-1 1-.55 0-1-.45-1-1s.45-1 1-1c.56 0 1 .45 1 1zm7.9 0c0 .55-.45 1-1 1s-1-.45-1-1 .45-1 1-1 1 .45 1 1zm7.9 0c0 .55-.46 1-1 1-.56 0-1-.45-1-1s.44-1 1-1c.54 0 1 .45 1 1zm7.9 0c0 .55-.46 1-1 1-.56 0-1-.45-1-1s.44-1 1-1c.54 0 1 .45 1 1zm7.88 0c0 .55-.45 1-1 1s-1-.45-1-1 .45-1 1-1 1 .45 1 1zm7.9 0c0 .55-.45 1-1 1-.56 0-1-.45-1-1s.44-1 1-1c.55 0 1 .45 1 1zm7.9 0c0 .55-.46 1-1 1-.56 0-1-.45-1-1s.44-1 1-1c.54 0 1 .45 1 1zm7.9 0c0 .55-.46 1-1 1-.57 0-1-.45-1-1s.43-1 1-1c.54 0 1 .45 1 1zm7.88 0c0 .55-.45 1-1 1s-1-.45-1-1 .45-1 1-1 1 .45 1 1zm7.9 0c0 .55-.45 1-1 1-.56 0-1-.45-1-1s.44-1 1-1c.55 0 1 .45 1 1zm7.9 0c0 .55-.46 1-1 1-.56 0-1-.45-1-1s.44-1 1-1c.54 0 1 .45 1 1zm7.9 0c0 .55-.46 1-1 1-.57 0-1-.45-1-1s.43-1 1-1c.54 0 1 .45 1 1zm7.88 0c0 .55-.45 1-1 1s-1-.45-1-1 .45-1 1-1 1 .45 1 1zm7.9 0c0 .55-.45 1-1 1-.56 0-1-.45-1-1s.44-1 1-1c.55 0 1 .45 1 1zm7.9 0c0 .55-.46 1-1 1-.56 0-1-.45-1-1s.44-1 1-1c.54 0 1 .45 1 1zm7.88 0c0 .55-.44 1-1 1-.55 0-1-.45-1-1s.45-1 1-1c.56 0 1 .45 1 1zm7.9 0c0 .55-.45 1-1 1s-1-.45-1-1 .45-1 1-1 1 .45 1 1zm7.9 0c0 .55-.45 1-1 1-.56 0-1-.45-1-1s.44-1 1-1c.55 0 1 .45 1 1zm7.9 0c0 .55-.46 1-1 1-.56 0-1-.45-1-1s.44-1 1-1c.54 0 1 .45 1 1zm7.88 0c0 .55-.44 1-1 1-.55 0-1-.45-1-1s.45-1 1-1c.56 0 1 .45 1 1zm7.9 0c0 .55-.45 1-1 1s-1-.45-1-1 .45-1 1-1 1 .45 1 1zm7.9 0c0 .55-.46 1-1 1-.56 0-1-.45-1-1s.44-1 1-1c.54 0 1 .45 1 1zm7.9 0c0 .55-.46 1-1 1-.56 0-1-.45-1-1s.44-1 1-1c.54 0 1 .45 1 1zm7.88 0c0 .55-.45 1-1 1s-1-.45-1-1 .45-1 1-1 1 .45 1 1zm7.9 0c0 .55-.45 1-1 1-.56 0-1-.45-1-1s.44-1 1-1c.55 0 1 .45 1 1zm7.9 0c0 .55-.46 1-1 1-.56 0-1-.45-1-1s.44-1 1-1c.54 0 1 .45 1 1zm7.9 0c0 .55-.46 1-1 1-.57 0-1-.45-1-1s.43-1 1-1c.54 0 1 .45 1 1zm7.88 0c0 .55-.45 1-1 1s-1-.45-1-1 .45-1 1-1 1 .45 1 1zm7.9 0c0 .55-.45 1-1 1-.56 0-1-.45-1-1s.44-1 1-1c.55 0 1 .45 1 1zm7.9 0c0 .55-.46 1-1 1-.56 0-1-.45-1-1s.44-1 1-1c.54 0 1 .45 1 1zm7.9 0c0 .55-.46 1-1 1-.57 0-1-.45-1-1s.43-1 1-1c.54 0 1 .45 1 1zm7.88 0c0 .55-.45 1-1 1s-1-.45-1-1 .45-1 1-1 1 .45 1 1z"/>
        <path d="M630 180c11.05 0 20 8.95 20 20v40c0 11.05-8.95 20-20 20H330c-11.05 0-20-8.95-20-20v-40c0-11.05 8.95-20 20-20z" fill="#ffe6cc"/>
        <path d="M631 180c0 .55-.45 1-1 1s-1-.45-1-1 .45-1 1-1 1 .45 1 1zm7.6 1.66c0 .55-.45 1-1 1s-1-.45-1-1 .45-1 1-1 1 .45 1 1zm6.5 4.25c0 .56-.46 1-1 1-.57 0-1-.44-1-1 0-.54.43-1 1-1 .54 0 1 .46 1 1zm4.27 6.5c0 .55-.45 1-1 1s-1-.45-1-1 .45-1 1-1 1 .45 1 1zM651 200c0 .55-.45 1-1 1s-1-.45-1-1 .45-1 1-1 1 .45 1 1zm0 8c0 .55-.45 1-1 1s-1-.45-1-1 .45-1 1-1 1 .45 1 1zm0 8c0 .55-.45 1-1 1s-1-.45-1-1 .45-1 1-1 1 .45 1 1zm0 8c0 .55-.45 1-1 1s-1-.45-1-1 .45-1 1-1 1 .45 1 1zm0 8c0 .55-.45 1-1 1s-1-.45-1-1 .45-1 1-1 1 .45 1 1zm0 8c0 .55-.45 1-1 1s-1-.45-1-1 .45-1 1-1 1 .45 1 1zm-1.66 7.6c0 .55-.45 1-1 1s-1-.45-1-1 .45-1 1-1 1 .45 1 1zm-4.25 6.5c0 .54-.46 1-1 1-.56 0-1-.46-1-1 0-.57.44-1 1-1 .54 0 1 .43 1 1zm-6.5 4.27c0 .55-.45 1-1 1s-1-.45-1-1 .45-1 1-1 1 .45 1 1zM631 260c0 .55-.45 1-1 1s-1-.45-1-1 .45-1 1-1 1 .45 1 1zm-7.9 0c0 .55-.44 1-1 1-.55 0-1-.45-1-1s.45-1 1-1c.56 0 1 .45 1 1zm-7.9 0c0 .55-.44 1-1 1-.54 0-1-.45-1-1s.46-1 1-1c.56 0 1 .45 1 1zm-7.88 0c0 .55-.45 1-1 1-.56 0-1-.45-1-1s.44-1 1-1c.55 0 1 .45 1 1zm-7.9 0c0 .55-.45 1-1 1s-1-.45-1-1 .45-1 1-1 1 .45 1 1zm-7.9 0c0 .55-.44 1-1 1-.55 0-1-.45-1-1s.45-1 1-1c.56 0 1 .45 1 1zm-7.9 0c0 .55-.44 1-1 1-.54 0-1-.45-1-1s.46-1 1-1c.56 0 1 .45 1 1zm-7.88 0c0 .55-.45 1-1 1-.56 0-1-.45-1-1s.44-1 1-1c.55 0 1 .45 1 1zm-7.9 0c0 .55-.45 1-1 1s-1-.45-1-1 .45-1 1-1 1 .45 1 1zm-7.9 0c0 .55-.44 1-1 1-.54 0-1-.45-1-1s.46-1 1-1c.56 0 1 .45 1 1zm-7.9 0c0 .55-.44 1-1 1-.54 0-1-.45-1-1s.46-1 1-1c.56 0 1 .45 1 1zm-7.88 0c0 .55-.45 1-1 1s-1-.45-1-1 .45-1 1-1 1 .45 1 1zm-7.9 0c0 .55-.44 1-1 1-.55 0-1-.45-1-1s.45-1 1-1c.56 0 1 .45 1 1zm-7.9 0c0 .55-.44 1-1 1-.54 0-1-.45-1-1s.46-1 1-1c.56 0 1 .45 1 1zm-7.9 0c0 .55-.43 1-1 1-.54 0-1-.45-1-1s.46-1 1-1c.57 0 1 .45 1 1zm-7.88 0c0 .55-.45 1-1 1s-1-.45-1-1 .45-1 1-1 1 .45 1 1zm-7.9 0c0 .55-.44 1-1 1-.55 0-1-.45-1-1s.45-1 1-1c.56 0 1 .45 1 1zm-7.9 0c0 .55-.44 1-1 1-.54 0-1-.45-1-1s.46-1 1-1c.56 0 1 .45 1 1zm-7.9 0c0 .55-.43 1-1 1-.54 0-1-.45-1-1s.46-1 1-1c.57 0 1 .45 1 1zm-7.88 0c0 .55-.45 1-1 1s-1-.45-1-1 .45-1 1-1 1 .45 1 1zm-7.9 0c0 .55-.44 1-1 1-.55 0-1-.45-1-1s.45-1 1-1c.56 0 1 .45 1 1zm-7.9 0c0 .55-.44 1-1 1-.54 0-1-.45-1-1s.46-1 1-1c.56 0 1 .45 1 1zm-7.88 0c0 .55-.45 1-1 1-.56 0-1-.45-1-1s.44-1 1-1c.55 0 1 .45 1 1zm-7.9 0c0 .55-.45 1-1 1s-1-.45-1-1 .45-1 1-1 1 .45 1 1zm-7.9 0c0 .55-.44 1-1 1-.55 0-1-.45-1-1s.45-1 1-1c.56 0 1 .45 1 1zm-7.9 0c0 .55-.44 1-1 1-.54 0-1-.45-1-1s.46-1 1-1c.56 0 1 .45 1 1zm-7.88 0c0 .55-.45 1-1 1-.56 0-1-.45-1-1s.44-1 1-1c.55 0 1 .45 1 1zm-7.9 0c0 .55-.45 1-1 1s-1-.45-1-1 .45-1 1-1 1 .45 1 1zm-7.9 0c0 .55-.44 1-1 1-.54 0-1-.45-1-1s.46-1 1-1c.56 0 1 .45 1 1zm-7.9 0c0 .55-.44 1-1 1-.54 0-1-.45-1-1s.46-1 1-1c.56 0 1 .45 1 1zm-7.88 0c0 .55-.45 1-1 1s-1-.45-1-1 .45-1 1-1 1 .45 1 1zm-7.9 0c0 .55-.44 1-1 1-.55 0-1-.45-1-1s.45-1 1-1c.56 0 1 .45 1 1zm-7.9 0c0 .55-.44 1-1 1-.54 0-1-.45-1-1s.46-1 1-1c.56 0 1 .45 1 1zm-7.9 0c0 .55-.43 1-1 1-.54 0-1-.45-1-1s.46-1 1-1c.57 0 1 .45 1 1zm-7.88 0c0 .55-.45 1-1 1s-1-.45-1-1 .45-1 1-1 1 .45 1 1zm-7.9 0c0 .55-.44 1-1 1-.55 0-1-.45-1-1s.45-1 1-1c.56 0 1 .45 1 1zm-7.9 0c0 .55-.44 1-1 1-.54 0-1-.45-1-1s.46-1 1-1c.56 0 1 .45 1 1zm-7.9 0c0 .55-.43 1-1 1-.54 0-1-.45-1-1s.46-1 1-1c.57 0 1 .45 1 1zm-7.88 0c0 .55-.45 1-1 1s-1-.45-1-1 .45-1 1-1 1 .45 1 1zm-7.6-1.66c0 .55-.45 1-1 1s-1-.45-1-1 .45-1 1-1 1 .45 1 1zm-6.5-4.25c0 .54-.43 1-1 1-.54 0-1-.46-1-1 0-.56.46-1 1-1 .57 0 1 .44 1 1zm-4.27-6.5c0 .55-.45 1-1 1s-1-.45-1-1 .45-1 1-1 1 .45 1 1zM311 240c0 .55-.45 1-1 1s-1-.45-1-1 .45-1 1-1 1 .45 1 1zm0-8c0 .55-.45 1-1 1s-1-.45-1-1 .45-1 1-1 1 .45 1 1zm0-8c0 .55-.45 1-1 1s-1-.45-1-1 .45-1 1-1 1 .45 1 1zm0-8c0 .55-.45 1-1 1s-1-.45-1-1 .45-1 1-1 1 .45 1 1zm0-8c0 .55-.45 1-1 1s-1-.45-1-1 .45-1 1-1 1 .45 1 1zm0-8c0 .55-.45 1-1 1s-1-.45-1-1 .45-1 1-1 1 .45 1 1zm1.66-7.6c0 .55-.45 1-1 1s-1-.45-1-1 .45-1 1-1 1 .45 1 1zm4.25-6.5c0 .57-.44 1-1 1-.54 0-1-.43-1-1 0-.54.46-1 1-1 .56 0 1 .46 1 1zm6.5-4.27c0 .55-.45 1-1 1s-1-.45-1-1 .45-1 1-1 1 .45 1 1zM331 180c0 .55-.45 1-1 1s-1-.45-1-1 .45-1 1-1 1 .45 1 1zm7.9 0c0 .55-.45 1-1 1-.56 0-1-.45-1-1s.44-1 1-1c.55 0 1 .45 1 1zm7.9 0c0 .55-.46 1-1 1-.56 0-1-.45-1-1s.44-1 1-1c.54 0 1 .45 1 1zm7.88 0c0 .55-.44 1-1 1-.55 0-1-.45-1-1s.45-1 1-1c.56 0 1 .45 1 1zm7.9 0c0 .55-.45 1-1 1s-1-.45-1-1 .45-1 1-1 1 .45 1 1zm7.9 0c0 .55-.45 1-1 1-.56 0-1-.45-1-1s.44-1 1-1c.55 0 1 .45 1 1zm7.9 0c0 .55-.46 1-1 1-.56 0-1-.45-1-1s.44-1 1-1c.54 0 1 .45 1 1zm7.88 0c0 .55-.44 1-1 1-.55 0-1-.45-1-1s.45-1 1-1c.56 0 1 .45 1 1zm7.9 0c0 .55-.45 1-1 1s-1-.45-1-1 .45-1 1-1 1 .45 1 1zm7.9 0c0 .55-.46 1-1 1-.56 0-1-.45-1-1s.44-1 1-1c.54 0 1 .45 1 1zm7.9 0c0 .55-.46 1-1 1-.56 0-1-.45-1-1s.44-1 1-1c.54 0 1 .45 1 1zm7.88 0c0 .55-.45 1-1 1s-1-.45-1-1 .45-1 1-1 1 .45 1 1zm7.9 0c0 .55-.45 1-1 1-.56 0-1-.45-1-1s.44-1 1-1c.55 0 1 .45 1 1zm7.9 0c0 .55-.46 1-1 1-.56 0-1-.45-1-1s.44-1 1-1c.54 0 1 .45 1 1zm7.9 0c0 .55-.46 1-1 1-.57 0-1-.45-1-1s.43-1 1-1c.54 0 1 .45 1 1zm7.88 0c0 .55-.45 1-1 1s-1-.45-1-1 .45-1 1-1 1 .45 1 1zm7.9 0c0 .55-.45 1-1 1-.56 0-1-.45-1-1s.44-1 1-1c.55 0 1 .45 1 1zm7.9 0c0 .55-.46 1-1 1-.56 0-1-.45-1-1s.44-1 1-1c.54 0 1 .45 1 1zm7.9 0c0 .55-.46 1-1 1-.57 0-1-.45-1-1s.43-1 1-1c.54 0 1 .45 1 1zm7.88 0c0 .55-.45 1-1 1s-1-.45-1-1 .45-1 1-1 1 .45 1 1zm7.9 0c0 .55-.45 1-1 1-.56 0-1-.45-1-1s.44-1 1-1c.55 0 1 .45 1 1zm7.9 0c0 .55-.46 1-1 1-.56 0-1-.45-1-1s.44-1 1-1c.54 0 1 .45 1 1zm7.88 0c0 .55-.44 1-1 1-.55 0-1-.45-1-1s.45-1 1-1c.56 0 1 .45 1 1zm7.9 0c0 .55-.45 1-1 1s-1-.45-1-1 .45-1 1-1 1 .45 1 1zm7.9 0c0 .55-.45 1-1 1-.56 0-1-.45-1-1s.44-1 1-1c.55 0 1 .45 1 1zm7.9 0c0 .55-.46 1-1 1-.56 0-1-.45-1-1s.44-1 1-1c.54 0 1 .45 1 1zm7.88 0c0 .55-.44 1-1 1-.55 0-1-.45-1-1s.45-1 1-1c.56 0 1 .45 1 1zm7.9 0c0 .55-.45 1-1 1s-1-.45-1-1 .45-1 1-1 1 .45 1 1zm7.9 0c0 .55-.46 1-1 1-.56 0-1-.45-1-1s.44-1 1-1c.54 0 1 .45 1 1zm7.9 0c0 .55-.46 1-1 1-.56 0-1-.45-1-1s.44-1 1-1c.54 0 1 .45 1 1zm7.88 0c0 .55-.45 1-1 1s-1-.45-1-1 .45-1 1-1 1 .45 1 1zm7.9 0c0 .55-.45 1-1 1-.56 0-1-.45-1-1s.44-1 1-1c.55 0 1 .45 1 1zm7.9 0c0 .55-.46 1-1 1-.56 0-1-.45-1-1s.44-1 1-1c.54 0 1 .45 1 1zm7.9 0c0 .55-.46 1-1 1-.57 0-1-.45-1-1s.43-1 1-1c.54 0 1 .45 1 1zm7.88 0c0 .55-.45 1-1 1s-1-.45-1-1 .45-1 1-1 1 .45 1 1zm7.9 0c0 .55-.45 1-1 1-.56 0-1-.45-1-1s.44-1 1-1c.55 0 1 .45 1 1zm7.9 0c0 .55-.46 1-1 1-.56 0-1-.45-1-1s.44-1 1-1c.54 0 1 .45 1 1zm7.9 0c0 .55-.46 1-1 1-.57 0-1-.45-1-1s.43-1 1-1c.54 0 1 .45 1 1zm7.88 0c0 .55-.45 1-1 1s-1-.45-1-1 .45-1 1-1 1 .45 1 1z"/>
        <path d="M321.88 185c0-2.76 2.24-5 5-5h230c2.77 0 5 2.24 5 5v30c0 2.76-2.23 5-5 5h-230c-2.76 0-5-2.24-5-5z" fill="none"/>
        <use xlink:href="#c" transform="matrix(1,0,0,1,321.8848,180) translate(0 25.3333333333334)"/>
        <use xlink:href="#d" transform="matrix(1,0,0,1,321.8848,180) translate(81.25925925926028 25.3333333333334)"/>
        <use xlink:href="#e" transform="matrix(1,0,0,1,321.8848,180) translate(112.2962962962977 25.3333333333334)"/>
        <path d="M321.88 225c0-2.76 2.24-5 5-5h230c2.77 0 5 2.24 5 5v30c0 2.76-2.23 5-5 5h-230c-2.76 0-5-2.24-5-5z" fill="none"/>
        <use xlink:href="#b" transform="matrix(1,0,0,1,321.8848,220) translate(0 25.3333333333334)"/>
        <path d="M321.88 265c0-2.76 2.24-5 5-5h10c2.77 0 5 2.24 5 5v56.67c0 2.76-2.23 5-5 5h-10c-2.76 0-5-2.24-5-5z" fill="none"/>
        <use xlink:href="#f" transform="matrix(1,0,0,1,321.8848,260) translate(0 21.3333333333336)"/>
        <use xlink:href="#g" transform="matrix(1,0,0,1,321.8848,260) translate(0 53.333333333334)"/>
        <path d="M321.88 328.33c0-2.76 2.24-5 5-5h330c2.77 0 5 2.24 5 5V355c0 2.76-2.23 5-5 5h-330c-2.76 0-5-2.24-5-5z" fill="none"/>
        <use xlink:href="#h" transform="matrix(1,0,0,1,321.8848,323.33333333333) translate(0 23.8333333333334)"/>
        <use xlink:href="#i" transform="matrix(1,0,0,1,321.8848,323.33333333333) translate(101.9259259259272 23.8333333333334)"/>
        <use xlink:href="#d" transform="matrix(1,0,0,1,321.8848,323.33333333333) translate(209.85185185185446 23.8333333333334)"/>
        <use xlink:href="#e" transform="matrix(1,0,0,1,321.8848,323.33333333333) translate(240.8888888888919 23.8333333333334)"/>
        <path d="M321.88 375c0-2.76 2.24-5 5-5h10c2.77 0 5 2.24 5 5v40c0 2.76-2.23 5-5 5h-10c-2.76 0-5-2.24-5-5z" fill="none"/>
        <use xlink:href="#g" transform="matrix(1,0,0,1,321.8848,370) translate(0 30.3333333333334)"/>
        <path d="M321.88 465c0-2.76 2.24-5 5-5h10c2.77 0 5 2.24 5 5v56.67c0 2.76-2.23 5-5 5h-10c-2.76 0-5-2.24-5-5z" fill="none"/>
        <use xlink:href="#f" transform="matrix(1,0,0,1,321.8848,460) translate(0 21.3333333333336)"/>
        <use xlink:href="#g" transform="matrix(1,0,0,1,321.8848,460) translate(0 53.333333333334)"/>
        <path d="M321.88 545c0-2.76 2.24-5 5-5h230c2.77 0 5 2.24 5 5v30c0 2.76-2.23 5-5 5h-230c-2.76 0-5-2.24-5-5z" fill="none"/>
        <use xlink:href="#b" transform="matrix(1,0,0,1,321.8848,540) translate(0 25.3333333333334)"/>
        <path d="M321.88 200l-1.4.03-1.36.08-1.32.15-1.3.2-1.26.24-1.24.28-1.22.34-1.2.4-1.2.43-1.18.5-1.17.55-1.17.62-1.18.67-1.17.74-1.16.8-1.18.9-1.2 1-1.2 1.07-1.2 1.2-1.22 1.3-1.24 1.43-1.24 1.58-1.27 1.74-1.28 1.92-1.28 2.12-1.28 2.34-1.3 2.6-1.26 2.85-1.25 3.16-1.2 3.48-1.16 3.83-1.08 4.16-.96 4.5-.82 4.86-.65 5.13-.46 5.35-.23 5.5v5.57l.24 5.5.45 5.37.64 5.12.82 4.85.96 4.5 1.07 4.18 1.14 3.82 1.2 3.48 1.26 3.16 1.27 2.87 1.3 2.58 1.27 2.34 1.3 2.1 1.26 1.93 1.26 1.73 1.25 1.58 1.24 1.43 1.22 1.3 1.2 1.2 1.2 1.07 1.2.98 1.18.9 1.18.8.14.1" stroke="#ff8000" stroke-width="2" fill="none"/>
        <path d="M321.88 200l-.23-.97.23-.06zM318.78 340.74l-15 .36 2.66-8.88z" fill="#ff8000"/>
        <path d="M321.88 341.67l-19.44.46 3.44-11.52zm-16.74-1.6l10.54-.25-8.68-6z" fill="#ff8000"/>
        <path d="M321.88 200l-2.37.05-2.3.14-2.24.23-2.18.32-2.14.4-2.1.5-2.07.58-2.05.67-2.02.75-2 .84-2 .93-1.98 1.03-1.98 1.15-1.98 1.27-2 1.38-2 1.52-2 1.67-2.04 1.83-2.05 2-2.07 2.2-2.1 2.44-2.1 2.68-2.14 2.94-2.16 3.25-2.17 3.58-2.18 3.97-2.17 4.38-2.16 4.85-2.1 5.35-2.07 5.9-1.95 6.47-1.8 7.06-1.63 7.65-1.4 8.2-1.08 8.7-.78 9.1-.4 9.32v9.42l.4 9.33.77 9.1 1.1 8.68 1.37 8.2 1.63 7.66 1.8 7.05 1.96 6.47 2.05 5.9 2.13 5.34 2.15 4.85 2.18 4.4 2.18 3.96 2.17 3.58 2.16 3.25 2.14 2.93 2.1 2.67 2.1 2.42 2.08 2.2 2.04 2.02 2.03 1.82 2.02 1.67 2 1.52 2 1.38 1.97 1.26 2 1.14 1.97 1.04 2 .93 2 .86 1.6.6" stroke="#ff8000" stroke-width="2" fill="none"/>
        <path d="M321.88 200.02l-.14-1 .14-.03zM318.7 439.46l-14.85 2.16 1.56-9.13z" fill="#ff8000"/>
        <path d="M321.88 440l-19.24 2.8 2.02-11.84zm-16.8.44l10.43-1.53-9.33-4.9z" fill="#ff8000"/>
        <path d="M321.88 425c0-2.76 2.24-5 5-5h330c2.77 0 5 2.24 5 5v26.67c0 2.76-2.23 5-5 5h-330c-2.76 0-5-2.24-5-5z" fill="none"/>
        <use xlink:href="#h" transform="matrix(1,0,0,1,321.8848,420) translate(0 23.8333333333334)"/>
        <use xlink:href="#i" transform="matrix(1,0,0,1,321.8848,420) translate(101.9259259259272 23.8333333333334)"/>
        <use xlink:href="#d" transform="matrix(1,0,0,1,321.8848,420) translate(209.85185185185446 23.8333333333334)"/>
        <use xlink:href="#e" transform="matrix(1,0,0,1,321.8848,420) translate(240.8888888888919 23.8333333333334)"/>
        <path d="M791.88 185c0-2.76 2.24-5 5-5h230c2.77 0 5 2.24 5 5v30c0 2.76-2.23 5-5 5h-230c-2.76 0-5-2.24-5-5z" fill="none"/>
        <use xlink:href="#j" transform="matrix(1,0,0,1,791.8848,180) translate(0 25.3333333333334)"/>
        <path d="M791.88 225c0-2.76 2.24-5 5-5h230c2.77 0 5 2.24 5 5v30c0 2.76-2.23 5-5 5h-230c-2.76 0-5-2.24-5-5z" fill="none"/>
        <use xlink:href="#k" transform="matrix(1,0,0,1,791.8848,220) translate(0 25.3333333333334)"/>
        <path d="M791.88 265c0-2.76 2.24-5 5-5h10c2.77 0 5 2.24 5 5v56.67c0 2.76-2.23 5-5 5h-10c-2.76 0-5-2.24-5-5z" fill="none"/>
        <use xlink:href="#f" transform="matrix(1,0,0,1,791.8848,260) translate(0 21.3333333333336)"/>
        <use xlink:href="#g" transform="matrix(1,0,0,1,791.8848,260) translate(0 53.333333333334)"/>
        <path d="M791.88 328.33c0-2.76 2.24-5 5-5h330c2.77 0 5 2.24 5 5V355c0 2.76-2.23 5-5 5h-330c-2.76 0-5-2.24-5-5z" fill="none"/>
        <use xlink:href="#l" transform="matrix(1,0,0,1,791.8848,323.33333333333) translate(0 23.8333333333334)"/>
        <use xlink:href="#m" transform="matrix(1,0,0,1,791.8848,323.33333333333) translate(100.51851851851977 23.8333333333334)"/>
        <path d="M791.88 375c0-2.76 2.24-5 5-5h10c2.77 0 5 2.24 5 5v40c0 2.76-2.23 5-5 5h-10c-2.76 0-5-2.24-5-5z" fill="none"/>
        <use xlink:href="#g" transform="matrix(1,0,0,1,791.8848,370) translate(0 30.3333333333334)"/>
        <path d="M791.88 465c0-2.76 2.24-5 5-5h10c2.77 0 5 2.24 5 5v56.67c0 2.76-2.23 5-5 5h-10c-2.76 0-5-2.24-5-5z" fill="none"/>
        <use xlink:href="#f" transform="matrix(1,0,0,1,791.8848,460) translate(0 21.3333333333336)"/>
        <use xlink:href="#g" transform="matrix(1,0,0,1,791.8848,460) translate(0 53.333333333334)"/>
        <path d="M791.88 545c0-2.76 2.24-5 5-5h230c2.77 0 5 2.24 5 5v30c0 2.76-2.23 5-5 5h-230c-2.76 0-5-2.24-5-5z" fill="none"/>
        <use xlink:href="#n" transform="matrix(1,0,0,1,791.8848,540) translate(0 25.3333333333334)"/>
        <use xlink:href="#o" transform="matrix(1,0,0,1,791.8848,540) translate(96.07407407407527 25.3333333333334)"/>
        <use xlink:href="#p" transform="matrix(1,0,0,1,791.8848,540) translate(127.11111111111269 25.3333333333334)"/>
        <path d="M791.88 200l-1.4.03-1.36.08-1.32.15-1.3.2-1.26.24-1.24.28-1.22.34-1.2.4-1.2.43-1.18.5-1.17.55-1.17.62-1.18.67-1.17.74-1.16.8-1.18.9-1.2 1-1.2 1.07-1.2 1.2-1.22 1.3-1.24 1.43-1.24 1.58-1.27 1.74-1.28 1.92-1.28 2.12-1.28 2.34-1.3 2.6-1.26 2.85-1.25 3.16-1.2 3.48-1.16 3.83-1.08 4.16-.96 4.5-.82 4.86-.65 5.13-.46 5.35-.23 5.5v5.57l.24 5.5.45 5.37.64 5.12.82 4.85.96 4.5 1.07 4.18 1.14 3.82 1.2 3.48 1.26 3.16 1.27 2.87 1.3 2.58 1.27 2.34 1.3 2.1 1.26 1.93 1.26 1.73 1.25 1.58 1.24 1.43 1.22 1.3 1.2 1.2 1.2 1.07 1.2.98 1.18.9 1.18.8.14.1" stroke="#ff8000" stroke-width="2" fill="none"/>
        <path d="M791.88 200l-.23-.97.23-.06zM788.78 340.74l-15 .36 2.66-8.88z" fill="#ff8000"/>
        <path d="M791.88 341.67l-19.44.46 3.44-11.52zm-16.74-1.6l10.54-.25-8.68-6z" fill="#ff8000"/>
        <path d="M791.88 200l-2.37.05-2.3.14-2.24.23-2.18.32-2.14.4-2.1.5-2.07.58-2.05.67-2.02.75-2 .84-2 .93-1.98 1.03-1.98 1.15-1.98 1.27-2 1.38-2 1.52-2 1.67-2.04 1.83-2.05 2-2.07 2.2-2.1 2.44-2.1 2.68-2.14 2.94-2.16 3.25-2.17 3.58-2.18 3.97-2.17 4.38-2.16 4.85-2.1 5.35-2.07 5.9-1.95 6.47-1.8 7.06-1.63 7.65-1.4 8.2-1.08 8.7-.78 9.1-.4 9.32v9.42l.4 9.33.77 9.1 1.1 8.68 1.37 8.2 1.63 7.66 1.8 7.05 1.96 6.47 2.05 5.9 2.13 5.34 2.15 4.85 2.18 4.4 2.18 3.96 2.17 3.58 2.16 3.25 2.14 2.93 2.1 2.67 2.1 2.42 2.08 2.2 2.04 2.02 2.03 1.82 2.02 1.67 2 1.52 2 1.38 1.97 1.26 2 1.14 1.97 1.04 2 .93 2 .86 1.6.6" stroke="#ff8000" stroke-width="2" fill="none"/>
        <path d="M791.88 200.02l-.14-1 .14-.03zM788.7 439.46l-14.85 2.16 1.56-9.13z" fill="#ff8000"/>
        <path d="M791.88 440l-19.24 2.8 2.02-11.84zm-16.8.44l10.43-1.53-9.33-4.9z" fill="#ff8000"/>
        <path d="M791.88 425c0-2.76 2.24-5 5-5h330c2.77 0 5 2.24 5 5v26.67c0 2.76-2.23 5-5 5h-330c-2.76 0-5-2.24-5-5z" fill="none"/>
        <use xlink:href="#l" transform="matrix(1,0,0,1,791.8848,420) translate(0 23.8333333333334)"/>
        <use xlink:href="#m" transform="matrix(1,0,0,1,791.8848,420) translate(100.51851851851977 23.8333333333334)"/>
        <path d="M630 530c11.05 0 20 8.95 20 20v10c0 11.05-8.95 20-20 20H330c-11.05 0-20-8.95-20-20v-10c0-11.05 8.95-20 20-20z" fill="none"/>
        <path d="M647.24 540.04l1.74 3.65.97 4.86.05 1.44v10l-.62 4.96-1.82 4.6-.28.4m-7.32 7.28l-3.65 1.74-4.86.97-1.44.05h-10m-10 0h-20m-10 0h-20m-10 0h-20m-10 0h-20m-10 0h-20m-10 0h-20m-10 0h-20m-10 0h-20m-10 0h-20m-10 0h-10l-4.96-.62-4.6-1.82-.4-.28m-7.28-7.32l-1.74-3.65-.97-4.86L310 560v-10l.62-4.96 1.82-4.6.28-.4m7.32-7.28l3.65-1.74 4.86-.97L330 530h10m10 0h20m10 0h20m10 0h20m10 0h20m10 0h20m10 0h20m10 0h20m10 0h20m10 0h20m10 0h10l4.96.62 4.6 1.82.4.28" stroke="#000" stroke-width="2" fill="none"/>
        <path d="M1100 530c11.05 0 20 8.95 20 20v10c0 11.05-8.95 20-20 20H800c-11.05 0-20-8.95-20-20v-10c0-11.05 8.95-20 20-20z" fill="none"/>
        <path d="M1117.24 540.04l1.74 3.65.97 4.86.05 1.44v10l-.62 4.96-1.82 4.6-.28.4m-7.32 7.28l-3.65 1.74-4.86.97-1.44.05h-10m-10 0h-20m-10 0h-20m-10 0h-20m-10 0h-20m-10 0h-20m-10 0h-20m-10 0h-20m-10 0h-20m-10 0h-20m-10 0h-10l-4.96-.62-4.6-1.82-.4-.28m-7.28-7.32l-1.74-3.65-.97-4.86L780 560v-10l.62-4.96 1.82-4.6.28-.4m7.32-7.28l3.65-1.74 4.86-.97L800 530h10m10 0h20m10 0h20m10 0h20m10 0h20m10 0h20m10 0h20m10 0h20m10 0h20m10 0h20m10 0h10l4.96.62 4.6 1.82.4.28" stroke="#000" stroke-width="2" fill="none"/>
        <path d="M1100 660c11.05 0 20 8.95 20 20v40c0 11.05-8.95 20-20 20H800c-11.05 0-20-8.95-20-20v-40c0-11.05 8.95-20 20-20z" fill="#ffe6cc"/>
        <path d="M1101 660c0 .55-.45 1-1 1s-1-.45-1-1 .45-1 1-1 1 .45 1 1zm7.6 1.66c0 .55-.45 1-1 1s-1-.45-1-1 .45-1 1-1 1 .45 1 1zm6.5 4.25c0 .56-.46 1-1 1-.57 0-1-.44-1-1 0-.54.43-1 1-1 .54 0 1 .46 1 1zm4.27 6.5c0 .55-.45 1-1 1s-1-.45-1-1 .45-1 1-1 1 .45 1 1zm1.63 7.6c0 .55-.45 1-1 1s-1-.45-1-1 .45-1 1-1 1 .45 1 1zm0 8c0 .55-.45 1-1 1s-1-.45-1-1 .45-1 1-1 1 .45 1 1zm0 8c0 .55-.45 1-1 1s-1-.45-1-1 .45-1 1-1 1 .45 1 1zm0 8c0 .55-.45 1-1 1s-1-.45-1-1 .45-1 1-1 1 .45 1 1zm0 8c0 .55-.45 1-1 1s-1-.45-1-1 .45-1 1-1 1 .45 1 1zm0 8c0 .55-.45 1-1 1s-1-.45-1-1 .45-1 1-1 1 .45 1 1zm-1.66 7.6c0 .55-.45 1-1 1s-1-.45-1-1 .45-1 1-1 1 .45 1 1zm-4.25 6.5c0 .54-.46 1-1 1-.56 0-1-.46-1-1 0-.57.44-1 1-1 .54 0 1 .43 1 1zm-6.5 4.27c0 .55-.45 1-1 1s-1-.45-1-1 .45-1 1-1 1 .45 1 1zM1101 740c0 .55-.45 1-1 1s-1-.45-1-1 .45-1 1-1 1 .45 1 1zm-7.9 0c0 .55-.44 1-1 1-.55 0-1-.45-1-1s.45-1 1-1c.56 0 1 .45 1 1zm-7.9 0c0 .55-.44 1-1 1-.54 0-1-.45-1-1s.46-1 1-1c.56 0 1 .45 1 1zm-7.88 0c0 .55-.45 1-1 1-.56 0-1-.45-1-1s.44-1 1-1c.55 0 1 .45 1 1zm-7.9 0c0 .55-.45 1-1 1s-1-.45-1-1 .45-1 1-1 1 .45 1 1zm-7.9 0c0 .55-.44 1-1 1-.55 0-1-.45-1-1s.45-1 1-1c.56 0 1 .45 1 1zm-7.9 0c0 .55-.44 1-1 1-.54 0-1-.45-1-1s.46-1 1-1c.56 0 1 .45 1 1zm-7.88 0c0 .55-.45 1-1 1-.56 0-1-.45-1-1s.44-1 1-1c.55 0 1 .45 1 1zm-7.9 0c0 .55-.45 1-1 1s-1-.45-1-1 .45-1 1-1 1 .45 1 1zm-7.9 0c0 .55-.44 1-1 1-.54 0-1-.45-1-1s.46-1 1-1c.56 0 1 .45 1 1zm-7.9 0c0 .55-.44 1-1 1-.54 0-1-.45-1-1s.46-1 1-1c.56 0 1 .45 1 1zm-7.88 0c0 .55-.45 1-1 1s-1-.45-1-1 .45-1 1-1 1 .45 1 1zm-7.9 0c0 .55-.44 1-1 1-.55 0-1-.45-1-1s.45-1 1-1c.56 0 1 .45 1 1zm-7.9 0c0 .55-.44 1-1 1-.54 0-1-.45-1-1s.46-1 1-1c.56 0 1 .45 1 1zm-7.9 0c0 .55-.43 1-1 1-.54 0-1-.45-1-1s.46-1 1-1c.57 0 1 .45 1 1zm-7.88 0c0 .55-.45 1-1 1s-1-.45-1-1 .45-1 1-1 1 .45 1 1zm-7.9 0c0 .55-.44 1-1 1-.55 0-1-.45-1-1s.45-1 1-1c.56 0 1 .45 1 1zm-7.9 0c0 .55-.44 1-1 1-.54 0-1-.45-1-1s.46-1 1-1c.56 0 1 .45 1 1zm-7.9 0c0 .55-.43 1-1 1-.54 0-1-.45-1-1s.46-1 1-1c.57 0 1 .45 1 1zm-7.88 0c0 .55-.45 1-1 1s-1-.45-1-1 .45-1 1-1 1 .45 1 1zm-7.9 0c0 .55-.44 1-1 1-.55 0-1-.45-1-1s.45-1 1-1c.56 0 1 .45 1 1zm-7.9 0c0 .55-.44 1-1 1-.54 0-1-.45-1-1s.46-1 1-1c.56 0 1 .45 1 1zm-7.88 0c0 .55-.45 1-1 1-.56 0-1-.45-1-1s.44-1 1-1c.55 0 1 .45 1 1zm-7.9 0c0 .55-.45 1-1 1s-1-.45-1-1 .45-1 1-1 1 .45 1 1zm-7.9 0c0 .55-.44 1-1 1-.55 0-1-.45-1-1s.45-1 1-1c.56 0 1 .45 1 1zm-7.9 0c0 .55-.44 1-1 1-.54 0-1-.45-1-1s.46-1 1-1c.56 0 1 .45 1 1zm-7.88 0c0 .55-.45 1-1 1-.56 0-1-.45-1-1s.44-1 1-1c.55 0 1 .45 1 1zm-7.9 0c0 .55-.45 1-1 1s-1-.45-1-1 .45-1 1-1 1 .45 1 1zm-7.9 0c0 .55-.44 1-1 1-.54 0-1-.45-1-1s.46-1 1-1c.56 0 1 .45 1 1zm-7.9 0c0 .55-.44 1-1 1-.54 0-1-.45-1-1s.46-1 1-1c.56 0 1 .45 1 1zm-7.88 0c0 .55-.45 1-1 1s-1-.45-1-1 .45-1 1-1 1 .45 1 1zm-7.9 0c0 .55-.44 1-1 1-.55 0-1-.45-1-1s.45-1 1-1c.56 0 1 .45 1 1zm-7.9 0c0 .55-.44 1-1 1-.54 0-1-.45-1-1s.46-1 1-1c.56 0 1 .45 1 1zm-7.9 0c0 .55-.43 1-1 1-.54 0-1-.45-1-1s.46-1 1-1c.57 0 1 .45 1 1zm-7.88 0c0 .55-.45 1-1 1s-1-.45-1-1 .45-1 1-1 1 .45 1 1zm-7.9 0c0 .55-.44 1-1 1-.55 0-1-.45-1-1s.45-1 1-1c.56 0 1 .45 1 1zm-7.9 0c0 .55-.44 1-1 1-.54 0-1-.45-1-1s.46-1 1-1c.56 0 1 .45 1 1zm-7.9 0c0 .55-.43 1-1 1-.54 0-1-.45-1-1s.46-1 1-1c.57 0 1 .45 1 1zm-7.88 0c0 .55-.45 1-1 1s-1-.45-1-1 .45-1 1-1 1 .45 1 1zm-7.6-1.66c0 .55-.45 1-1 1s-1-.45-1-1 .45-1 1-1 1 .45 1 1zm-6.5-4.25c0 .54-.43 1-1 1-.54 0-1-.46-1-1 0-.56.46-1 1-1 .57 0 1 .44 1 1zm-4.27-6.5c0 .55-.45 1-1 1s-1-.45-1-1 .45-1 1-1 1 .45 1 1zM781 720c0 .55-.45 1-1 1s-1-.45-1-1 .45-1 1-1 1 .45 1 1zm0-8c0 .55-.45 1-1 1s-1-.45-1-1 .45-1 1-1 1 .45 1 1zm0-8c0 .55-.45 1-1 1s-1-.45-1-1 .45-1 1-1 1 .45 1 1zm0-8c0 .55-.45 1-1 1s-1-.45-1-1 .45-1 1-1 1 .45 1 1zm0-8c0 .55-.45 1-1 1s-1-.45-1-1 .45-1 1-1 1 .45 1 1zm0-8c0 .55-.45 1-1 1s-1-.45-1-1 .45-1 1-1 1 .45 1 1zm1.66-7.6c0 .55-.45 1-1 1s-1-.45-1-1 .45-1 1-1 1 .45 1 1zm4.25-6.5c0 .57-.44 1-1 1-.54 0-1-.43-1-1 0-.54.46-1 1-1 .56 0 1 .46 1 1zm6.5-4.27c0 .55-.45 1-1 1s-1-.45-1-1 .45-1 1-1 1 .45 1 1zM801 660c0 .55-.45 1-1 1s-1-.45-1-1 .45-1 1-1 1 .45 1 1zm7.9 0c0 .55-.45 1-1 1-.56 0-1-.45-1-1s.44-1 1-1c.55 0 1 .45 1 1zm7.9 0c0 .55-.46 1-1 1-.56 0-1-.45-1-1s.44-1 1-1c.54 0 1 .45 1 1zm7.88 0c0 .55-.44 1-1 1-.55 0-1-.45-1-1s.45-1 1-1c.56 0 1 .45 1 1zm7.9 0c0 .55-.45 1-1 1s-1-.45-1-1 .45-1 1-1 1 .45 1 1zm7.9 0c0 .55-.45 1-1 1-.56 0-1-.45-1-1s.44-1 1-1c.55 0 1 .45 1 1zm7.9 0c0 .55-.46 1-1 1-.56 0-1-.45-1-1s.44-1 1-1c.54 0 1 .45 1 1zm7.88 0c0 .55-.44 1-1 1-.55 0-1-.45-1-1s.45-1 1-1c.56 0 1 .45 1 1zm7.9 0c0 .55-.45 1-1 1s-1-.45-1-1 .45-1 1-1 1 .45 1 1zm7.9 0c0 .55-.46 1-1 1-.56 0-1-.45-1-1s.44-1 1-1c.54 0 1 .45 1 1zm7.9 0c0 .55-.46 1-1 1-.56 0-1-.45-1-1s.44-1 1-1c.54 0 1 .45 1 1zm7.88 0c0 .55-.45 1-1 1s-1-.45-1-1 .45-1 1-1 1 .45 1 1zm7.9 0c0 .55-.45 1-1 1-.56 0-1-.45-1-1s.44-1 1-1c.55 0 1 .45 1 1zm7.9 0c0 .55-.46 1-1 1-.56 0-1-.45-1-1s.44-1 1-1c.54 0 1 .45 1 1zm7.9 0c0 .55-.46 1-1 1-.57 0-1-.45-1-1s.43-1 1-1c.54 0 1 .45 1 1zm7.88 0c0 .55-.45 1-1 1s-1-.45-1-1 .45-1 1-1 1 .45 1 1zm7.9 0c0 .55-.45 1-1 1-.56 0-1-.45-1-1s.44-1 1-1c.55 0 1 .45 1 1zm7.9 0c0 .55-.46 1-1 1-.56 0-1-.45-1-1s.44-1 1-1c.54 0 1 .45 1 1zm7.9 0c0 .55-.46 1-1 1-.57 0-1-.45-1-1s.43-1 1-1c.54 0 1 .45 1 1zm7.88 0c0 .55-.45 1-1 1s-1-.45-1-1 .45-1 1-1 1 .45 1 1zm7.9 0c0 .55-.45 1-1 1-.56 0-1-.45-1-1s.44-1 1-1c.55 0 1 .45 1 1zm7.9 0c0 .55-.46 1-1 1-.56 0-1-.45-1-1s.44-1 1-1c.54 0 1 .45 1 1zm7.88 0c0 .55-.44 1-1 1-.55 0-1-.45-1-1s.45-1 1-1c.56 0 1 .45 1 1zm7.9 0c0 .55-.45 1-1 1s-1-.45-1-1 .45-1 1-1 1 .45 1 1zm7.9 0c0 .55-.45 1-1 1-.56 0-1-.45-1-1s.44-1 1-1c.55 0 1 .45 1 1zm7.9 0c0 .55-.46 1-1 1-.56 0-1-.45-1-1s.44-1 1-1c.54 0 1 .45 1 1zm7.88 0c0 .55-.44 1-1 1-.55 0-1-.45-1-1s.45-1 1-1c.56 0 1 .45 1 1zm7.9 0c0 .55-.45 1-1 1s-1-.45-1-1 .45-1 1-1 1 .45 1 1zm7.9 0c0 .55-.46 1-1 1-.56 0-1-.45-1-1s.44-1 1-1c.54 0 1 .45 1 1zm7.9 0c0 .55-.46 1-1 1-.56 0-1-.45-1-1s.44-1 1-1c.54 0 1 .45 1 1zm7.88 0c0 .55-.45 1-1 1s-1-.45-1-1 .45-1 1-1 1 .45 1 1zm7.9 0c0 .55-.45 1-1 1-.56 0-1-.45-1-1s.44-1 1-1c.55 0 1 .45 1 1zm7.9 0c0 .55-.46 1-1 1-.56 0-1-.45-1-1s.44-1 1-1c.54 0 1 .45 1 1zm7.9 0c0 .55-.46 1-1 1-.57 0-1-.45-1-1s.43-1 1-1c.54 0 1 .45 1 1zm7.88 0c0 .55-.45 1-1 1s-1-.45-1-1 .45-1 1-1 1 .45 1 1zm7.9 0c0 .55-.45 1-1 1-.56 0-1-.45-1-1s.44-1 1-1c.55 0 1 .45 1 1zm7.9 0c0 .55-.46 1-1 1-.56 0-1-.45-1-1s.44-1 1-1c.54 0 1 .45 1 1zm7.9 0c0 .55-.46 1-1 1-.57 0-1-.45-1-1s.43-1 1-1c.54 0 1 .45 1 1zm7.88 0c0 .55-.45 1-1 1s-1-.45-1-1 .45-1 1-1 1 .45 1 1z"/>
        <path d="M801.88 665c0-2.76 2.24-5 5-5h230c2.77 0 5 2.24 5 5v30c0 2.76-2.23 5-5 5h-230c-2.76 0-5-2.24-5-5z" fill="none"/>
        <use xlink:href="#q" transform="matrix(1,0,0,1,801.8848,660) translate(0 25.3333333333334)"/>
        <path d="M801.88 705c0-2.76 2.24-5 5-5h230c2.77 0 5 2.24 5 5v30c0 2.76-2.23 5-5 5h-230c-2.76 0-5-2.24-5-5z" fill="none"/>
        <g>
            <use xlink:href="#a" transform="matrix(1,0,0,1,801.8848,700) translate(0 25.3333333333334)"/>
        </g>
        <path d="M801.88 745c0-2.76 2.24-5 5-5h10c2.77 0 5 2.24 5 5v140c0 2.76-2.23 5-5 5h-10c-2.76 0-5-2.24-5-5z" fill="none"/>
        <g>
            <use xlink:href="#f" transform="matrix(1,0,0,1,801.8848,740) translate(0 21.3333333333336)"/>
            <use xlink:href="#f" transform="matrix(1,0,0,1,801.8848,740) translate(0 53.333333333334)"/>
            <use xlink:href="#f" transform="matrix(1,0,0,1,801.8848,740) translate(0 85.3333333333344)"/>
            <use xlink:href="#g" transform="matrix(1,0,0,1,801.8848,740) translate(0 117.33333333333479)"/>
        </g>
        <path d="M801.88 895c0-2.76 2.24-5 5-5h230c2.77 0 5 2.24 5 5v30c0 2.76-2.23 5-5 5h-230c-2.76 0-5-2.24-5-5z" fill="none"/>
        <g>
            <use xlink:href="#b" transform="matrix(1,0,0,1,801.8848,890) translate(0 25.3333333333334)"/>
        </g>
        <path d="M1100 880c11.05 0 20 8.95 20 20v10c0 11.05-8.95 20-20 20H800c-11.05 0-20-8.95-20-20v-10c0-11.05 8.95-20 20-20z" fill="none"/>
        <path d="M1117.24 890.04l1.74 3.65.97 4.86.05 1.44v10l-.62 4.96-1.82 4.6-.28.4m-7.32 7.28l-3.65 1.74-4.86.97-1.44.05h-10m-10 0h-20m-10 0h-20m-10 0h-20m-10 0h-20m-10 0h-20m-10 0h-20m-10 0h-20m-10 0h-20m-10 0h-20m-10 0h-10l-4.96-.62-4.6-1.82-.4-.28m-7.28-7.32l-1.74-3.65-.97-4.86L780 910v-10l.62-4.96 1.82-4.6.28-.4m7.32-7.28l3.65-1.74 4.86-.97L800 880h10m10 0h20m10 0h20m10 0h20m10 0h20m10 0h20m10 0h20m10 0h20m10 0h20m10 0h20m10 0h10l4.96.62 4.6 1.82.4.28" stroke="#000" stroke-width="2" fill="none"/>
        <path d="M360 980c5.52 0 10 4.48 10 10v20c0 5.52-4.48 10-10 10h-40c-5.52 0-10-4.48-10-10v-20c0-5.52 4.48-10 10-10z" fill="#ffe6cc"/>
        <path d="M361 980c0 .55-.45 1-1 1s-1-.45-1-1 .45-1 1-1 1 .45 1 1zm7 3c0 .56-.46 1-1 1-.56 0-1-.44-1-1 0-.54.44-1 1-1 .54 0 1 .46 1 1zm3 7c0 .55-.45 1-1 1s-1-.45-1-1 .45-1 1-1 1 .45 1 1zm0 6.67c0 .55-.45 1-1 1s-1-.45-1-1c0-.56.45-1 1-1s1 .44 1 1zm0 6.66c0 .56-.45 1-1 1s-1-.44-1-1c0-.55.45-1 1-1s1 .45 1 1zm0 6.67c0 .55-.45 1-1 1s-1-.45-1-1 .45-1 1-1 1 .45 1 1zm-3 7c0 .54-.46 1-1 1-.56 0-1-.46-1-1 0-.56.44-1 1-1 .54 0 1 .44 1 1zm-7 3c0 .55-.45 1-1 1s-1-.45-1-1 .45-1 1-1 1 .45 1 1zm-8 0c0 .55-.45 1-1 1s-1-.45-1-1 .45-1 1-1 1 .45 1 1zm-8 0c0 .55-.45 1-1 1s-1-.45-1-1 .45-1 1-1 1 .45 1 1zm-8 0c0 .55-.45 1-1 1s-1-.45-1-1 .45-1 1-1 1 .45 1 1zm-8 0c0 .55-.45 1-1 1s-1-.45-1-1 .45-1 1-1 1 .45 1 1zm-8 0c0 .55-.45 1-1 1s-1-.45-1-1 .45-1 1-1 1 .45 1 1zm-7-3c0 .54-.44 1-1 1-.54 0-1-.46-1-1 0-.56.46-1 1-1 .56 0 1 .44 1 1zm-3-7c0 .55-.45 1-1 1s-1-.45-1-1 .45-1 1-1 1 .45 1 1zm0-6.67c0 .56-.45 1-1 1s-1-.44-1-1c0-.55.45-1 1-1s1 .45 1 1zm0-6.66c0 .55-.45 1-1 1s-1-.45-1-1c0-.56.45-1 1-1s1 .44 1 1zm0-6.67c0 .55-.45 1-1 1s-1-.45-1-1 .45-1 1-1 1 .45 1 1zm3-7c0 .56-.44 1-1 1-.54 0-1-.44-1-1 0-.54.46-1 1-1 .56 0 1 .46 1 1zm7-3c0 .55-.45 1-1 1s-1-.45-1-1 .45-1 1-1 1 .45 1 1zm8 0c0 .55-.45 1-1 1s-1-.45-1-1 .45-1 1-1 1 .45 1 1zm8 0c0 .55-.45 1-1 1s-1-.45-1-1 .45-1 1-1 1 .45 1 1zm8 0c0 .55-.45 1-1 1s-1-.45-1-1 .45-1 1-1 1 .45 1 1zm8 0c0 .55-.45 1-1 1s-1-.45-1-1 .45-1 1-1 1 .45 1 1z"/>
        <path d="M360 965c0-2.76 2.24-5 5-5h310c2.76 0 5 2.24 5 5v50c0 2.76-2.24 5-5 5H365c-2.76 0-5-2.24-5-5z" fill="none"/>
        <g>
            <use xlink:href="#r" transform="matrix(1,0,0,1,360,960) translate(36.72839506172963 34.4444444444444)"/>
            <use xlink:href="#s" transform="matrix(1,0,0,1,360,960) translate(65.12345679012441 34.4444444444444)"/>
            <use xlink:href="#t" transform="matrix(1,0,0,1,360,960) translate(171.111111111111 34.4444444444444)"/>
        </g>
        <path d="M300 1035c0-2.76 2.24-5 5-5h310c2.76 0 5 2.24 5 5v50c0 2.76-2.24 5-5 5H305c-2.76 0-5-2.24-5-5z" fill="none"/>
        <g>
            <use xlink:href="#r" transform="matrix(1,0,0,1,300,1030) translate(98.98148148148209 34.4444444444444)"/>
            <use xlink:href="#u" transform="matrix(1,0,0,1,300,1030) translate(127.37654320987687 34.4444444444444)"/>
        </g>
        <path d="M360 1050c5.52 0 10 4.48 10 10v20c0 5.52-4.48 10-10 10h-40c-5.52 0-10-4.48-10-10v-20c0-5.52 4.48-10 10-10z" fill="none"/>
        <path d="M333.33 1090H320l-3.16-.5-2.75-1.43-2.17-2.16-1.42-2.74-.5-3.16v-20l.5-3.16 1.43-2.75 2.16-2.17 2.74-1.42 3.16-.5h13.33m13.34 0H360l3.16.5 2.75 1.43 2.17 2.16 1.42 2.74.5 3.16v20l-.5 3.16-1.43 2.75-2.16 2.17-2.74 1.42-3.16.5h-13.33" stroke="#000" stroke-width="2" fill="none"/>
        <defs>
            <path d="M24 0v-248h52v208h133V0H24" id="v"/>
            <path d="M88-194c31-1 46 15 58 34l-1-101h50l1 261h-48c-2-10 0-23-3-31C134-8 116 4 84 4 32 4 16-41 15-95c0-56 19-97 73-99zm17 164c33 0 40-30 41-66 1-37-9-64-41-64s-38 30-39 65c0 43 13 65 39 65" id="w"/>
            <path d="M25 0v-261h50V0H25" id="x"/>
            <path d="M110-194c64 0 96 36 96 99 0 64-35 99-97 99-61 0-95-36-95-99 0-62 34-99 96-99zm-1 164c35 0 45-28 45-65 0-40-10-65-43-65-34 0-45 26-45 65 0 36 10 65 43 65" id="y"/>
            <path d="M190-63c-7 42-38 67-86 67-59 0-84-38-90-98-12-110 154-137 174-36l-49 2c-2-19-15-32-35-32-30 0-35 28-38 64-6 74 65 87 74 30" id="z"/>
            <path d="M24 0v-54h51V0H24" id="A"/>
            <path d="M135-194c87-1 58 113 63 194h-50c-7-57 23-157-34-157-59 0-34 97-39 157H25l-1-190h47c2 12-1 28 3 38 12-26 28-41 61-42" id="B"/>
            <g id="a">
                <use transform="matrix(0.074074074074075,0,0,0.074074074074075,0,0)" xlink:href="#v"/>
                <use transform="matrix(0.074074074074075,0,0,0.074074074074075,16.222222222222424,0)" xlink:href="#w"/>
                <use transform="matrix(0.074074074074075,0,0,0.074074074074075,32.44444444444485,0)" xlink:href="#x"/>
                <use transform="matrix(0.074074074074075,0,0,0.074074074074075,39.85185185185234,0)" xlink:href="#y"/>
                <use transform="matrix(0.074074074074075,0,0,0.074074074074075,56.07407407407477,0)" xlink:href="#z"/>
                <use transform="matrix(0.074074074074075,0,0,0.074074074074075,70.88888888888977,0)" xlink:href="#A"/>
                <use transform="matrix(0.074074074074075,0,0,0.074074074074075,78.29629629629727,0)" xlink:href="#B"/>
            </g>
            <path d="M169-182c-1-43-94-46-97-3 18 66 151 10 154 114 3 95-165 93-204 36-6-8-10-19-12-30l50-8c3 46 112 56 116 5-17-69-150-10-154-114-4-87 153-88 188-35 5 8 8 18 10 28" id="C"/>
            <path d="M115-3C79 11 28 4 28-45v-112H4v-33h27l15-45h31v45h36v33H77v99c-1 23 16 31 38 25v30" id="D"/>
            <g id="b">
                <use transform="matrix(0.074074074074075,0,0,0.074074074074075,0,0)" xlink:href="#C"/>
                <use transform="matrix(0.074074074074075,0,0,0.074074074074075,17.777777777778,0)" xlink:href="#D"/>
                <use transform="matrix(0.074074074074075,0,0,0.074074074074075,26.592592592592922,0)" xlink:href="#x"/>
                <use transform="matrix(0.074074074074075,0,0,0.074074074074075,34.00000000000042,0)" xlink:href="#y"/>
                <use transform="matrix(0.074074074074075,0,0,0.074074074074075,50.22222222222284,0)" xlink:href="#z"/>
                <use transform="matrix(0.074074074074075,0,0,0.074074074074075,65.03703703703783,0)" xlink:href="#A"/>
                <use transform="matrix(0.074074074074075,0,0,0.074074074074075,72.44444444444534,0)" xlink:href="#B"/>
            </g>
            <path fill="#33f" d="M24 0v-248h52v208h133V0H24" id="E"/>
            <path fill="#33f" d="M88-194c31-1 46 15 58 34l-1-101h50l1 261h-48c-2-10 0-23-3-31C134-8 116 4 84 4 32 4 16-41 15-95c0-56 19-97 73-99zm17 164c33 0 40-30 41-66 1-37-9-64-41-64s-38 30-39 65c0 43 13 65 39 65" id="F"/>
            <path fill="#33f" d="M133-34C117-15 103 5 69 4 32 3 11-16 11-54c-1-60 55-63 116-61 1-26-3-47-28-47-18 1-26 9-28 27l-52-2c7-38 36-58 82-57s74 22 75 68l1 82c-1 14 12 18 25 15v27c-30 8-71 5-69-32zm-48 3c29 0 43-24 42-57-32 0-66-3-65 30 0 17 8 27 23 27" id="G"/>
            <path fill="#33f" d="M135-150c-39-12-60 13-60 57V0H25l-1-190h47c2 13-1 29 3 40 6-28 27-53 61-41v41" id="H"/>
            <path fill="#33f" d="M195-6C206 82 75 100 31 46c-4-6-6-13-8-21l49-6c3 16 16 24 34 25 40 0 42-37 40-79-11 22-30 35-61 35-53 0-70-43-70-97 0-56 18-96 73-97 30 0 46 14 59 34l2-30h47zm-90-29c32 0 41-27 41-63 0-35-9-62-40-62-32 0-39 29-40 63 0 36 9 62 39 62" id="I"/>
            <g id="c">
                <use transform="matrix(0.074074074074075,0,0,0.074074074074075,0,0)" xlink:href="#E"/>
                <use transform="matrix(0.074074074074075,0,0,0.074074074074075,16.222222222222424,0)" xlink:href="#F"/>
                <use transform="matrix(0.074074074074075,0,0,0.074074074074075,32.44444444444485,0)" xlink:href="#G"/>
                <use transform="matrix(0.074074074074075,0,0,0.074074074074075,47.25925925925985,0)" xlink:href="#H"/>
                <use transform="matrix(0.074074074074075,0,0,0.074074074074075,57.62962962963035,0)" xlink:href="#I"/>
            </g>
            <path fill="#33f" d="M100-194c62-1 85 37 85 99 1 63-27 99-86 99S16-35 15-95c0-66 28-99 85-99zM99-20c44 1 53-31 53-75 0-43-8-75-51-75s-53 32-53 75 10 74 51 75" id="J"/>
            <path fill="#33f" d="M114-163C36-179 61-72 57 0H25l-1-190h30c1 12-1 29 2 39 6-27 23-49 58-41v29" id="K"/>
            <g id="d">
                <use transform="matrix(0.074074074074075,0,0,0.074074074074075,0,0)" xlink:href="#J"/>
                <use transform="matrix(0.074074074074075,0,0,0.074074074074075,14.814814814815,0)" xlink:href="#K"/>
            </g>
            <path fill="#33f" d="M190-63c-7 42-38 67-86 67-59 0-84-38-90-98-12-110 154-137 174-36l-49 2c-2-19-15-32-35-32-30 0-35 28-38 64-6 74 65 87 74 30" id="L"/>
            <path fill="#33f" d="M-4 44V30h207v14H-4" id="M"/>
            <path fill="#33f" d="M240-174c0 40-23 61-54 70L253 0h-59l-57-94H76V0H24v-248c93 4 217-23 216 74zM76-134c48-2 112 12 112-38 0-48-66-32-112-35v73" id="N"/>
            <path fill="#33f" d="M138-131c27 9 52 24 51 61 0 53-36 74-89 74S11-19 11-69c0-35 22-54 51-61-78-25-46-121 38-121 51 0 83 19 83 66 0 30-18 49-45 54zm-38-16c24 0 32-13 32-36 1-23-11-34-32-34-22 0-33 12-32 34 0 22 9 36 32 36zm1 116c27 0 37-17 37-43 0-25-13-39-39-39-24 0-37 15-37 40 0 27 11 42 39 42" id="O"/>
            <g id="e">
                <use transform="matrix(0.074074074074075,0,0,0.074074074074075,0,0)" xlink:href="#E"/>
                <use transform="matrix(0.074074074074075,0,0,0.074074074074075,16.222222222222424,0)" xlink:href="#F"/>
                <use transform="matrix(0.074074074074075,0,0,0.074074074074075,32.44444444444485,0)" xlink:href="#L"/>
                <use transform="matrix(0.074074074074075,0,0,0.074074074074075,47.25925925925985,0)" xlink:href="#M"/>
                <use transform="matrix(0.074074074074075,0,0,0.074074074074075,62.07407407407485,0)" xlink:href="#N"/>
                <use transform="matrix(0.074074074074075,0,0,0.074074074074075,81.25925925926028,0)" xlink:href="#O"/>
            </g>
            <use transform="matrix(0.074074074074075,0,0,0.074074074074075,0,0)" xlink:href="#A" id="f"/>
            <use transform="matrix(0.074074074074075,0,0,0.074074074074075,0,0)" xlink:href="#A" id="g"/>
            <path fill="#999" d="M24 0v-248h52v208h133V0H24" id="P"/>
            <path fill="#999" d="M88-194c31-1 46 15 58 34l-1-101h50l1 261h-48c-2-10 0-23-3-31C134-8 116 4 84 4 32 4 16-41 15-95c0-56 19-97 73-99zm17 164c33 0 40-30 41-66 1-37-9-64-41-64s-38 30-39 65c0 43 13 65 39 65" id="Q"/>
            <path fill="#999" d="M25 0v-261h50V0H25" id="R"/>
            <path fill="#999" d="M110-194c64 0 96 36 96 99 0 64-35 99-97 99-61 0-95-36-95-99 0-62 34-99 96-99zm-1 164c35 0 45-28 45-65 0-40-10-65-43-65-34 0-45 26-45 65 0 36 10 65 43 65" id="S"/>
            <path fill="#999" d="M190-63c-7 42-38 67-86 67-59 0-84-38-90-98-12-110 154-137 174-36l-49 2c-2-19-15-32-35-32-30 0-35 28-38 64-6 74 65 87 74 30" id="T"/>
            <path fill="#999" d="M24 0v-54h51V0H24" id="U"/>
            <path fill="#999" d="M135-194c87-1 58 113 63 194h-50c-7-57 23-157-34-157-59 0-34 97-39 157H25l-1-190h47c2 12-1 28 3 38 12-26 28-41 61-42" id="V"/>
            <g id="h">
                <use transform="matrix(0.074074074074075,0,0,0.074074074074075,0,0)" xlink:href="#P"/>
                <use transform="matrix(0.074074074074075,0,0,0.074074074074075,16.222222222222424,0)" xlink:href="#Q"/>
                <use transform="matrix(0.074074074074075,0,0,0.074074074074075,32.44444444444485,0)" xlink:href="#R"/>
                <use transform="matrix(0.074074074074075,0,0,0.074074074074075,39.85185185185234,0)" xlink:href="#S"/>
                <use transform="matrix(0.074074074074075,0,0,0.074074074074075,56.07407407407477,0)" xlink:href="#T"/>
                <use transform="matrix(0.074074074074075,0,0,0.074074074074075,70.88888888888977,0)" xlink:href="#U"/>
                <use transform="matrix(0.074074074074075,0,0,0.074074074074075,78.29629629629727,0)" xlink:href="#V"/>
            </g>
            <path d="M287-57c-19 10-34 24-48 39h-13c7-13 13-24 21-34H73v-15h174c-8-10-14-22-21-35h13c14 15 28 30 48 39v6" id="W"/>
            <g id="i">
                <use transform="matrix(0.074074074074075,0,0,0.074074074074075,0,0)" xlink:href="#W"/>
                <use transform="matrix(0.074074074074075,0,0,0.074074074074075,26.666666666667,0)" xlink:href="#E"/>
                <use transform="matrix(0.074074074074075,0,0,0.074074074074075,42.888888888889426,0)" xlink:href="#F"/>
                <use transform="matrix(0.074074074074075,0,0,0.074074074074075,59.11111111111185,0)" xlink:href="#G"/>
                <use transform="matrix(0.074074074074075,0,0,0.074074074074075,73.92592592592685,0)" xlink:href="#H"/>
                <use transform="matrix(0.074074074074075,0,0,0.074074074074075,84.29629629629736,0)" xlink:href="#I"/>
            </g>
            <path fill="#33f" d="M25 0v-261h50V0H25" id="X"/>
            <path fill="#33f" d="M110-194c64 0 96 36 96 99 0 64-35 99-97 99-61 0-95-36-95-99 0-62 34-99 96-99zm-1 164c35 0 45-28 45-65 0-40-10-65-43-65-34 0-45 26-45 65 0 36 10 65 43 65" id="Y"/>
            <path fill="#33f" d="M24 0v-54h51V0H24" id="Z"/>
            <path fill="#33f" d="M135-194c87-1 58 113 63 194h-50c-7-57 23-157-34-157-59 0-34 97-39 157H25l-1-190h47c2 12-1 28 3 38 12-26 28-41 61-42" id="aa"/>
            <g id="j">
                <use transform="matrix(0.074074074074075,0,0,0.074074074074075,0,0)" xlink:href="#E"/>
                <use transform="matrix(0.074074074074075,0,0,0.074074074074075,16.222222222222424,0)" xlink:href="#F"/>
                <use transform="matrix(0.074074074074075,0,0,0.074074074074075,32.44444444444485,0)" xlink:href="#X"/>
                <use transform="matrix(0.074074074074075,0,0,0.074074074074075,39.85185185185234,0)" xlink:href="#Y"/>
                <use transform="matrix(0.074074074074075,0,0,0.074074074074075,56.07407407407477,0)" xlink:href="#L"/>
                <use transform="matrix(0.074074074074075,0,0,0.074074074074075,70.88888888888977,0)" xlink:href="#Z"/>
                <use transform="matrix(0.074074074074075,0,0,0.074074074074075,78.29629629629727,0)" xlink:href="#aa"/>
            </g>
            <path d="M147 0L96-86 75-71V0H25v-261h50v150l67-79h53l-66 74L201 0h-54" id="ab"/>
            <g id="k">
                <use transform="matrix(0.074074074074075,0,0,0.074074074074075,0,0)" xlink:href="#C"/>
                <use transform="matrix(0.074074074074075,0,0,0.074074074074075,17.777777777778,0)" xlink:href="#D"/>
                <use transform="matrix(0.074074074074075,0,0,0.074074074074075,26.592592592592922,0)" xlink:href="#x"/>
                <use transform="matrix(0.074074074074075,0,0,0.074074074074075,34.00000000000042,0)" xlink:href="#y"/>
                <use transform="matrix(0.074074074074075,0,0,0.074074074074075,50.22222222222284,0)" xlink:href="#z"/>
                <use transform="matrix(0.074074074074075,0,0,0.074074074074075,65.03703703703783,0)" xlink:href="#A"/>
                <use transform="matrix(0.074074074074075,0,0,0.074074074074075,72.44444444444534,0)" xlink:href="#ab"/>
            </g>
            <path fill="#999" d="M147 0L96-86 75-71V0H25v-261h50v150l67-79h53l-66 74L201 0h-54" id="ac"/>
            <g id="l">
                <use transform="matrix(0.074074074074075,0,0,0.074074074074075,0,0)" xlink:href="#P"/>
                <use transform="matrix(0.074074074074075,0,0,0.074074074074075,16.222222222222424,0)" xlink:href="#Q"/>
                <use transform="matrix(0.074074074074075,0,0,0.074074074074075,32.44444444444485,0)" xlink:href="#R"/>
                <use transform="matrix(0.074074074074075,0,0,0.074074074074075,39.85185185185234,0)" xlink:href="#S"/>
                <use transform="matrix(0.074074074074075,0,0,0.074074074074075,56.07407407407477,0)" xlink:href="#T"/>
                <use transform="matrix(0.074074074074075,0,0,0.074074074074075,70.88888888888977,0)" xlink:href="#U"/>
                <use transform="matrix(0.074074074074075,0,0,0.074074074074075,78.29629629629727,0)" xlink:href="#ac"/>
            </g>
            <g id="m">
                <use transform="matrix(0.074074074074075,0,0,0.074074074074075,0,0)" xlink:href="#W"/>
                <use transform="matrix(0.074074074074075,0,0,0.074074074074075,26.666666666667,0)" xlink:href="#E"/>
                <use transform="matrix(0.074074074074075,0,0,0.074074074074075,42.888888888889426,0)" xlink:href="#F"/>
                <use transform="matrix(0.074074074074075,0,0,0.074074074074075,59.11111111111185,0)" xlink:href="#X"/>
                <use transform="matrix(0.074074074074075,0,0,0.074074074074075,66.51851851851936,0)" xlink:href="#Y"/>
                <use transform="matrix(0.074074074074075,0,0,0.074074074074075,82.74074074074178,0)" xlink:href="#L"/>
                <use transform="matrix(0.074074074074075,0,0,0.074074074074075,97.55555555555678,0)" xlink:href="#Z"/>
                <use transform="matrix(0.074074074074075,0,0,0.074074074074075,104.9629629629643,0)" xlink:href="#aa"/>
            </g>
            <g id="n">
                <use transform="matrix(0.074074074074075,0,0,0.074074074074075,0,0)" xlink:href="#C"/>
                <use transform="matrix(0.074074074074075,0,0,0.074074074074075,17.777777777778,0)" xlink:href="#D"/>
                <use transform="matrix(0.074074074074075,0,0,0.074074074074075,26.592592592592922,0)" xlink:href="#x"/>
                <use transform="matrix(0.074074074074075,0,0,0.074074074074075,34.00000000000042,0)" xlink:href="#y"/>
                <use transform="matrix(0.074074074074075,0,0,0.074074074074075,50.22222222222284,0)" xlink:href="#z"/>
                <use transform="matrix(0.074074074074075,0,0,0.074074074074075,65.03703703703783,0)" xlink:href="#A"/>
                <use transform="matrix(0.074074074074075,0,0,0.074074074074075,72.44444444444534,0)" xlink:href="#B"/>
            </g>
            <path d="M100-194c62-1 85 37 85 99 1 63-27 99-86 99S16-35 15-95c0-66 28-99 85-99zM99-20c44 1 53-31 53-75 0-43-8-75-51-75s-53 32-53 75 10 74 51 75" id="ad"/>
            <path d="M114-163C36-179 61-72 57 0H25l-1-190h30c1 12-1 29 2 39 6-27 23-49 58-41v29" id="ae"/>
            <g id="o">
                <use transform="matrix(0.074074074074075,0,0,0.074074074074075,0,0)" xlink:href="#ad"/>
                <use transform="matrix(0.074074074074075,0,0,0.074074074074075,14.814814814815,0)" xlink:href="#ae"/>
            </g>
            <g id="p">
                <use transform="matrix(0.074074074074075,0,0,0.074074074074075,0,0)" xlink:href="#C"/>
                <use transform="matrix(0.074074074074075,0,0,0.074074074074075,17.777777777778,0)" xlink:href="#D"/>
                <use transform="matrix(0.074074074074075,0,0,0.074074074074075,26.592592592592922,0)" xlink:href="#x"/>
                <use transform="matrix(0.074074074074075,0,0,0.074074074074075,34.00000000000042,0)" xlink:href="#y"/>
                <use transform="matrix(0.074074074074075,0,0,0.074074074074075,50.22222222222284,0)" xlink:href="#z"/>
                <use transform="matrix(0.074074074074075,0,0,0.074074074074075,65.03703703703783,0)" xlink:href="#A"/>
                <use transform="matrix(0.074074074074075,0,0,0.074074074074075,72.44444444444534,0)" xlink:href="#ab"/>
            </g>
            <path fill="#33f" d="M169-182c-1-43-94-46-97-3 18 66 151 10 154 114 3 95-165 93-204 36-6-8-10-19-12-30l50-8c3 46 112 56 116 5-17-69-150-10-154-114-4-87 153-88 188-35 5 8 8 18 10 28" id="af"/>
            <path fill="#33f" d="M115-3C79 11 28 4 28-45v-112H4v-33h27l15-45h31v45h36v33H77v99c-1 23 16 31 38 25v30" id="ag"/>
            <g id="q">
                <use transform="matrix(0.074074074074075,0,0,0.074074074074075,0,0)" xlink:href="#af"/>
                <use transform="matrix(0.074074074074075,0,0,0.074074074074075,17.777777777778,0)" xlink:href="#ag"/>
                <use transform="matrix(0.074074074074075,0,0,0.074074074074075,26.592592592592922,0)" xlink:href="#X"/>
                <use transform="matrix(0.074074074074075,0,0,0.074074074074075,34.00000000000042,0)" xlink:href="#Y"/>
                <use transform="matrix(0.074074074074075,0,0,0.074074074074075,50.22222222222284,0)" xlink:href="#L"/>
                <use transform="matrix(0.074074074074075,0,0,0.074074074074075,65.03703703703783,0)" xlink:href="#Z"/>
                <use transform="matrix(0.074074074074075,0,0,0.074074074074075,72.44444444444534,0)" xlink:href="#aa"/>
            </g>
            <path d="M0-79v-24h360v24H0" id="ah"/>
            <use transform="matrix(0.06172839506172778,0,0,0.06172839506172778,0,0)" xlink:href="#ah" id="r"/>
            <path d="M233-177c-1 41-23 64-60 70L243 0h-38l-65-103H63V0H30v-248c88 3 205-21 203 71zM63-129c60-2 137 13 137-47 0-61-80-42-137-45v92" id="ai"/>
            <path d="M100-194c63 0 86 42 84 106H49c0 40 14 67 53 68 26 1 43-12 49-29l28 8c-11 28-37 45-77 45C44 4 14-33 15-96c1-61 26-98 85-98zm52 81c6-60-76-77-97-28-3 7-6 17-6 28h103" id="aj"/>
            <path d="M210-169c-67 3-38 105-44 169h-31v-121c0-29-5-50-35-48C34-165 62-65 56 0H25l-1-190h30c1 10-1 24 2 32 10-44 99-50 107 0 11-21 27-35 58-36 85-2 47 119 55 194h-31v-121c0-29-5-49-35-48" id="ak"/>
            <path d="M108 0H70L1-190h34L89-25l56-165h34" id="al"/>
            <path d="M24-231v-30h32v30H24zM24 0v-190h32V0H24" id="am"/>
            <path d="M117-194c89-4 53 116 60 194h-32v-121c0-31-8-49-39-48C34-167 62-67 57 0H25l-1-190h30c1 10-1 24 2 32 11-22 29-35 61-36" id="an"/>
            <path d="M177-190C167-65 218 103 67 71c-23-6-38-20-44-43l32-5c15 47 100 32 89-28v-30C133-14 115 1 83 1 29 1 15-40 15-95c0-56 16-97 71-98 29-1 48 16 59 35 1-10 0-23 2-32h30zM94-22c36 0 50-32 50-73 0-42-14-75-50-75-39 0-46 34-46 75s6 73 46 73" id="ao"/>
            <g id="s">
                <use transform="matrix(0.06172839506172778,0,0,0.06172839506172778,0,0)" xlink:href="#ai"/>
                <use transform="matrix(0.06172839506172778,0,0,0.06172839506172778,15.987654320987495,0)" xlink:href="#aj"/>
                <use transform="matrix(0.06172839506172778,0,0,0.06172839506172778,28.33333333333305,0)" xlink:href="#ak"/>
                <use transform="matrix(0.06172839506172778,0,0,0.06172839506172778,46.79012345678966,0)" xlink:href="#ad"/>
                <use transform="matrix(0.06172839506172778,0,0,0.06172839506172778,59.135802469135214,0)" xlink:href="#al"/>
                <use transform="matrix(0.06172839506172778,0,0,0.06172839506172778,70.24691358024621,0)" xlink:href="#am"/>
                <use transform="matrix(0.06172839506172778,0,0,0.06172839506172778,75.1234567901227,0)" xlink:href="#an"/>
                <use transform="matrix(0.06172839506172778,0,0,0.06172839506172778,87.46913580246826,0)" xlink:href="#ao"/>
            </g>
            <path d="M135-143c-3-34-86-38-87 0 15 53 115 12 119 90S17 21 10-45l28-5c4 36 97 45 98 0-10-56-113-15-118-90-4-57 82-63 122-42 12 7 21 19 24 35" id="ap"/>
            <path d="M59-47c-2 24 18 29 38 22v24C64 9 27 4 27-40v-127H5v-23h24l9-43h21v43h35v23H59v120" id="aq"/>
            <path d="M84 4C-5 8 30-112 23-190h32v120c0 31 7 50 39 49 72-2 45-101 50-169h31l1 190h-30c-1-10 1-25-2-33-11 22-28 36-60 37" id="ar"/>
            <path d="M96-169c-40 0-48 33-48 73s9 75 48 75c24 0 41-14 43-38l32 2c-6 37-31 61-74 61-59 0-76-41-82-99-10-93 101-131 147-64 4 7 5 14 7 22l-32 3c-4-21-16-35-41-35" id="as"/>
            <g id="t">
                <use transform="matrix(0.06172839506172778,0,0,0.06172839506172778,0,0)" xlink:href="#am"/>
                <use transform="matrix(0.06172839506172778,0,0,0.06172839506172778,4.876543209876495,0)" xlink:href="#an"/>
                <use transform="matrix(0.06172839506172778,0,0,0.06172839506172778,17.22222222222205,0)" xlink:href="#ap"/>
                <use transform="matrix(0.06172839506172778,0,0,0.06172839506172778,28.33333333333305,0)" xlink:href="#aq"/>
                <use transform="matrix(0.06172839506172778,0,0,0.06172839506172778,34.50617283950583,0)" xlink:href="#ae"/>
                <use transform="matrix(0.06172839506172778,0,0,0.06172839506172778,41.851851851851436,0)" xlink:href="#ar"/>
                <use transform="matrix(0.06172839506172778,0,0,0.06172839506172778,54.19753086419699,0)" xlink:href="#as"/>
                <use transform="matrix(0.06172839506172778,0,0,0.06172839506172778,65.30864197530799,0)" xlink:href="#aq"/>
                <use transform="matrix(0.06172839506172778,0,0,0.06172839506172778,71.48148148148077,0)" xlink:href="#am"/>
                <use transform="matrix(0.06172839506172778,0,0,0.06172839506172778,76.35802469135726,0)" xlink:href="#ad"/>
                <use transform="matrix(0.06172839506172778,0,0,0.06172839506172778,88.70370370370281,0)" xlink:href="#an"/>
                <use transform="matrix(0.06172839506172778,0,0,0.06172839506172778,101.04938271604837,0)" xlink:href="#ap"/>
            </g>
            <path d="M212-179c-10-28-35-45-73-45-59 0-87 40-87 99 0 60 29 101 89 101 43 0 62-24 78-52l27 14C228-24 195 4 139 4 59 4 22-46 18-125c-6-104 99-153 187-111 19 9 31 26 39 46" id="at"/>
            <path d="M85-194c31 0 48 13 60 33l-1-100h32l1 261h-30c-2-10 0-23-3-31C134-8 116 4 85 4 32 4 16-35 15-94c0-66 23-100 70-100zm9 24c-40 0-46 34-46 75 0 40 6 74 45 74 42 0 51-32 51-76 0-42-9-74-50-73" id="au"/>
            <g id="u">
                <use transform="matrix(0.06172839506172778,0,0,0.06172839506172778,0,0)" xlink:href="#at"/>
                <use transform="matrix(0.06172839506172778,0,0,0.06172839506172778,15.987654320987495,0)" xlink:href="#ad"/>
                <use transform="matrix(0.06172839506172778,0,0,0.06172839506172778,28.33333333333305,0)" xlink:href="#an"/>
                <use transform="matrix(0.06172839506172778,0,0,0.06172839506172778,40.67901234567861,0)" xlink:href="#au"/>
                <use transform="matrix(0.06172839506172778,0,0,0.06172839506172778,53.024691358024164,0)" xlink:href="#am"/>
                <use transform="matrix(0.06172839506172778,0,0,0.06172839506172778,57.90123456790066,0)" xlink:href="#aq"/>
                <use transform="matrix(0.06172839506172778,0,0,0.06172839506172778,64.07407407407344,0)" xlink:href="#am"/>
                <use transform="matrix(0.06172839506172778,0,0,0.06172839506172778,68.95061728394992,0)" xlink:href="#ad"/>
                <use transform="matrix(0.06172839506172778,0,0,0.06172839506172778,81.29629629629548,0)" xlink:href="#an"/>
            </g>
        </defs>
    </g>
</svg>