<svg xmlns="http://www.w3.org/2000/svg" xmlns:xlink="http://www.w3.org/1999/xlink" xmlns:lucid="lucid" width="456" height="453">
    <g transform="translate(-109 -351)" lucid:page-tab-id="0_0">
        <path d="M310 402.5c0 15.2-12.3 27.5-27.5 27.5S255 417.7 255 402.5s12.3-27.5 27.5-27.5 27.5 12.3 27.5 27.5z" stroke="#000" fill="#cfc"/>
        <use xlink:href="#a" transform="matrix(1,0,0,1,275,375) translate(2.25 31.1)"/>
        <path d="M385 517.5c0 15.2-12.3 27.5-27.5 27.5S330 532.7 330 517.5s12.3-27.5 27.5-27.5 27.5 12.3 27.5 27.5z" stroke="#000" fill="#cfc"/>
        <use xlink:href="#a" transform="matrix(1,0,0,1,350,490) translate(2.25 31.1)"/>
        <path d="M282.5 430.5l.04 1.13.1 1.1.18 1.04.25 1.03.3 1.02.4 1.02.48 1.02.57 1.05.7 1.1.8 1.1 1 1.2 1.24 1.27 1.53 1.4 1.95 1.54 2.6 1.8 3.6 2.14 5.7 2.87 37.8 16.26 3.6 2.15 2.6 1.8 1.96 1.54.2.18" stroke="#000" fill="none"/>
        <path d="M282.5 430l.3-.02.15.3-.9.43-.37-.77zM356.76 488.06l-10.68-10.53 8.23-4.27z"/>
        <path d="M357.5 489.5l-12.26-12.1 9.45-4.9zm-10.58-11.85l9.1 8.98-2.1-12.6z"/>
        <path d="M357.5 545.5l.03.9.07.85.13.83.17.82.22.82.27.8.32.83.4.82.45.85.55.87.64.9.76.94.9 1 1.1 1.07 1.34 1.18 1.66 1.3 2.13 1.44 2.8 1.68 3.9 2.03 6.06 2.72 15.57 5.8 21.62 7.9 6.05 2.72 3.9 2.03 2.8 1.68 2.13 1.45 1.1.85" stroke="#000" fill="none"/>
        <path d="M357.5 545l.3-.02.14.3-.88.45-.42-.8zM441.7 603.1L430.6 593l8.07-4.6z"/>
        <path d="M442.5 604.5l-12.73-11.6 9.25-5.27zm-11.04-11.42l9.44 8.6-2.58-12.5z"/>
        <path d="M470 632.5c0 15.2-12.3 27.5-27.5 27.5S415 647.7 415 632.5s12.3-27.5 27.5-27.5 27.5 12.3 27.5 27.5z" stroke="#000" fill="#cfc"/>
        <use xlink:href="#a" transform="matrix(1,0,0,1,435,605) translate(2.25 31.1)"/>
        <path d="M210 517.5c0 15.2-12.3 27.5-27.5 27.5S155 532.7 155 517.5s12.3-27.5 27.5-27.5 27.5 12.3 27.5 27.5z" stroke="#000" fill="#e6ffcc"/>
        <use xlink:href="#b" transform="matrix(1,0,0,1,175,490) translate(4.525 31.1)"/>
        <path d="M282.5 430.5l-.02.65-.04.62-.08.62-.1.6-.15.6-.16.6-.2.6-.24.62-.28.62-.32.63-.38.64-.43.68-.5.7-.6.7-.66.77-.8.8-.92.86-1.1.94-1.36 1-1.65 1.13-2.07 1.26-2.67 1.45-3.6 1.7-5.16 2.15-8.6 3.07-44.4 14.07-5.16 2.14-3.6 1.72-2.67 1.45-2.08 1.26-1.4.94" stroke="#000" fill="none"/>
        <path d="M282.93 430.75l-.86-.5.16-.27.27.02.9-.05zM194.97 478.62l-11.6 9.52 3.8-14.52z"/>
        <path d="M195.82 478.57L182.5 489.5l4.35-16.67zm-11.57 8.2l9.87-8.1-6.65-4.25z"/>
        <path d="M210 632.5c0 15.2-12.3 27.5-27.5 27.5S155 647.7 155 632.5s12.3-27.5 27.5-27.5 27.5 12.3 27.5 27.5z" stroke="#000" fill="#cce5ff"/>
        <use xlink:href="#c" transform="matrix(1,0,0,1,175,605) translate(2.5 31.1)"/>
        <path d="M182.5 545.5v42.38" stroke="#000" fill="none"/>
        <path d="M182.5 545l.5-.03v.53h-1v-.55zM182.5 602.88l-4.64-14.26h9.28z"/>
        <path d="M182.5 604.5l-5.32-16.38h10.64zm-3.95-15.38l3.95 12.14 3.95-12.14z"/>
        <path d="M442.5 660.5l.06 1.76.18 1.67.3 1.6.38 1.54.5 1.5.63 1.52.76 1.5.93 1.54 1.1 1.6 1.36 1.68 1.67 1.8 2.14 1.98 2.83 2.26 3.97 2.75 6.58 3.88 29.82 15.7 3.97 2.76 2.82 2.26 2.13 1.98 1.68 1.8.54.66" stroke="#000" fill="none"/>
        <path d="M442.5 660l.35-.02.12.36-.94.32-.25-.72zM511.94 727.98l-9.3-11.76 8.68-3.23z"/>
        <path d="M512.5 729.5L501.8 716l10-3.7zm-9.05-13.05l7.92 10.02-.52-12.77z"/>
        <path d="M540 757.5c0 15.2-12.3 27.5-27.5 27.5S485 772.7 485 757.5s12.3-27.5 27.5-27.5 27.5 12.3 27.5 27.5z" stroke="#000" fill="#cce5ff"/>
        <use xlink:href="#c" transform="matrix(1,0,0,1,505,730) translate(2.5 31.1)"/>
        <path d="M400 757.5c0 15.2-12.3 27.5-27.5 27.5S345 772.7 345 757.5s12.3-27.5 27.5-27.5 27.5 12.3 27.5 27.5z" stroke="#000" fill="#cce5ff"/>
        <use xlink:href="#d" transform="matrix(1,0,0,1,365,730) translate(2.5 31.1)"/>
        <path d="M442.5 660.5l-.06 1.76-.18 1.67-.3 1.6-.38 1.54-.5 1.5-.63 1.52-.76 1.5-.93 1.54-1.1 1.6-1.36 1.68-1.67 1.8-2.14 1.98-2.83 2.26-3.97 2.75-6.58 3.88-29.82 15.7-3.97 2.76-2.82 2.26-2.13 1.98-1.68 1.8-.54.66" stroke="#000" fill="none"/>
        <path d="M442.97 660.66l-.94-.32.12-.37.35.03.7-.04zM382.37 716.22l-9.3 11.76.6-15z"/>
        <path d="M383.2 716l-10.7 13.5.7-17.2zm-9.57 10.47l7.92-10.02-7.4-2.75z"/>
        <path d="M315 637.5c0 15.2-12.3 27.5-27.5 27.5S260 652.7 260 637.5s12.3-27.5 27.5-27.5 27.5 12.3 27.5 27.5z" stroke="#000" fill="#cce5ff"/>
        <use xlink:href="#e" transform="matrix(1,0,0,1,280,610) translate(3 31.1)"/>
        <path d="M357.5 545.5l-.05 1.52-.16 1.45-.26 1.38-.34 1.35-.45 1.33-.54 1.32-.66 1.33-.8 1.37-1 1.4-1.2 1.5-1.48 1.6-1.88 1.74-2.46 1.96-3.4 2.34-5.2 3.07-35.45 17.73-3.4 2.34-2.45 1.97-1.88 1.76-.6.64" stroke="#000" fill="none"/>
        <path d="M357.97 545.68l-.94-.36.14-.35.33.03.74-.04zM298 596.7l-9.87 11.3 1.33-14.93z"/>
        <path d="M298.82 596.5l-11.32 13 1.52-17.16zm-10.05 10.02l8.4-9.63-7.27-3.1z"/>
        <defs>
            <path d="M118-107v75H92v-75H18v-26h74v-75h26v75h74v26h-74" id="f"/>
            <use transform="matrix(0.05,0,0,0.05,0,0)" xlink:href="#f" id="a"/>
            <path d="M16-82v-28h88v28H16" id="g"/>
            <use transform="matrix(0.05,0,0,0.05,0,0)" xlink:href="#g" id="b"/>
            <path d="M141-36C126-15 110 5 73 4 37 3 15-17 15-53c-1-64 63-63 125-63 3-35-9-54-41-54-24 1-41 7-42 31l-33-3c5-37 33-52 76-52 45 0 72 20 72 64v82c-1 20 7 32 28 27v20c-31 9-61-2-59-35zM48-53c0 20 12 33 32 33 41-3 63-29 60-74-43 2-92-5-92 41" id="h"/>
            <use transform="matrix(0.05,0,0,0.05,0,0)" xlink:href="#h" id="c"/>
            <path d="M115-194c53 0 69 39 70 98 0 66-23 100-70 100C84 3 66-7 56-30L54 0H23l1-261h32v101c10-23 28-34 59-34zm-8 174c40 0 45-34 45-75 0-40-5-75-45-74-42 0-51 32-51 76 0 43 10 73 51 73" id="i"/>
            <use transform="matrix(0.05,0,0,0.05,0,0)" xlink:href="#i" id="d"/>
            <path d="M96-169c-40 0-48 33-48 73s9 75 48 75c24 0 41-14 43-38l32 2c-6 37-31 61-74 61-59 0-76-41-82-99-10-93 101-131 147-64 4 7 5 14 7 22l-32 3c-4-21-16-35-41-35" id="j"/>
            <use transform="matrix(0.05,0,0,0.05,0,0)" xlink:href="#j" id="e"/>
        </defs>
    </g>
</svg>