<svg xmlns="http://www.w3.org/2000/svg" xmlns:xlink="http://www.w3.org/1999/xlink" xmlns:lucid="lucid" width="1252.5" height="510.28">
    <g transform="translate(-60 -335)" lucid:page-tab-id="0_0">
        <path d="M1088.33 572.5c0-2.76 2.24-5 5-5H1245c2.76 0 5 2.24 5 5v40.28c0 2.76-2.24 5-5 5h-151.67c-2.76 0-5-2.24-5-5z" fill="none"/>
        <use xlink:href="#a" transform="matrix(1,0,0,1,1088.3333333333,567.5) translate(8.697530864197091 33.0555555555556)"/>
        <path d="M432.5 415v49.54" stroke="#000" stroke-width="2" fill="none"/>
        <path/>
        <path d="M432.5 479.54l-4.64-14.26h9.28z"/>
        <path d="M432.5 482.78l-6-18.5h12zm-3.26-16.5l3.26 10.03 3.26-10.02z"/>
        <path d="M302.5 487.78c0-2.76 2.24-5 5-5h250c2.76 0 5 2.24 5 5v37.78c0 2.76-2.24 5-5 5h-250c-2.76 0-5-2.24-5-5z" fill="none"/>
        <use xlink:href="#b" transform="matrix(1,0,0,1,302.5,482.77777777778) translate(21.197530864197915 30.2222222222222)"/>
        <use xlink:href="#c" transform="matrix(1,0,0,1,302.5,482.77777777778) translate(121.35802469135807 30.2222222222222)"/>
        <use xlink:href="#d" transform="matrix(1,0,0,1,302.5,482.77777777778) translate(147.2839506172839 30.2222222222222)"/>
        <path d="M562.5 572.22c0-2.76 2.24-5 5-5h250c2.76 0 5 2.24 5 5V610c0 2.76-2.24 5-5 5h-250c-2.76 0-5-2.24-5-5z" fill="none"/>
        <use xlink:href="#e" transform="matrix(1,0,0,1,562.5,567.22222222222) translate(17.74074074074113 30.2222222222222)"/>
        <use xlink:href="#c" transform="matrix(1,0,0,1,562.5,567.22222222222) translate(121.35802469135805 30.2222222222222)"/>
        <use xlink:href="#f" transform="matrix(1,0,0,1,562.5,567.22222222222) translate(147.2839506172839 30.2222222222222)"/>
        <path d="M828.33 487.78c0-2.76 2.24-5 5-5h250c2.76 0 5 2.24 5 5v37.78c0 2.76-2.24 5-5 5h-250c-2.76 0-5-2.24-5-5z" fill="none"/>
        <use xlink:href="#e" transform="matrix(1,0,0,1,828.33333333333,482.77777777778) translate(17.74074074074113 30.2222222222222)"/>
        <use xlink:href="#c" transform="matrix(1,0,0,1,828.33333333333,482.77777777778) translate(121.35802469135805 30.2222222222222)"/>
        <use xlink:href="#f" transform="matrix(1,0,0,1,828.33333333333,482.77777777778) translate(147.2839506172839 30.2222222222222)"/>
        <path d="M692.5 415v134" stroke="#000" stroke-width="2" fill="none"/>
        <path/>
        <path d="M692.5 564l-4.64-14.28h9.28z"/>
        <path d="M692.5 567.22l-6-18.5h12zm-3.26-16.5l3.26 10.03 3.26-10.03z"/>
        <path d="M960.42 415l-1.53 49.55" stroke="#000" stroke-width="2" fill="none"/>
        <path d="M961.42 415.03l-1-.03h1zM963.5 465.43l-5.07 14.1-4.2-14.4z"/>
        <path d="M964.9 464.47l-6.57 18.3-5.44-18.67zm-6.37 11.84l3.57-9.92-6.52-.2z"/>
        <path d="M1032.5 727.78c0-2.76 2.24-5 5-5h250c2.76 0 5 2.24 5 5v37.78c0 2.76-2.24 5-5 5h-250c-2.76 0-5-2.24-5-5z" fill="none"/>
        <use xlink:href="#e" transform="matrix(1,0,0,1,1032.5,722.77777777778) translate(17.74074074074113 30.2222222222222)"/>
        <use xlink:href="#c" transform="matrix(1,0,0,1,1032.5,722.77777777778) translate(121.35802469135805 30.2222222222222)"/>
        <use xlink:href="#f" transform="matrix(1,0,0,1,1032.5,722.77777777778) translate(147.2839506172839 30.2222222222222)"/>
        <path d="M595 727.78c0-2.76 2.24-5 5-5h370c2.76 0 5 2.24 5 5v37.1c0 2.77-2.24 5-5 5H600c-2.76 0-5-2.23-5-5z" fill="none"/>
        <use xlink:href="#g" transform="matrix(1,0,0,1,595,722.77777777778) translate(10.333333333333968 30.2222222222222)"/>
        <use xlink:href="#c" transform="matrix(1,0,0,1,595,722.77777777778) translate(181.35802469135805 30.2222222222222)"/>
        <use xlink:href="#h" transform="matrix(1,0,0,1,595,722.77777777778) translate(207.2839506172839 30.2222222222222)"/>
        <path d="M327.5 670.28c0-2.76 2.24-5 5-5h210c2.76 0 5 2.24 5 5v150c0 2.76-2.24 5-5 5h-210c-2.76 0-5-2.24-5-5z" fill="none"/>
        <use xlink:href="#i" transform="matrix(1,0,0,1,327.5,665.27777777778) translate(14.462962962963303 30.2222222222224)"/>
        <use xlink:href="#c" transform="matrix(1,0,0,1,327.5,665.27777777778) translate(100.1913580246914 30.2222222222224)"/>
        <use xlink:href="#j" transform="matrix(1,0,0,1,327.5,665.27777777778) translate(126.11728395061724 30.2222222222224)"/>
        <use xlink:href="#k" transform="matrix(1,0,0,1,327.5,665.27777777778) translate(13.296296296296646 67.5555555555556)"/>
        <use xlink:href="#c" transform="matrix(1,0,0,1,327.5,665.27777777778) translate(101.35802469135807 67.5555555555556)"/>
        <use xlink:href="#l" transform="matrix(1,0,0,1,327.5,665.27777777778) translate(127.28395061728389 67.5555555555556)"/>
        <use xlink:href="#m" transform="matrix(1,0,0,1,327.5,665.27777777778) translate(97.03703703703708 104.8888888888888)"/>
        <use xlink:href="#n" transform="matrix(1,0,0,1,327.5,665.27777777778) translate(13.296296296296646 142.222222222222)"/>
        <use xlink:href="#c" transform="matrix(1,0,0,1,327.5,665.27777777778) translate(101.35802469135807 142.222222222222)"/>
        <use xlink:href="#o" transform="matrix(1,0,0,1,327.5,665.27777777778) translate(127.28395061728389 142.222222222222)"/>
        <path d="M372.5 360c0-2.76 2.24-5 5-5h110c2.76 0 5 2.24 5 5v50c0 2.76-2.24 5-5 5h-110c-2.76 0-5-2.24-5-5z" fill="none"/>
        <use xlink:href="#p" transform="matrix(1,0,0,1,372.5,355) translate(13.197530864197248 37.5555555555556)"/>
        <path d="M592.5 360c0-2.76 2.24-5 5-5h190c2.76 0 5 2.24 5 5v50c0 2.76-2.24 5-5 5h-190c-2.76 0-5-2.24-5-5z" fill="none"/>
        <use xlink:href="#q" transform="matrix(1,0,0,1,592.5,355) translate(24.49691358024647 37.5555555555556)"/>
        <path d="M882.5 360c0-2.76 2.24-5 5-5h160c2.76 0 5 2.24 5 5v50c0 2.76-2.24 5-5 5h-160c-2.76 0-5-2.24-5-5z" fill="none"/>
        <use xlink:href="#r" transform="matrix(1,0,0,1,882.5,355) translate(17.31481481481441 37.5555555555556)"/>
        <path d="M492.5 385h81.76" stroke="#000" stroke-width="2" fill="none"/>
        <path/>
        <path d="M589.26 385L575 389.64v-9.28z"/>
        <path d="M592.5 385l-18.5 6v-12zm-16.5 3.26l10.03-3.26-10.03-3.26z"/>
        <path d="M792.5 385h71.76" stroke="#000" stroke-width="2" fill="none"/>
        <path/>
        <path d="M879.26 385L865 389.64v-9.28z"/>
        <path d="M882.5 385l-18.5 6v-12zm-16.5 3.26l10.03-3.26-10.03-3.26z"/>
        <path d="M1158.22 617.78l1.47 86.76" stroke="#000" stroke-width="2" fill="none"/>
        <path d="M1157.22 617.8v-.02h1zM1159.95 719.54l-4.88-14.18 9.27-.16z"/>
        <path d="M1160 722.78l-6.32-18.4 12.02-.2zm-3.54-16.45l3.43 9.98 3.08-10.08z"/>
        <path d="M1032.5 746.55l-39.26-.03" stroke="#000" stroke-width="2" fill="none"/>
        <path d="M1032.5 747.55v-1zM992.5 751.15l-14.26-4.65 14.27-4.62z"/>
        <path d="M993.5 752.53L975 746.5l18.5-6zm-12.03-6.02l10.03 3.27v-6.5z"/>
        <path d="M595 745.76l-29.26-.3" stroke="#000" stroke-width="2" fill="none"/>
        <path d="M595 746.76v-1zM564.95 750.1l-14.2-4.8 14.3-4.48z"/>
        <path d="M565.94 751.48l-18.44-6.2 18.56-5.83zm-11.97-6.14l10 3.36.06-6.5z"/>
        <path d="M1052.5 385h101.56c2.76 0 5 2.24 5 5v159.26" stroke="#000" stroke-width="2" fill="none"/>
        <path/>
        <path d="M1159.06 564.26l-4.63-14.26h9.27z"/>
        <path d="M1159.06 567.5l-6-18.5h12zm-3.26-16.5l3.26 10.03 3.26-10.03z"/>
        <path d="M100 360c0-2.76 2.24-5 5-5h190c2.76 0 5 2.24 5 5v50c0 2.76-2.24 5-5 5H105c-2.76 0-5-2.24-5-5z" fill="none"/>
        <g>
            <use xlink:href="#s" transform="matrix(1,0,0,1,100,355) translate(10.959876543209347 37.5555555555556)"/>
        </g>
        <path d="M190 415v134" stroke="#000" stroke-width="2" fill="none"/>
        <path/>
        <path d="M190 564l-4.64-14.28h9.28z"/>
        <path d="M190 567.22l-6-18.5h12zm-3.26-16.5l3.26 10.03 3.26-10.03z"/>
        <path d="M80 572.22c0-2.76 2.24-5 5-5h250c2.76 0 5 2.24 5 5V610c0 2.76-2.24 5-5 5H85c-2.76 0-5-2.24-5-5z" fill="none"/>
        <g>
            <use xlink:href="#b" transform="matrix(1,0,0,1,80,567.22222222222) translate(21.197530864197915 30.2222222222222)"/>
            <use xlink:href="#c" transform="matrix(1,0,0,1,80,567.22222222222) translate(121.35802469135807 30.2222222222222)"/>
            <use xlink:href="#d" transform="matrix(1,0,0,1,80,567.22222222222) translate(147.2839506172839 30.2222222222222)"/>
        </g>
        <path d="M300 385h54.26" stroke="#000" stroke-width="2" fill="none"/>
        <path d="M300 386v-2zM369.26 385L355 389.64v-9.28z"/>
        <path d="M372.5 385l-18.5 6v-12zm-16.5 3.26l10.03-3.26-10.03-3.26z"/>
        <defs>
            <path fill="#66f" d="M63-220v92h138v28H63V0H30v-248h175v28H63" id="t"/>
            <path fill="#66f" d="M84 4C-5 8 30-112 23-190h32v120c0 31 7 50 39 49 72-2 45-101 50-169h31l1 190h-30c-1-10 1-25-2-33-11 22-28 36-60 37" id="u"/>
            <path fill="#66f" d="M117-194c89-4 53 116 60 194h-32v-121c0-31-8-49-39-48C34-167 62-67 57 0H25l-1-190h30c1 10-1 24 2 32 11-22 29-35 61-36" id="v"/>
            <path fill="#66f" d="M96-169c-40 0-48 33-48 73s9 75 48 75c24 0 41-14 43-38l32 2c-6 37-31 61-74 61-59 0-76-41-82-99-10-93 101-131 147-64 4 7 5 14 7 22l-32 3c-4-21-16-35-41-35" id="w"/>
            <path fill="#66f" d="M59-47c-2 24 18 29 38 22v24C64 9 27 4 27-40v-127H5v-23h24l9-43h21v43h35v23H59v120" id="x"/>
            <path fill="#66f" d="M24-231v-30h32v30H24zM24 0v-190h32V0H24" id="y"/>
            <path fill="#66f" d="M100-194c62-1 85 37 85 99 1 63-27 99-86 99S16-35 15-95c0-66 28-99 85-99zM99-20c44 1 53-31 53-75 0-43-8-75-51-75s-53 32-53 75 10 74 51 75" id="z"/>
            <g id="a">
                <use transform="matrix(0.10493827160493889,0,0,0.10493827160493889,0,0)" xlink:href="#t"/>
                <use transform="matrix(0.10493827160493889,0,0,0.10493827160493889,22.981481481481616,0)" xlink:href="#u"/>
                <use transform="matrix(0.10493827160493889,0,0,0.10493827160493889,43.969135802469395,0)" xlink:href="#v"/>
                <use transform="matrix(0.10493827160493889,0,0,0.10493827160493889,64.95679012345718,0)" xlink:href="#w"/>
                <use transform="matrix(0.10493827160493889,0,0,0.10493827160493889,83.84567901234618,0)" xlink:href="#x"/>
                <use transform="matrix(0.10493827160493889,0,0,0.10493827160493889,94.33950617284007,0)" xlink:href="#y"/>
                <use transform="matrix(0.10493827160493889,0,0,0.10493827160493889,102.62962962963024,0)" xlink:href="#z"/>
                <use transform="matrix(0.10493827160493889,0,0,0.10493827160493889,123.61728395061803,0)" xlink:href="#v"/>
            </g>
            <path d="M108 0H70L1-190h34L89-25l56-165h34" id="A"/>
            <path d="M141-36C126-15 110 5 73 4 37 3 15-17 15-53c-1-64 63-63 125-63 3-35-9-54-41-54-24 1-41 7-42 31l-33-3c5-37 33-52 76-52 45 0 72 20 72 64v82c-1 20 7 32 28 27v20c-31 9-61-2-59-35zM48-53c0 20 12 33 32 33 41-3 63-29 60-74-43 2-92-5-92 41" id="B"/>
            <path d="M24 0v-261h32V0H24" id="C"/>
            <path d="M84 4C-5 8 30-112 23-190h32v120c0 31 7 50 39 49 72-2 45-101 50-169h31l1 190h-30c-1-10 1-25-2-33-11 22-28 36-60 37" id="D"/>
            <path d="M100-194c63 0 86 42 84 106H49c0 40 14 67 53 68 26 1 43-12 49-29l28 8c-11 28-37 45-77 45C44 4 14-33 15-96c1-61 26-98 85-98zm52 81c6-60-76-77-97-28-3 7-6 17-6 28h103" id="E"/>
            <path d="M27 0v-27h64v-190l-56 39v-29l58-41h29v221h61V0H27" id="F"/>
            <g id="b">
                <use transform="matrix(0.08641975308641944,0,0,0.08641975308641944,0,0)" xlink:href="#A"/>
                <use transform="matrix(0.08641975308641944,0,0,0.08641975308641944,15.5555555555555,0)" xlink:href="#B"/>
                <use transform="matrix(0.08641975308641944,0,0,0.08641975308641944,32.83950617283939,0)" xlink:href="#C"/>
                <use transform="matrix(0.08641975308641944,0,0,0.08641975308641944,39.66666666666653,0)" xlink:href="#D"/>
                <use transform="matrix(0.08641975308641944,0,0,0.08641975308641944,56.95061728395042,0)" xlink:href="#E"/>
                <use transform="matrix(0.08641975308641944,0,0,0.08641975308641944,74.23456790123431,0)" xlink:href="#F"/>
            </g>
            <path d="M103-251c84 0 111 97 45 133-19 10-37 24-39 52H78c0-63 77-55 77-114 0-30-21-42-52-43-32 0-53 17-56 46l-32-2c7-45 34-72 88-72zM77 0v-35h34V0H77" id="G"/>
            <use transform="matrix(0.08641975308641944,0,0,0.08641975308641944,0,0)" xlink:href="#G" id="c"/>
            <path d="M101-251c82-7 93 87 43 132L82-64C71-53 59-42 53-27h129V0H18c2-99 128-94 128-182 0-28-16-43-45-43s-46 15-49 41l-32-3c6-41 34-60 81-64" id="H"/>
            <g id="d">
                <use transform="matrix(0.08641975308641944,0,0,0.08641975308641944,0,0)" xlink:href="#A"/>
                <use transform="matrix(0.08641975308641944,0,0,0.08641975308641944,15.5555555555555,0)" xlink:href="#B"/>
                <use transform="matrix(0.08641975308641944,0,0,0.08641975308641944,32.83950617283939,0)" xlink:href="#C"/>
                <use transform="matrix(0.08641975308641944,0,0,0.08641975308641944,39.66666666666653,0)" xlink:href="#D"/>
                <use transform="matrix(0.08641975308641944,0,0,0.08641975308641944,56.95061728395042,0)" xlink:href="#E"/>
                <use transform="matrix(0.08641975308641944,0,0,0.08641975308641944,74.23456790123431,0)" xlink:href="#H"/>
            </g>
            <path d="M117-194c89-4 53 116 60 194h-32v-121c0-31-8-49-39-48C34-167 62-67 57 0H25l-1-190h30c1 10-1 24 2 32 11-22 29-35 61-36" id="I"/>
            <path d="M210-169c-67 3-38 105-44 169h-31v-121c0-29-5-50-35-48C34-165 62-65 56 0H25l-1-190h30c1 10-1 24 2 32 10-44 99-50 107 0 11-21 27-35 58-36 85-2 47 119 55 194h-31v-121c0-29-5-49-35-48" id="J"/>
            <g id="e">
                <use transform="matrix(0.08641975308641944,0,0,0.08641975308641944,0,0)" xlink:href="#I"/>
                <use transform="matrix(0.08641975308641944,0,0,0.08641975308641944,17.28395061728389,0)" xlink:href="#B"/>
                <use transform="matrix(0.08641975308641944,0,0,0.08641975308641944,34.56790123456778,0)" xlink:href="#J"/>
                <use transform="matrix(0.08641975308641944,0,0,0.08641975308641944,60.40740740740719,0)" xlink:href="#E"/>
                <use transform="matrix(0.08641975308641944,0,0,0.08641975308641944,77.69135802469108,0)" xlink:href="#F"/>
            </g>
            <g id="f">
                <use transform="matrix(0.08641975308641944,0,0,0.08641975308641944,0,0)" xlink:href="#I"/>
                <use transform="matrix(0.08641975308641944,0,0,0.08641975308641944,17.28395061728389,0)" xlink:href="#B"/>
                <use transform="matrix(0.08641975308641944,0,0,0.08641975308641944,34.56790123456778,0)" xlink:href="#J"/>
                <use transform="matrix(0.08641975308641944,0,0,0.08641975308641944,60.40740740740719,0)" xlink:href="#E"/>
                <use transform="matrix(0.08641975308641944,0,0,0.08641975308641944,77.69135802469108,0)" xlink:href="#H"/>
            </g>
            <path d="M114-163C36-179 61-72 57 0H25l-1-190h30c1 12-1 29 2 39 6-27 23-49 58-41v29" id="K"/>
            <path d="M177-190C167-65 218 103 67 71c-23-6-38-20-44-43l32-5c15 47 100 32 89-28v-30C133-14 115 1 83 1 29 1 15-40 15-95c0-56 16-97 71-98 29-1 48 16 59 35 1-10 0-23 2-32h30zM94-22c36 0 50-32 50-73 0-42-14-75-50-75-39 0-46 34-46 75s6 73 46 73" id="L"/>
            <path d="M135-143c-3-34-86-38-87 0 15 53 115 12 119 90S17 21 10-45l28-5c4 36 97 45 98 0-10-56-113-15-118-90-4-57 82-63 122-42 12 7 21 19 24 35" id="M"/>
            <path d="M33 0v-38h34V0H33" id="N"/>
            <path d="M96-169c-40 0-48 33-48 73s9 75 48 75c24 0 41-14 43-38l32 2c-6 37-31 61-74 61-59 0-76-41-82-99-10-93 101-131 147-64 4 7 5 14 7 22l-32 3c-4-21-16-35-41-35" id="O"/>
            <path d="M100-194c62-1 85 37 85 99 1 63-27 99-86 99S16-35 15-95c0-66 28-99 85-99zM99-20c44 1 53-31 53-75 0-43-8-75-51-75s-53 32-53 75 10 74 51 75" id="P"/>
            <path d="M59-47c-2 24 18 29 38 22v24C64 9 27 4 27-40v-127H5v-23h24l9-43h21v43h35v23H59v120" id="Q"/>
            <g id="g">
                <use transform="matrix(0.08641975308641944,0,0,0.08641975308641944,0,0)" xlink:href="#B"/>
                <use transform="matrix(0.08641975308641944,0,0,0.08641975308641944,17.28395061728389,0)" xlink:href="#K"/>
                <use transform="matrix(0.08641975308641944,0,0,0.08641975308641944,27.567901234567803,0)" xlink:href="#L"/>
                <use transform="matrix(0.08641975308641944,0,0,0.08641975308641944,44.85185185185169,0)" xlink:href="#M"/>
                <use transform="matrix(0.08641975308641944,0,0,0.08641975308641944,60.40740740740719,0)" xlink:href="#F"/>
                <use transform="matrix(0.08641975308641944,0,0,0.08641975308641944,77.69135802469108,0)" xlink:href="#N"/>
                <use transform="matrix(0.08641975308641944,0,0,0.08641975308641944,86.33333333333303,0)" xlink:href="#O"/>
                <use transform="matrix(0.08641975308641944,0,0,0.08641975308641944,101.88888888888852,0)" xlink:href="#P"/>
                <use transform="matrix(0.08641975308641944,0,0,0.08641975308641944,119.17283950617244,0)" xlink:href="#D"/>
                <use transform="matrix(0.08641975308641944,0,0,0.08641975308641944,136.4567901234563,0)" xlink:href="#I"/>
                <use transform="matrix(0.08641975308641944,0,0,0.08641975308641944,153.7407407407402,0)" xlink:href="#Q"/>
            </g>
            <g id="h">
                <use transform="matrix(0.08641975308641944,0,0,0.08641975308641944,0,0)" xlink:href="#B"/>
                <use transform="matrix(0.08641975308641944,0,0,0.08641975308641944,17.28395061728389,0)" xlink:href="#K"/>
                <use transform="matrix(0.08641975308641944,0,0,0.08641975308641944,27.567901234567803,0)" xlink:href="#L"/>
                <use transform="matrix(0.08641975308641944,0,0,0.08641975308641944,44.85185185185169,0)" xlink:href="#M"/>
                <use transform="matrix(0.08641975308641944,0,0,0.08641975308641944,60.40740740740719,0)" xlink:href="#H"/>
                <use transform="matrix(0.08641975308641944,0,0,0.08641975308641944,77.69135802469108,0)" xlink:href="#N"/>
                <use transform="matrix(0.08641975308641944,0,0,0.08641975308641944,86.33333333333303,0)" xlink:href="#O"/>
                <use transform="matrix(0.08641975308641944,0,0,0.08641975308641944,101.88888888888852,0)" xlink:href="#P"/>
                <use transform="matrix(0.08641975308641944,0,0,0.08641975308641944,119.17283950617244,0)" xlink:href="#D"/>
                <use transform="matrix(0.08641975308641944,0,0,0.08641975308641944,136.4567901234563,0)" xlink:href="#I"/>
                <use transform="matrix(0.08641975308641944,0,0,0.08641975308641944,153.7407407407402,0)" xlink:href="#Q"/>
            </g>
            <g id="i">
                <use transform="matrix(0.08641975308641944,0,0,0.08641975308641944,0,0)" xlink:href="#B"/>
                <use transform="matrix(0.08641975308641944,0,0,0.08641975308641944,17.28395061728389,0)" xlink:href="#K"/>
                <use transform="matrix(0.08641975308641944,0,0,0.08641975308641944,27.567901234567803,0)" xlink:href="#L"/>
                <use transform="matrix(0.08641975308641944,0,0,0.08641975308641944,44.85185185185169,0)" xlink:href="#F"/>
                <use transform="matrix(0.08641975308641944,0,0,0.08641975308641944,59.802469135802255,0)" xlink:href="#F"/>
            </g>
            <g id="j">
                <use transform="matrix(0.08641975308641944,0,0,0.08641975308641944,0,0)" xlink:href="#B"/>
                <use transform="matrix(0.08641975308641944,0,0,0.08641975308641944,17.28395061728389,0)" xlink:href="#K"/>
                <use transform="matrix(0.08641975308641944,0,0,0.08641975308641944,27.567901234567803,0)" xlink:href="#L"/>
                <use transform="matrix(0.08641975308641944,0,0,0.08641975308641944,44.85185185185169,0)" xlink:href="#H"/>
                <use transform="matrix(0.08641975308641944,0,0,0.08641975308641944,62.13580246913558,0)" xlink:href="#F"/>
            </g>
            <g id="k">
                <use transform="matrix(0.08641975308641944,0,0,0.08641975308641944,0,0)" xlink:href="#B"/>
                <use transform="matrix(0.08641975308641944,0,0,0.08641975308641944,17.28395061728389,0)" xlink:href="#K"/>
                <use transform="matrix(0.08641975308641944,0,0,0.08641975308641944,27.567901234567803,0)" xlink:href="#L"/>
                <use transform="matrix(0.08641975308641944,0,0,0.08641975308641944,44.85185185185169,0)" xlink:href="#F"/>
                <use transform="matrix(0.08641975308641944,0,0,0.08641975308641944,62.13580246913558,0)" xlink:href="#H"/>
            </g>
            <g id="l">
                <use transform="matrix(0.08641975308641944,0,0,0.08641975308641944,0,0)" xlink:href="#B"/>
                <use transform="matrix(0.08641975308641944,0,0,0.08641975308641944,17.28395061728389,0)" xlink:href="#K"/>
                <use transform="matrix(0.08641975308641944,0,0,0.08641975308641944,27.567901234567803,0)" xlink:href="#L"/>
                <use transform="matrix(0.08641975308641944,0,0,0.08641975308641944,44.85185185185169,0)" xlink:href="#H"/>
                <use transform="matrix(0.08641975308641944,0,0,0.08641975308641944,62.13580246913558,0)" xlink:href="#H"/>
            </g>
            <g id="m">
                <use transform="matrix(0.08641975308641944,0,0,0.08641975308641944,0,0)" xlink:href="#N"/>
                <use transform="matrix(0.08641975308641944,0,0,0.08641975308641944,8.641975308641944,0)" xlink:href="#N"/>
                <use transform="matrix(0.08641975308641944,0,0,0.08641975308641944,17.28395061728389,0)" xlink:href="#N"/>
            </g>
            <g id="n">
                <use transform="matrix(0.08641975308641944,0,0,0.08641975308641944,0,0)" xlink:href="#B"/>
                <use transform="matrix(0.08641975308641944,0,0,0.08641975308641944,17.28395061728389,0)" xlink:href="#K"/>
                <use transform="matrix(0.08641975308641944,0,0,0.08641975308641944,27.567901234567803,0)" xlink:href="#L"/>
                <use transform="matrix(0.08641975308641944,0,0,0.08641975308641944,44.85185185185169,0)" xlink:href="#F"/>
                <use transform="matrix(0.08641975308641944,0,0,0.08641975308641944,62.13580246913558,0)" xlink:href="#I"/>
            </g>
            <g id="o">
                <use transform="matrix(0.08641975308641944,0,0,0.08641975308641944,0,0)" xlink:href="#B"/>
                <use transform="matrix(0.08641975308641944,0,0,0.08641975308641944,17.28395061728389,0)" xlink:href="#K"/>
                <use transform="matrix(0.08641975308641944,0,0,0.08641975308641944,27.567901234567803,0)" xlink:href="#L"/>
                <use transform="matrix(0.08641975308641944,0,0,0.08641975308641944,44.85185185185169,0)" xlink:href="#H"/>
                <use transform="matrix(0.08641975308641944,0,0,0.08641975308641944,62.13580246913558,0)" xlink:href="#I"/>
            </g>
            <path fill="#066" d="M137 0h-34L2-248h35l83 218 83-218h36" id="R"/>
            <path fill="#066" d="M141-36C126-15 110 5 73 4 37 3 15-17 15-53c-1-64 63-63 125-63 3-35-9-54-41-54-24 1-41 7-42 31l-33-3c5-37 33-52 76-52 45 0 72 20 72 64v82c-1 20 7 32 28 27v20c-31 9-61-2-59-35zM48-53c0 20 12 33 32 33 41-3 63-29 60-74-43 2-92-5-92 41" id="S"/>
            <path fill="#066" d="M24 0v-261h32V0H24" id="T"/>
            <path fill="#066" d="M84 4C-5 8 30-112 23-190h32v120c0 31 7 50 39 49 72-2 45-101 50-169h31l1 190h-30c-1-10 1-25-2-33-11 22-28 36-60 37" id="U"/>
            <path fill="#066" d="M100-194c63 0 86 42 84 106H49c0 40 14 67 53 68 26 1 43-12 49-29l28 8c-11 28-37 45-77 45C44 4 14-33 15-96c1-61 26-98 85-98zm52 81c6-60-76-77-97-28-3 7-6 17-6 28h103" id="V"/>
            <g id="p">
                <use transform="matrix(0.10493827160493889,0,0,0.10493827160493889,0,0)" xlink:href="#R"/>
                <use transform="matrix(0.10493827160493889,0,0,0.10493827160493889,22.351851851851983,0)" xlink:href="#S"/>
                <use transform="matrix(0.10493827160493889,0,0,0.10493827160493889,43.33950617283976,0)" xlink:href="#T"/>
                <use transform="matrix(0.10493827160493889,0,0,0.10493827160493889,51.62962962962993,0)" xlink:href="#U"/>
                <use transform="matrix(0.10493827160493889,0,0,0.10493827160493889,72.61728395061772,0)" xlink:href="#V"/>
            </g>
            <path fill="#994c00" d="M212-179c-10-28-35-45-73-45-59 0-87 40-87 99 0 60 29 101 89 101 43 0 62-24 78-52l27 14C228-24 195 4 139 4 59 4 22-46 18-125c-6-104 99-153 187-111 19 9 31 26 39 46" id="W"/>
            <path fill="#994c00" d="M100-194c62-1 85 37 85 99 1 63-27 99-86 99S16-35 15-95c0-66 28-99 85-99zM99-20c44 1 53-31 53-75 0-43-8-75-51-75s-53 32-53 75 10 74 51 75" id="X"/>
            <path fill="#994c00" d="M117-194c89-4 53 116 60 194h-32v-121c0-31-8-49-39-48C34-167 62-67 57 0H25l-1-190h30c1 10-1 24 2 32 11-22 29-35 61-36" id="Y"/>
            <path fill="#994c00" d="M135-143c-3-34-86-38-87 0 15 53 115 12 119 90S17 21 10-45l28-5c4 36 97 45 98 0-10-56-113-15-118-90-4-57 82-63 122-42 12 7 21 19 24 35" id="Z"/>
            <path fill="#994c00" d="M59-47c-2 24 18 29 38 22v24C64 9 27 4 27-40v-127H5v-23h24l9-43h21v43h35v23H59v120" id="aa"/>
            <path fill="#994c00" d="M141-36C126-15 110 5 73 4 37 3 15-17 15-53c-1-64 63-63 125-63 3-35-9-54-41-54-24 1-41 7-42 31l-33-3c5-37 33-52 76-52 45 0 72 20 72 64v82c-1 20 7 32 28 27v20c-31 9-61-2-59-35zM48-53c0 20 12 33 32 33 41-3 63-29 60-74-43 2-92-5-92 41" id="ab"/>
            <g id="q">
                <use transform="matrix(0.10493827160493889,0,0,0.10493827160493889,0,0)" xlink:href="#W"/>
                <use transform="matrix(0.10493827160493889,0,0,0.10493827160493889,27.179012345679173,0)" xlink:href="#X"/>
                <use transform="matrix(0.10493827160493889,0,0,0.10493827160493889,48.166666666666956,0)" xlink:href="#Y"/>
                <use transform="matrix(0.10493827160493889,0,0,0.10493827160493889,69.15432098765473,0)" xlink:href="#Z"/>
                <use transform="matrix(0.10493827160493889,0,0,0.10493827160493889,88.04320987654373,0)" xlink:href="#aa"/>
                <use transform="matrix(0.10493827160493889,0,0,0.10493827160493889,98.53703703703762,0)" xlink:href="#ab"/>
                <use transform="matrix(0.10493827160493889,0,0,0.10493827160493889,119.5246913580254,0)" xlink:href="#Y"/>
                <use transform="matrix(0.10493827160493889,0,0,0.10493827160493889,140.51234567901318,0)" xlink:href="#aa"/>
            </g>
            <path fill="#00994d" d="M137 0h-34L2-248h35l83 218 83-218h36" id="ac"/>
            <path fill="#00994d" d="M141-36C126-15 110 5 73 4 37 3 15-17 15-53c-1-64 63-63 125-63 3-35-9-54-41-54-24 1-41 7-42 31l-33-3c5-37 33-52 76-52 45 0 72 20 72 64v82c-1 20 7 32 28 27v20c-31 9-61-2-59-35zM48-53c0 20 12 33 32 33 41-3 63-29 60-74-43 2-92-5-92 41" id="ad"/>
            <path fill="#00994d" d="M114-163C36-179 61-72 57 0H25l-1-190h30c1 12-1 29 2 39 6-27 23-49 58-41v29" id="ae"/>
            <path fill="#00994d" d="M24-231v-30h32v30H24zM24 0v-190h32V0H24" id="af"/>
            <path fill="#00994d" d="M115-194c53 0 69 39 70 98 0 66-23 100-70 100C84 3 66-7 56-30L54 0H23l1-261h32v101c10-23 28-34 59-34zm-8 174c40 0 45-34 45-75 0-40-5-75-45-74-42 0-51 32-51 76 0 43 10 73 51 73" id="ag"/>
            <path fill="#00994d" d="M24 0v-261h32V0H24" id="ah"/>
            <path fill="#00994d" d="M100-194c63 0 86 42 84 106H49c0 40 14 67 53 68 26 1 43-12 49-29l28 8c-11 28-37 45-77 45C44 4 14-33 15-96c1-61 26-98 85-98zm52 81c6-60-76-77-97-28-3 7-6 17-6 28h103" id="ai"/>
            <g id="r">
                <use transform="matrix(0.10493827160493889,0,0,0.10493827160493889,0,0)" xlink:href="#ac"/>
                <use transform="matrix(0.10493827160493889,0,0,0.10493827160493889,22.351851851851983,0)" xlink:href="#ad"/>
                <use transform="matrix(0.10493827160493889,0,0,0.10493827160493889,43.33950617283976,0)" xlink:href="#ae"/>
                <use transform="matrix(0.10493827160493889,0,0,0.10493827160493889,55.82716049382749,0)" xlink:href="#af"/>
                <use transform="matrix(0.10493827160493889,0,0,0.10493827160493889,64.11728395061766,0)" xlink:href="#ad"/>
                <use transform="matrix(0.10493827160493889,0,0,0.10493827160493889,85.10493827160545,0)" xlink:href="#ag"/>
                <use transform="matrix(0.10493827160493889,0,0,0.10493827160493889,106.09259259259323,0)" xlink:href="#ah"/>
                <use transform="matrix(0.10493827160493889,0,0,0.10493827160493889,114.38271604938342,0)" xlink:href="#ai"/>
            </g>
            <path fill="#f33" d="M212-179c-10-28-35-45-73-45-59 0-87 40-87 99 0 60 29 101 89 101 43 0 62-24 78-52l27 14C228-24 195 4 139 4 59 4 22-46 18-125c-6-104 99-153 187-111 19 9 31 26 39 46" id="aj"/>
            <path fill="#f33" d="M141-36C126-15 110 5 73 4 37 3 15-17 15-53c-1-64 63-63 125-63 3-35-9-54-41-54-24 1-41 7-42 31l-33-3c5-37 33-52 76-52 45 0 72 20 72 64v82c-1 20 7 32 28 27v20c-31 9-61-2-59-35zM48-53c0 20 12 33 32 33 41-3 63-29 60-74-43 2-92-5-92 41" id="ak"/>
            <path fill="#f33" d="M24 0v-261h32V0H24" id="al"/>
            <path fill="#f33" d="M96-169c-40 0-48 33-48 73s9 75 48 75c24 0 41-14 43-38l32 2c-6 37-31 61-74 61-59 0-76-41-82-99-10-93 101-131 147-64 4 7 5 14 7 22l-32 3c-4-21-16-35-41-35" id="am"/>
            <path fill="#f33" d="M84 4C-5 8 30-112 23-190h32v120c0 31 7 50 39 49 72-2 45-101 50-169h31l1 190h-30c-1-10 1-25-2-33-11 22-28 36-60 37" id="an"/>
            <path fill="#f33" d="M59-47c-2 24 18 29 38 22v24C64 9 27 4 27-40v-127H5v-23h24l9-43h21v43h35v23H59v120" id="ao"/>
            <path fill="#f33" d="M100-194c63 0 86 42 84 106H49c0 40 14 67 53 68 26 1 43-12 49-29l28 8c-11 28-37 45-77 45C44 4 14-33 15-96c1-61 26-98 85-98zm52 81c6-60-76-77-97-28-3 7-6 17-6 28h103" id="ap"/>
            <path fill="#f33" d="M85-194c31 0 48 13 60 33l-1-100h32l1 261h-30c-2-10 0-23-3-31C134-8 116 4 85 4 32 4 16-35 15-94c0-66 23-100 70-100zm9 24c-40 0-46 34-46 75 0 40 6 74 45 74 42 0 51-32 51-76 0-42-9-74-50-73" id="aq"/>
            <g id="s">
                <use transform="matrix(0.10493827160493889,0,0,0.10493827160493889,0,0)" xlink:href="#aj"/>
                <use transform="matrix(0.10493827160493889,0,0,0.10493827160493889,27.179012345679173,0)" xlink:href="#ak"/>
                <use transform="matrix(0.10493827160493889,0,0,0.10493827160493889,48.166666666666956,0)" xlink:href="#al"/>
                <use transform="matrix(0.10493827160493889,0,0,0.10493827160493889,56.456790123457125,0)" xlink:href="#am"/>
                <use transform="matrix(0.10493827160493889,0,0,0.10493827160493889,75.34567901234612,0)" xlink:href="#an"/>
                <use transform="matrix(0.10493827160493889,0,0,0.10493827160493889,96.33333333333391,0)" xlink:href="#al"/>
                <use transform="matrix(0.10493827160493889,0,0,0.10493827160493889,104.62345679012408,0)" xlink:href="#ak"/>
                <use transform="matrix(0.10493827160493889,0,0,0.10493827160493889,125.61111111111185,0)" xlink:href="#ao"/>
                <use transform="matrix(0.10493827160493889,0,0,0.10493827160493889,136.10493827160573,0)" xlink:href="#ap"/>
                <use transform="matrix(0.10493827160493889,0,0,0.10493827160493889,157.09259259259352,0)" xlink:href="#aq"/>
            </g>
        </defs>
    </g>
</svg>